<svg width="487" height="105" viewBox="0 0 487 105" fill="none" xmlns="http://www.w3.org/2000/svg">
<path d="M23.4805 28.5V59.9H34.2805C36.9805 59.9 38.3805 57.6 38.3805 53.1V35.4C38.3805 30.8 36.9805 28.5 34.2805 28.5H23.4805ZM34.8805 9.49999C48.9805 9.49999 52.4805 17.3 52.4805 34.5V53.9C52.4805 71.2 48.9805 79 34.8805 79H15.0805C11.2805 79 9.38047 76.9 9.38047 72.5V16C9.38047 11.7 11.2805 9.49999 15.0805 9.49999H34.8805ZM15.0805 0.599996C5.28047 0.599996 0.380469 5.79999 0.380469 16V72.5C0.380469 82.8 5.28047 87.9 15.0805 87.9H34.8805C56.1805 87.9 61.4805 77.2 61.4805 53.9V34.5C61.4805 11.2 56.1805 0.599996 34.8805 0.599996H15.0805ZM92.882 79C79.082 79 75.682 72.1 75.682 59.7V44.7C75.682 32.3 79.082 25.4 92.882 25.4H100.082C113.882 25.4 117.282 32.3 117.282 44.7V59.7C117.282 72.1 113.882 79 100.082 79H92.882ZM99.582 62C102.582 62 103.782 61.5 103.782 58.1V46.3C103.782 42.9 102.582 42.4 99.582 42.4H93.382C90.282 42.4 89.182 42.9 89.182 46.3V58.1C89.182 61.5 90.282 62 93.382 62H99.582ZM100.082 87.9C121.082 87.9 126.282 77.8 126.282 59.7V44.7C126.282 26.6 121.082 16.5 100.082 16.5H92.882C71.882 16.5 66.682 26.6 66.682 44.7V59.7C66.682 77.8 71.882 87.9 92.882 87.9H100.082ZM166.526 58.5V42.4H158.226C155.126 42.4 154.026 42.9 154.026 46.3V54.7C154.026 58.1 155.126 58.5 158.226 58.5H166.526ZM173.426 25.4C176.826 25.4 180.226 27.7 180.226 32.3V76.7C180.226 89.1 176.826 96 163.026 96H148.026C144.326 96 142.526 93.7 142.526 89.2V85.8C142.526 81.3 144.326 79 148.026 79H162.226C165.326 79 166.526 78.6 166.526 75.2V74.1H157.726C143.926 74.1 140.526 67.2 140.526 54.7V44.7C140.526 32.3 143.926 25.4 157.726 25.4H173.426ZM157.726 16.5C136.726 16.5 131.526 26.6 131.526 44.7V54.7C131.526 63.5 132.726 70.3 136.326 75.1C134.426 77.7 133.426 81.2 133.426 85.8V89.2C133.426 99.6 138.426 104.9 148.026 104.9H163.026C184.026 104.9 189.226 94.9 189.226 76.7V32.3C189.226 21.8 181.326 16.5 173.426 16.5H157.726ZM230.409 25.4C240.909 25.4 244.309 32.1 244.309 43.2C244.309 54.2 240.909 58.9 229.009 58.9H223.309C220.509 58.9 218.409 58.6 217.209 58.1C217.209 61.5 218.309 62 221.409 62H235.909C239.609 62 241.409 64.3 241.409 68.8V72.2C241.409 76.7 239.609 79 235.909 79H220.909C207.109 79 203.709 72.1 203.709 59.7V45.8C203.709 31.5 207.109 25.4 219.009 25.4H230.409ZM220.509 42C218.409 42 217.409 43.3 217.409 46.4V47H229.409C230.509 47 231.109 46.3 231.109 44.8C231.109 42.9 230.509 42 229.409 42H220.509ZM219.009 16.5C200.109 16.5 194.709 25.3 194.709 45.8V59.7C194.709 77.8 199.909 87.9 220.909 87.9H235.909C245.509 87.9 250.509 82.6 250.509 72.2V68.8C250.509 65.7 250.109 63.1 249.209 60.8C252.209 56.9 253.309 51 253.309 43.2C253.309 26.6 247.809 16.5 230.409 16.5H219.009ZM278.693 13.8C282.193 13.8 285.593 16.1 285.593 20.7V25.4H293.793C296.793 25.4 298.293 27.4 298.293 31.2V34.2C298.293 38.1 296.793 40 293.793 40H285.593V60.9C285.593 64.1 286.993 64.5 289.893 64.5H292.993C296.593 64.5 298.493 66.8 298.493 71.3V72.6C298.493 77.1 296.593 79.4 292.993 79.4H284.893C275.293 79.4 271.893 74.1 271.893 64.3V40H269.393C266.493 40 264.993 38.1 264.993 34.2V31.2C264.993 27.4 266.493 25.4 269.393 25.4H271.893V20.7C271.893 16.1 275.293 13.8 278.693 13.8ZM278.693 4.89999C271.593 4.89999 264.493 9.2 263.093 17.6C258.393 19.6 255.993 24.1 255.993 31.2V34.2C255.993 41.2 258.293 45.8 262.893 47.7V64.3C262.893 79.9 268.693 88.3 284.893 88.3H292.993C302.593 88.3 307.493 83 307.493 72.6V71.3C307.493 61.6 303.193 56.3 294.693 55.7V48.8C303.093 48.6 307.293 43.8 307.293 34.2V31.2C307.293 21.6 302.893 16.7 294.193 16.5C292.393 8.9 285.593 4.89999 278.693 4.89999ZM326.923 9C330.423 9 333.923 11.2 333.923 15.4V25.4H342.623C356.423 25.4 360.123 32.3 360.123 44.7V73C360.123 77.3 356.623 79.4 353.023 79.4C349.423 79.4 346.423 77.3 346.423 73V46.3C346.423 42.9 345.223 42.4 342.123 42.4H333.923V73C333.923 77.3 330.523 79.4 327.023 79.4C323.523 79.4 320.123 77.3 320.123 73V15.4C320.123 11.2 323.523 9 326.923 9ZM326.923 0.199995C318.923 0.199995 311.123 5.3 311.123 15.4V73C311.123 83.2 318.923 88.3 327.023 88.3C332.123 88.3 337.023 86.2 340.023 82.2C342.823 86.2 347.623 88.3 353.023 88.3C361.223 88.3 369.123 83.2 369.123 73V44.7C369.123 26.7 363.623 16.6 342.923 16.5C342.923 5.3 335.023 0.199995 326.923 0.199995ZM410.195 25.4C420.695 25.4 424.095 32.1 424.095 43.2C424.095 54.2 420.695 58.9 408.795 58.9H403.095C400.295 58.9 398.195 58.6 396.995 58.1C396.995 61.5 398.095 62 401.195 62H415.695C419.395 62 421.195 64.3 421.195 68.8V72.2C421.195 76.7 419.395 79 415.695 79H400.695C386.895 79 383.495 72.1 383.495 59.7V45.8C383.495 31.5 386.895 25.4 398.795 25.4H410.195ZM400.295 42C398.195 42 397.195 43.3 397.195 46.4V47H409.195C410.295 47 410.895 46.3 410.895 44.8C410.895 42.9 410.295 42 409.195 42H400.295ZM398.795 16.5C379.895 16.5 374.495 25.3 374.495 45.8V59.7C374.495 77.8 379.695 87.9 400.695 87.9H415.695C425.295 87.9 430.295 82.6 430.295 72.2V68.8C430.295 65.7 429.895 63.1 428.995 60.8C431.995 56.9 433.095 51 433.095 43.2C433.095 26.6 427.595 16.5 410.195 16.5H398.795ZM471.878 25.4C475.578 25.4 477.478 27.7 477.478 32.2V35.6C477.478 40.1 475.578 42.4 471.878 42.4H464.778C461.778 42.4 460.578 42.9 460.578 46.3V72.5C460.578 77.1 457.178 79.4 453.678 79.4C450.278 79.4 446.878 77.1 446.878 72.5V44.7C446.878 32.3 450.278 25.4 464.078 25.4H471.878ZM464.078 16.5C442.978 16.5 437.778 26.6 437.778 44.7V72.5C437.778 83 445.778 88.3 453.678 88.3C461.778 88.3 469.578 83 469.578 72.5V51.3H471.878C481.478 51.3 486.478 46 486.478 35.6V32.2C486.478 21.8 481.478 16.5 471.878 16.5H464.078Z" fill="#F2D230"/>
</svg>
