<svg width="267" height="100" viewBox="0 0 267 100" fill="none" xmlns="http://www.w3.org/2000/svg">
<path d="M87.1895 0.199997L73.3895 15.4V37L63.3895 41.1L73.3895 54.7L52.7895 45.2L38.6895 67.4L57.8895 63.3L0.0894526 99.1L57.8895 24.4L46.5895 26.8L87.1895 0.199997ZM63.3895 33.5V28.4L59.1895 35.1L63.3895 33.5ZM109.554 46H98.6535V36.5L87.0535 46H75.2535L95.6535 10.3H109.554V46ZM98.6535 28V23.4L94.9535 30.2L98.6535 28ZM140.984 32.6H124.884V46H114.584V10.3H140.984V19.5H124.884V22.6H140.984V32.6ZM172.429 32.6H156.329V46H146.029V10.3H172.429V19.5H156.329V22.6H172.429V32.6ZM203.875 46H177.475V10.3H188.375V36H203.875V46ZM235.32 46H208.92V10.3H235.32V19.5H219.22V22.6H235.32V32.6H219.22V36H235.32V46ZM266.565 46H240.165V36H250.665L240.165 19.5V10.3H266.565V19.5H256.565L266.565 36V46Z" fill="#048ABF"/>
</svg>
