<?xml version="1.0" encoding="utf-8"?>
<!-- Generator: Adobe Adobe Illustrator 24.2.0, SVG Export Plug-In . SVG Version: 6.00 Build 0)  -->
<svg version="1.1" id="Layer_1" xmlns="http://www.w3.org/2000/svg" xmlns:xlink="http://www.w3.org/1999/xlink" x="0px" y="0px"
	 viewBox="0 0 283.46 80" style="enable-background:new 0 0 283.46 80;" xml:space="preserve">
<style type="text/css">
	.st0{fill:#BF046B;}
	.st1{fill:#F2D230;}
</style>
<g>
	<g>
		<path class="st0" d="M46.92,51.19h-3.11v6.77h-16.9V20.78h20.26c13.36,0,18.09,6.19,18.09,15.23c0,4.23-1.04,7.82-3.51,10.45
			l7.09,11.49H50.41L46.92,51.19z M43.81,33.74v5.56h1.35c2.31,0,3.18-1.2,3.18-2.76c0-1.55-0.87-2.8-3.18-2.8H43.81z"/>
		<path class="st0" d="M88.01,18.66l24.28,39.3H92.33l-4.31-7.67l-4.32,7.67H63.73L88.01,18.66z"/>
		<path class="st0" d="M151.15,36.01c0,9.04-4.73,15.18-18.09,15.18h-3.35v6.77H112.8V20.78h20.26
			C146.42,20.78,151.15,26.97,151.15,36.01z M134.23,36.54c0-1.55-0.87-2.8-3.18-2.8h-1.35v5.56h1.35
			C133.36,39.3,134.23,38.1,134.23,36.54z"/>
		<path class="st0" d="M171.12,20.78v37.17h-16.9V20.78H171.12z"/>
		<path class="st0" d="M215.09,39.32c0,9.04-4.73,18.66-18.09,18.66h-15.61l0-0.02h-5.16V20.78H197
			C210.36,20.78,215.09,30.28,215.09,39.32z M198.15,39.35c0-1.55-0.87-2.8-3.18-2.8h-1.84v5.56h1.84
			C197.28,42.1,198.15,40.9,198.15,39.35z"/>
		<path class="st0" d="M217.13,39.32c0-11.26,8.38-19.44,19.71-19.44s19.72,8.18,19.72,19.44c0,11.31-8.38,19.49-19.72,19.49
			S217.13,50.63,217.13,39.32z M239.68,39.32c0-1.7-1.28-2.92-2.86-2.92c-1.58,0-2.81,1.22-2.81,2.92s1.23,2.97,2.81,2.97
			C238.4,42.29,239.68,41.02,239.68,39.32z"/>
	</g>
	<polygon class="st1" points="84.21,26.63 92.91,40.02 89.45,40.44 92.49,45.49 89.57,45.61 92.14,57.25 83.49,42.51 87.15,42.9 
		83.89,37.68 87.94,37.99 	"/>
</g>
</svg>
