<?xml version="1.0" encoding="utf-8"?>
<!-- Generator: Adobe Illustrator 26.0.1, SVG Export Plug-In . SVG Version: 6.00 Build 0)  -->
<svg version="1.1" id="Layer_1" xmlns="http://www.w3.org/2000/svg" xmlns:xlink="http://www.w3.org/1999/xlink" x="0px" y="0px"
	 viewBox="0 0 1366 768" style="enable-background:new 0 0 1366 768;" xml:space="preserve">
<style type="text/css">
	.st0{opacity:0.22;}
	.st1{clip-path:url(#SVGID_00000044856743215559927360000011946196557890426512_);}
	.st2{fill:#775ED1;}
</style>
<g class="st0">
	<defs>
		<rect id="SVGID_1_" x="0.5" y="-0.6" class="st0" width="1365" height="769.2"/>
	</defs>
	
		<radialGradient id="SVGID_00000168839584577293511270000010112879313516277391_" cx="683" cy="384" r="553.9554" gradientUnits="userSpaceOnUse">
		<stop  offset="0" style="stop-color:#9887C3;stop-opacity:0.1"/>
		<stop  offset="0.6564" style="stop-color:#D187C3;stop-opacity:0.1"/>
		<stop  offset="1" style="stop-color:#9887C3;stop-opacity:0.2"/>
	</radialGradient>
	<use xlink:href="#SVGID_1_"  style="overflow:visible;fill:url(#SVGID_00000168839584577293511270000010112879313516277391_);"/>
	<clipPath id="SVGID_00000149380661601136250940000007849116280690810771_">
		<use xlink:href="#SVGID_1_"  style="overflow:visible;"/>
	</clipPath>
	<g style="clip-path:url(#SVGID_00000149380661601136250940000007849116280690810771_);">
		<g id="_x3C_Grid_Repeat_x3E__00000004507428933531346540000014362750320423427975_">
			<path class="st2" d="M20-23.6c-0.9-1.1-2.3-1.6-3.7-1.2L4.1-21.5L-4.2-31c-0.9-1.1-2.4-1.5-3.8-1l0,0c-1.3,0.5-2.3,1.7-2.3,3.2
				l-0.5,12.7l-11.5,4.9c-1.3,0.6-2.2,1.9-2.1,3.3c0,1.5,1,2.7,2.3,3.2l11.8,4.5l1.1,11.6c0.1,1.6,1.2,3,2.8,3.4
				c1.5,0.4,3.1-0.1,4.1-1.3l7.3-9.2l0,0L17.2,7c0.6,0.2,1.3,0.1,1.9-0.1c1.8-0.7,2.8-2.7,2.1-4.5c-0.1-0.3-0.2-0.5-0.4-0.8l-7-10.6
				l6.4-10.7C20.9-20.9,20.8-22.5,20-23.6z"/>
			<path class="st2" d="M107.3-38.3c-0.2-0.5-0.7-0.9-1.2-1l-5-0.3l-1.8-4.6c-0.2-0.5-0.7-0.9-1.3-0.9l0,0c-0.6,0-1.1,0.3-1.3,0.9
				l-1.9,4.7l-4.9,0.3c-0.6,0-1,0.4-1.2,1c-0.2,0.5,0,1.1,0.4,1.5l3.8,3.2l-1.1,4.4c-0.2,0.6,0.1,1.3,0.6,1.6
				c0.5,0.4,1.2,0.4,1.7,0.1L98-30h0l4.2,2.7c0.2,0.1,0.5,0.2,0.7,0.2c0.8,0,1.4-0.6,1.4-1.4c0-0.1,0-0.2,0-0.3l-1.2-4.9l3.8-3.1
				C107.3-37.2,107.5-37.8,107.3-38.3z"/>
			<path class="st2" d="M94.4,51.6c-0.3-0.9-1.1-1.5-2-1.5l-8-0.6l-3-7.5c-0.3-0.8-1.1-1.4-2.1-1.4l0,0c-0.9,0-1.7,0.6-2.1,1.4
				l-3,7.5l-8,0.5c-0.9,0.1-1.7,0.7-2,1.5c-0.3,0.9,0,1.8,0.7,2.4l6.1,5.2l-1.8,7.2c-0.3,1,0.1,2,0.9,2.6c0.8,0.6,1.9,0.6,2.7,0.1
				l6.3-4h0l6.8,4.3c0.3,0.2,0.8,0.3,1.2,0.4c1.2,0,2.2-1,2.2-2.2c0-0.2,0-0.4-0.1-0.6l-1.9-7.8l6.1-5.1
				C94.4,53.4,94.7,52.5,94.4,51.6z"/>
			<path class="st2" d="M-40.1-65.2c-0.4-0.7-1.1-1.1-1.8-1.1L-59.3-67l-2.5-21c-0.1-1-0.9-1.8-1.9-2c-1-0.2-2,0.3-2.4,1.3
				l-19.6,42.1c-0.3,0.7-0.3,1.5,0.1,2.1c0.4,0.6,1.1,1.1,1.8,1.1l17.4,0.7l2.5,21c0.1,1,0.9,1.8,1.9,2c0.4,0.1,0.7,0,1.1-0.1
				c0.6-0.2,1.1-0.6,1.3-1.2L-40-63C-39.6-63.7-39.7-64.5-40.1-65.2z"/>
			<path class="st2" d="M6.2,84.8C6,84,5.4,83.4,4.7,83.1L-12,76.8l4.2-21.3c0.2-1-0.3-2-1.2-2.5c-0.9-0.5-2-0.3-2.8,0.5l-32.5,34.8
				c-0.5,0.6-0.8,1.4-0.6,2.1c0.2,0.8,0.7,1.4,1.5,1.7l16.7,6.3l-4.2,21.3c-0.2,1,0.3,2,1.2,2.5c0.3,0.2,0.7,0.3,1.1,0.3
				c0.6,0,1.2-0.3,1.7-0.7L5.6,86.9C6.1,86.3,6.3,85.5,6.2,84.8z"/>
			<path class="st2" d="M67.7-99.9c-0.1-0.4-0.4-0.7-0.7-0.8l-8.4-3.1l2.1-10.6c0.1-0.5-0.1-1-0.6-1.3c-0.5-0.2-1-0.1-1.4,0.2
				L42.5-98.2c-0.3,0.3-0.4,0.7-0.3,1.1c0.1,0.4,0.4,0.7,0.7,0.8l8.4,3.1l-2.1,10.6c-0.1,0.5,0.1,1,0.6,1.3c0.2,0.1,0.4,0.1,0.5,0.1
				c0.3,0,0.6-0.1,0.8-0.4l16.2-17.4C67.7-99.2,67.8-99.6,67.7-99.9z"/>
			<path class="st2" d="M-101.6-140.2c-0.1-0.3-0.2-0.5-0.5-0.6l-5.7-2.1l1.5-7.3c0.1-0.3-0.1-0.7-0.4-0.9c-0.3-0.2-0.7-0.1-0.9,0.2
				l-11.1,11.9c-0.2,0.2-0.3,0.5-0.2,0.7c0.1,0.3,0.2,0.5,0.5,0.6l5.7,2.1l-1.5,7.3c-0.1,0.3,0.1,0.7,0.4,0.9
				c0.1,0.1,0.2,0.1,0.4,0.1c0.2,0,0.4-0.1,0.6-0.2l11.1-11.9C-101.6-139.7-101.5-139.9-101.6-140.2z"/>
		</g>
		<g id="_x3C_Grid_Repeat_x3E__00000024693939607176228710000008818954815475631775_">
			<path class="st2" d="M302-23.6c-0.9-1.1-2.3-1.6-3.7-1.2l-12.2,3.4l-8.3-9.5c-0.9-1.1-2.4-1.5-3.8-1l0,0
				c-1.3,0.5-2.3,1.7-2.3,3.2l-0.5,12.7l-11.5,4.9c-1.3,0.6-2.2,1.9-2.1,3.3c0,1.5,1,2.7,2.3,3.2l11.8,4.5l1.1,11.6
				c0.1,1.6,1.2,3,2.8,3.4c1.5,0.4,3.1-0.1,4.1-1.3l7.3-9.2l0,0L299.2,7c0.6,0.2,1.3,0.1,1.9-0.1c1.8-0.7,2.8-2.7,2.1-4.5
				c-0.1-0.3-0.2-0.5-0.4-0.8l-7-10.6l6.4-10.7C302.9-20.9,302.8-22.5,302-23.6z"/>
			<path class="st2" d="M389.3-38.3c-0.2-0.5-0.7-0.9-1.2-1l-5-0.3l-1.8-4.6c-0.2-0.5-0.7-0.9-1.3-0.9l0,0c-0.6,0-1.1,0.3-1.3,0.9
				l-1.9,4.7l-4.9,0.3c-0.6,0-1,0.4-1.2,1c-0.2,0.5,0,1.1,0.4,1.5l3.8,3.2l-1.1,4.4c-0.2,0.6,0.1,1.3,0.6,1.6
				c0.5,0.4,1.2,0.4,1.7,0.1L380-30h0l4.2,2.7c0.2,0.1,0.5,0.2,0.7,0.2c0.8,0,1.4-0.6,1.4-1.4c0-0.1,0-0.2,0-0.3l-1.2-4.9l3.8-3.1
				C389.3-37.2,389.5-37.8,389.3-38.3z"/>
			<path class="st2" d="M376.4,51.6c-0.3-0.9-1.1-1.5-2-1.5l-8-0.6l-3-7.5c-0.3-0.8-1.1-1.4-2.1-1.4l0,0c-0.9,0-1.7,0.6-2.1,1.4
				l-3,7.5l-8,0.5c-0.9,0.1-1.7,0.7-2,1.5c-0.3,0.9,0,1.8,0.7,2.4l6.1,5.2l-1.8,7.2c-0.3,1,0.1,2,0.9,2.6c0.8,0.6,1.9,0.6,2.7,0.1
				l6.3-4h0l6.8,4.3c0.3,0.2,0.8,0.3,1.2,0.4c1.2,0,2.2-1,2.2-2.2c0-0.2,0-0.4-0.1-0.6l-1.9-7.8l6.1-5.1
				C376.4,53.4,376.7,52.5,376.4,51.6z"/>
			<path class="st2" d="M241.9-65.2c-0.4-0.7-1.1-1.1-1.8-1.1L222.7-67l-2.5-21c-0.1-1-0.9-1.8-1.9-2c-1-0.2-2,0.3-2.4,1.3
				l-19.6,42.1c-0.3,0.7-0.3,1.5,0.1,2.1c0.4,0.6,1.1,1.1,1.8,1.1l17.4,0.7l2.5,21c0.1,1,0.9,1.8,1.9,2c0.4,0.1,0.7,0,1.1-0.1
				c0.6-0.2,1.1-0.6,1.3-1.2L242-63C242.4-63.7,242.3-64.5,241.9-65.2z"/>
			<path class="st2" d="M288.2,84.8c-0.2-0.8-0.7-1.4-1.5-1.7L270,76.8l4.2-21.3c0.2-1-0.3-2-1.2-2.5c-0.9-0.5-2-0.3-2.8,0.5
				l-32.5,34.8c-0.5,0.6-0.8,1.4-0.6,2.1c0.2,0.8,0.7,1.4,1.5,1.7l16.7,6.3l-4.2,21.3c-0.2,1,0.3,2,1.2,2.5c0.3,0.2,0.7,0.3,1.1,0.3
				c0.6,0,1.2-0.3,1.7-0.7l32.5-34.8C288.1,86.3,288.3,85.5,288.2,84.8z"/>
			<path class="st2" d="M349.7-99.9c-0.1-0.4-0.4-0.7-0.7-0.8l-8.4-3.1l2.1-10.6c0.1-0.5-0.1-1-0.6-1.3c-0.5-0.2-1-0.1-1.4,0.2
				l-16.2,17.4c-0.3,0.3-0.4,0.7-0.3,1.1c0.1,0.4,0.4,0.7,0.7,0.8l8.4,3.1l-2.1,10.6c-0.1,0.5,0.1,1,0.6,1.3
				c0.2,0.1,0.4,0.1,0.5,0.1c0.3,0,0.6-0.1,0.8-0.4l16.2-17.4C349.7-99.2,349.8-99.6,349.7-99.9z"/>
			<path class="st2" d="M180.4-140.2c-0.1-0.3-0.2-0.5-0.5-0.6l-5.7-2.1l1.5-7.3c0.1-0.3-0.1-0.7-0.4-0.9c-0.3-0.2-0.7-0.1-0.9,0.2
				L163.2-139c-0.2,0.2-0.3,0.5-0.2,0.7c0.1,0.3,0.2,0.5,0.5,0.6l5.7,2.1l-1.5,7.3c-0.1,0.3,0.1,0.7,0.4,0.9
				c0.1,0.1,0.2,0.1,0.4,0.1c0.2,0,0.4-0.1,0.6-0.2l11.1-11.9C180.4-139.7,180.5-139.9,180.4-140.2z"/>
		</g>
		<g id="_x3C_Grid_Repeat_x3E__00000093895445303472152490000003785879202900715394_">
			<path class="st2" d="M584-23.6c-0.9-1.1-2.3-1.6-3.7-1.2l-12.2,3.4l-8.3-9.5c-0.9-1.1-2.4-1.5-3.8-1l0,0
				c-1.3,0.5-2.3,1.7-2.3,3.2l-0.5,12.7l-11.5,4.9c-1.3,0.6-2.2,1.9-2.1,3.3c0,1.5,1,2.7,2.3,3.2l11.8,4.5l1.1,11.6
				c0.1,1.6,1.2,3,2.8,3.4c1.5,0.4,3.1-0.1,4.1-1.3l7.3-9.2l0,0L581.2,7c0.6,0.2,1.3,0.1,1.9-0.1c1.8-0.7,2.8-2.7,2.1-4.5
				c-0.1-0.3-0.2-0.5-0.4-0.8l-7-10.6l6.4-10.7C584.9-20.9,584.8-22.5,584-23.6z"/>
			<path class="st2" d="M671.3-38.3c-0.2-0.5-0.7-0.9-1.2-1l-5-0.3l-1.8-4.6c-0.2-0.5-0.7-0.9-1.3-0.9l0,0c-0.6,0-1.1,0.3-1.3,0.9
				l-1.9,4.7l-4.9,0.3c-0.6,0-1,0.4-1.2,1c-0.2,0.5,0,1.1,0.4,1.5l3.8,3.2l-1.1,4.4c-0.2,0.6,0.1,1.3,0.6,1.6
				c0.5,0.4,1.2,0.4,1.7,0.1L662-30h0l4.2,2.7c0.2,0.1,0.5,0.2,0.7,0.2c0.8,0,1.4-0.6,1.4-1.4c0-0.1,0-0.2,0-0.3l-1.2-4.9l3.8-3.1
				C671.3-37.2,671.5-37.8,671.3-38.3z"/>
			<path class="st2" d="M658.4,51.6c-0.3-0.9-1.1-1.5-2-1.5l-8-0.6l-3-7.5c-0.3-0.8-1.1-1.4-2.1-1.4l0,0c-0.9,0-1.7,0.6-2.1,1.4
				l-3,7.5l-8,0.5c-0.9,0.1-1.7,0.7-2,1.5c-0.3,0.9,0,1.8,0.7,2.4l6.1,5.2l-1.8,7.2c-0.3,1,0.1,2,0.9,2.6c0.8,0.6,1.9,0.6,2.7,0.1
				l6.3-4h0l6.8,4.3c0.3,0.2,0.8,0.3,1.2,0.4c1.2,0,2.2-1,2.2-2.2c0-0.2,0-0.4-0.1-0.6l-1.9-7.8l6.1-5.1
				C658.4,53.4,658.7,52.5,658.4,51.6z"/>
			<path class="st2" d="M523.9-65.2c-0.4-0.7-1.1-1.1-1.8-1.1L504.7-67l-2.5-21c-0.1-1-0.9-1.8-1.9-2c-1-0.2-2,0.3-2.4,1.3
				l-19.6,42.1c-0.3,0.7-0.3,1.5,0.1,2.1c0.4,0.6,1.1,1.1,1.8,1.1l17.4,0.7l2.5,21c0.1,1,0.9,1.8,1.9,2c0.4,0.1,0.7,0,1.1-0.1
				c0.6-0.2,1.1-0.6,1.3-1.2L524-63C524.4-63.7,524.3-64.5,523.9-65.2z"/>
			<path class="st2" d="M570.2,84.8c-0.2-0.8-0.7-1.4-1.5-1.7L552,76.8l4.2-21.3c0.2-1-0.3-2-1.2-2.5c-0.9-0.5-2-0.3-2.8,0.5
				l-32.5,34.8c-0.5,0.6-0.8,1.4-0.6,2.1c0.2,0.8,0.7,1.4,1.5,1.7l16.7,6.3l-4.2,21.3c-0.2,1,0.3,2,1.2,2.5c0.3,0.2,0.7,0.3,1.1,0.3
				c0.6,0,1.2-0.3,1.7-0.7l32.5-34.8C570.1,86.3,570.3,85.5,570.2,84.8z"/>
			<path class="st2" d="M631.7-99.9c-0.1-0.4-0.4-0.7-0.7-0.8l-8.4-3.1l2.1-10.6c0.1-0.5-0.1-1-0.6-1.3c-0.5-0.2-1-0.1-1.4,0.2
				l-16.2,17.4c-0.3,0.3-0.4,0.7-0.3,1.1c0.1,0.4,0.4,0.7,0.7,0.8l8.4,3.1l-2.1,10.6c-0.1,0.5,0.1,1,0.6,1.3
				c0.2,0.1,0.4,0.1,0.5,0.1c0.3,0,0.6-0.1,0.8-0.4l16.2-17.4C631.7-99.2,631.8-99.6,631.7-99.9z"/>
			<path class="st2" d="M462.4-140.2c-0.1-0.3-0.2-0.5-0.5-0.6l-5.7-2.1l1.5-7.3c0.1-0.3-0.1-0.7-0.4-0.9c-0.3-0.2-0.7-0.1-0.9,0.2
				L445.2-139c-0.2,0.2-0.3,0.5-0.2,0.7c0.1,0.3,0.2,0.5,0.5,0.6l5.7,2.1l-1.5,7.3c-0.1,0.3,0.1,0.7,0.4,0.9
				c0.1,0.1,0.2,0.1,0.4,0.1c0.2,0,0.4-0.1,0.6-0.2l11.1-11.9C462.4-139.7,462.5-139.9,462.4-140.2z"/>
		</g>
		<g id="_x3C_Grid_Repeat_x3E__00000114034820002669441570000006824248154732180618_">
			<path class="st2" d="M866-23.6c-0.9-1.1-2.3-1.6-3.7-1.2l-12.2,3.4l-8.3-9.5c-0.9-1.1-2.4-1.5-3.8-1l0,0
				c-1.3,0.5-2.3,1.7-2.3,3.2l-0.5,12.7l-11.5,4.9c-1.3,0.6-2.2,1.9-2.1,3.3c0,1.5,1,2.7,2.3,3.2l11.8,4.5l1.1,11.6
				c0.1,1.6,1.2,3,2.8,3.4c1.5,0.4,3.1-0.1,4.1-1.3l7.3-9.2l0,0L863.2,7c0.6,0.2,1.3,0.1,1.9-0.1c1.8-0.7,2.8-2.7,2.1-4.5
				c-0.1-0.3-0.2-0.5-0.4-0.8l-7-10.6l6.4-10.7C866.9-20.9,866.8-22.5,866-23.6z"/>
			<path class="st2" d="M953.3-38.3c-0.2-0.5-0.7-0.9-1.2-1l-5-0.3l-1.8-4.6c-0.2-0.5-0.7-0.9-1.3-0.9l0,0c-0.6,0-1.1,0.3-1.3,0.9
				l-1.9,4.7l-4.9,0.3c-0.6,0-1,0.4-1.2,1c-0.2,0.5,0,1.1,0.4,1.5l3.8,3.2l-1.1,4.4c-0.2,0.6,0.1,1.3,0.6,1.6
				c0.5,0.4,1.2,0.4,1.7,0.1L944-30h0l4.2,2.7c0.2,0.1,0.5,0.2,0.7,0.2c0.8,0,1.4-0.6,1.4-1.4c0-0.1,0-0.2,0-0.3l-1.2-4.9l3.8-3.1
				C953.3-37.2,953.5-37.8,953.3-38.3z"/>
			<path class="st2" d="M940.4,51.6c-0.3-0.9-1.1-1.5-2-1.5l-8-0.6l-3-7.5c-0.3-0.8-1.1-1.4-2.1-1.4l0,0c-0.9,0-1.7,0.6-2.1,1.4
				l-3,7.5l-8,0.5c-0.9,0.1-1.7,0.7-2,1.5c-0.3,0.9,0,1.8,0.7,2.4l6.1,5.2l-1.8,7.2c-0.3,1,0.1,2,0.9,2.6c0.8,0.6,1.9,0.6,2.7,0.1
				l6.3-4h0l6.8,4.3c0.3,0.2,0.8,0.3,1.2,0.4c1.2,0,2.2-1,2.2-2.2c0-0.2,0-0.4-0.1-0.6l-1.9-7.8l6.1-5.1
				C940.4,53.4,940.7,52.5,940.4,51.6z"/>
			<path class="st2" d="M805.9-65.2c-0.4-0.7-1.1-1.1-1.8-1.1L786.7-67l-2.5-21c-0.1-1-0.9-1.8-1.9-2c-1-0.2-2,0.3-2.4,1.3
				l-19.6,42.1c-0.3,0.7-0.3,1.5,0.1,2.1c0.4,0.6,1.1,1.1,1.8,1.1l17.4,0.7l2.5,21c0.1,1,0.9,1.8,1.9,2c0.4,0.1,0.7,0,1.1-0.1
				c0.6-0.2,1.1-0.6,1.3-1.2L806-63C806.4-63.7,806.3-64.5,805.9-65.2z"/>
			<path class="st2" d="M852.2,84.8c-0.2-0.8-0.7-1.4-1.5-1.7L834,76.8l4.2-21.3c0.2-1-0.3-2-1.2-2.5c-0.9-0.5-2-0.3-2.8,0.5
				l-32.5,34.8c-0.5,0.6-0.8,1.4-0.6,2.1c0.2,0.8,0.7,1.4,1.5,1.7l16.7,6.3l-4.2,21.3c-0.2,1,0.3,2,1.2,2.5c0.3,0.2,0.7,0.3,1.1,0.3
				c0.6,0,1.2-0.3,1.7-0.7l32.5-34.8C852.1,86.3,852.3,85.5,852.2,84.8z"/>
			<path class="st2" d="M913.7-99.9c-0.1-0.4-0.4-0.7-0.7-0.8l-8.4-3.1l2.1-10.6c0.1-0.5-0.1-1-0.6-1.3c-0.5-0.2-1-0.1-1.4,0.2
				l-16.2,17.4c-0.3,0.3-0.4,0.7-0.3,1.1c0.1,0.4,0.4,0.7,0.7,0.8l8.4,3.1l-2.1,10.6c-0.1,0.5,0.1,1,0.6,1.3
				c0.2,0.1,0.4,0.1,0.5,0.1c0.3,0,0.6-0.1,0.8-0.4l16.2-17.4C913.7-99.2,913.8-99.6,913.7-99.9z"/>
			<path class="st2" d="M744.4-140.2c-0.1-0.3-0.2-0.5-0.5-0.6l-5.7-2.1l1.5-7.3c0.1-0.3-0.1-0.7-0.4-0.9c-0.3-0.2-0.7-0.1-0.9,0.2
				L727.2-139c-0.2,0.2-0.3,0.5-0.2,0.7c0.1,0.3,0.2,0.5,0.5,0.6l5.7,2.1l-1.5,7.3c-0.1,0.3,0.1,0.7,0.4,0.9
				c0.1,0.1,0.2,0.1,0.4,0.1c0.2,0,0.4-0.1,0.6-0.2l11.1-11.9C744.4-139.7,744.5-139.9,744.4-140.2z"/>
		</g>
		<g id="_x3C_Grid_Repeat_x3E__00000150792348805083786530000012105354953504099234_">
			<path class="st2" d="M1148-23.6c-0.9-1.1-2.3-1.6-3.7-1.2l-12.2,3.4l-8.3-9.5c-0.9-1.1-2.4-1.5-3.8-1l0,0
				c-1.3,0.5-2.3,1.7-2.3,3.2l-0.5,12.7l-11.5,4.9c-1.3,0.6-2.2,1.9-2.1,3.3c0,1.5,1,2.7,2.3,3.2l11.8,4.5l1.1,11.6
				c0.1,1.6,1.2,3,2.8,3.4c1.5,0.4,3.1-0.1,4.1-1.3l7.3-9.2l0,0l12.3,2.8c0.6,0.2,1.3,0.1,1.9-0.1c1.8-0.7,2.8-2.7,2.1-4.5
				c-0.1-0.3-0.2-0.5-0.4-0.8l-7-10.6l6.4-10.7C1148.9-20.9,1148.8-22.5,1148-23.6z"/>
			<path class="st2" d="M1235.3-38.3c-0.2-0.5-0.7-0.9-1.2-1l-5-0.3l-1.8-4.6c-0.2-0.5-0.7-0.9-1.3-0.9l0,0c-0.6,0-1.1,0.3-1.3,0.9
				l-1.9,4.7l-4.9,0.3c-0.6,0-1,0.4-1.2,1c-0.2,0.5,0,1.1,0.4,1.5l3.8,3.2l-1.1,4.4c-0.2,0.6,0.1,1.3,0.6,1.6
				c0.5,0.4,1.2,0.4,1.7,0.1l3.9-2.5h0l4.2,2.7c0.2,0.1,0.5,0.2,0.7,0.2c0.8,0,1.4-0.6,1.4-1.4c0-0.1,0-0.2,0-0.3l-1.2-4.9l3.8-3.1
				C1235.3-37.2,1235.5-37.8,1235.3-38.3z"/>
			<path class="st2" d="M1222.4,51.6c-0.3-0.9-1.1-1.5-2-1.5l-8-0.6l-3-7.5c-0.3-0.8-1.1-1.4-2.1-1.4l0,0c-0.9,0-1.7,0.6-2.1,1.4
				l-3,7.5l-8,0.5c-0.9,0.1-1.7,0.7-2,1.5c-0.3,0.9,0,1.8,0.7,2.4l6.1,5.2l-1.8,7.2c-0.3,1,0.1,2,0.9,2.6c0.8,0.6,1.9,0.6,2.7,0.1
				l6.3-4h0l6.8,4.3c0.3,0.2,0.8,0.3,1.2,0.4c1.2,0,2.2-1,2.2-2.2c0-0.2,0-0.4-0.1-0.6l-1.9-7.8l6.1-5.1
				C1222.4,53.4,1222.7,52.5,1222.4,51.6z"/>
			<path class="st2" d="M1087.9-65.2c-0.4-0.7-1.1-1.1-1.8-1.1l-17.4-0.7l-2.5-21c-0.1-1-0.9-1.8-1.9-2c-1-0.2-2,0.3-2.4,1.3
				l-19.6,42.1c-0.3,0.7-0.3,1.5,0.1,2.1c0.4,0.6,1.1,1.1,1.8,1.1l17.4,0.7l2.5,21c0.1,1,0.9,1.8,1.9,2c0.4,0.1,0.7,0,1.1-0.1
				c0.6-0.2,1.1-0.6,1.3-1.2L1088-63C1088.4-63.7,1088.3-64.5,1087.9-65.2z"/>
			<path class="st2" d="M1134.2,84.8c-0.2-0.8-0.7-1.4-1.5-1.7l-16.7-6.3l4.2-21.3c0.2-1-0.3-2-1.2-2.5c-0.9-0.5-2-0.3-2.8,0.5
				l-32.5,34.8c-0.5,0.6-0.8,1.4-0.6,2.1c0.2,0.8,0.7,1.4,1.5,1.7l16.7,6.3l-4.2,21.3c-0.2,1,0.3,2,1.2,2.5c0.3,0.2,0.7,0.3,1.1,0.3
				c0.6,0,1.2-0.3,1.7-0.7l32.5-34.8C1134.1,86.3,1134.3,85.5,1134.2,84.8z"/>
			<path class="st2" d="M1195.7-99.9c-0.1-0.4-0.4-0.7-0.7-0.8l-8.4-3.1l2.1-10.6c0.1-0.5-0.1-1-0.6-1.3c-0.5-0.2-1-0.1-1.4,0.2
				l-16.2,17.4c-0.3,0.3-0.4,0.7-0.3,1.1c0.1,0.4,0.4,0.7,0.7,0.8l8.4,3.1l-2.1,10.6c-0.1,0.5,0.1,1,0.6,1.3
				c0.2,0.1,0.4,0.1,0.5,0.1c0.3,0,0.6-0.1,0.8-0.4l16.2-17.4C1195.7-99.2,1195.8-99.6,1195.7-99.9z"/>
			<path class="st2" d="M1026.4-140.2c-0.1-0.3-0.2-0.5-0.5-0.6l-5.7-2.1l1.5-7.3c0.1-0.3-0.1-0.7-0.4-0.9c-0.3-0.2-0.7-0.1-0.9,0.2
				l-11.1,11.9c-0.2,0.2-0.3,0.5-0.2,0.7c0.1,0.3,0.2,0.5,0.5,0.6l5.7,2.1l-1.5,7.3c-0.1,0.3,0.1,0.7,0.4,0.9
				c0.1,0.1,0.2,0.1,0.4,0.1c0.2,0,0.4-0.1,0.6-0.2l11.1-11.9C1026.4-139.7,1026.5-139.9,1026.4-140.2z"/>
		</g>
		<g id="_x3C_Grid_Repeat_x3E__00000086676572710250640020000001688802249357031604_">
			<path class="st2" d="M1430-23.6c-0.9-1.1-2.3-1.6-3.7-1.2l-12.2,3.4l-8.3-9.5c-0.9-1.1-2.4-1.5-3.8-1l0,0
				c-1.3,0.5-2.3,1.7-2.3,3.2l-0.5,12.7l-11.5,4.9c-1.3,0.6-2.2,1.9-2.1,3.3c0,1.5,1,2.7,2.3,3.2l11.8,4.5l1.1,11.6
				c0.1,1.6,1.2,3,2.8,3.4c1.5,0.4,3.1-0.1,4.1-1.3l7.3-9.2l0,0l12.3,2.8c0.6,0.2,1.3,0.1,1.9-0.1c1.8-0.7,2.8-2.7,2.1-4.5
				c-0.1-0.3-0.2-0.5-0.4-0.8l-7-10.6l6.4-10.7C1430.9-20.9,1430.8-22.5,1430-23.6z"/>
			<path class="st2" d="M1517.3-38.3c-0.2-0.5-0.7-0.9-1.2-1l-5-0.3l-1.8-4.6c-0.2-0.5-0.7-0.9-1.3-0.9l0,0c-0.6,0-1.1,0.3-1.3,0.9
				l-1.9,4.7l-4.9,0.3c-0.6,0-1,0.4-1.2,1c-0.2,0.5,0,1.1,0.4,1.5l3.8,3.2l-1.1,4.4c-0.2,0.6,0.1,1.3,0.6,1.6
				c0.5,0.4,1.2,0.4,1.7,0.1l3.9-2.5h0l4.2,2.7c0.2,0.1,0.5,0.2,0.7,0.2c0.8,0,1.4-0.6,1.4-1.4c0-0.1,0-0.2,0-0.3l-1.2-4.9l3.8-3.1
				C1517.3-37.2,1517.5-37.8,1517.3-38.3z"/>
			<path class="st2" d="M1504.4,51.6c-0.3-0.9-1.1-1.5-2-1.5l-8-0.6l-3-7.5c-0.3-0.8-1.1-1.4-2.1-1.4l0,0c-0.9,0-1.7,0.6-2.1,1.4
				l-3,7.5l-8,0.5c-0.9,0.1-1.7,0.7-2,1.5c-0.3,0.9,0,1.8,0.7,2.4l6.1,5.2l-1.8,7.2c-0.3,1,0.1,2,0.9,2.6c0.8,0.6,1.9,0.6,2.7,0.1
				l6.3-4h0l6.8,4.3c0.3,0.2,0.8,0.3,1.2,0.4c1.2,0,2.2-1,2.2-2.2c0-0.2,0-0.4-0.1-0.6l-1.9-7.8l6.1-5.1
				C1504.4,53.4,1504.7,52.5,1504.4,51.6z"/>
			<path class="st2" d="M1369.9-65.2c-0.4-0.7-1.1-1.1-1.8-1.1l-17.4-0.7l-2.5-21c-0.1-1-0.9-1.8-1.9-2c-1-0.2-2,0.3-2.4,1.3
				l-19.6,42.1c-0.3,0.7-0.3,1.5,0.1,2.1c0.4,0.6,1.1,1.1,1.8,1.1l17.4,0.7l2.5,21c0.1,1,0.9,1.8,1.9,2c0.4,0.1,0.7,0,1.1-0.1
				c0.6-0.2,1.1-0.6,1.3-1.2L1370-63C1370.4-63.7,1370.3-64.5,1369.9-65.2z"/>
			<path class="st2" d="M1416.2,84.8c-0.2-0.8-0.7-1.4-1.5-1.7l-16.7-6.3l4.2-21.3c0.2-1-0.3-2-1.2-2.5c-0.9-0.5-2-0.3-2.8,0.5
				l-32.5,34.8c-0.5,0.6-0.8,1.4-0.6,2.1c0.2,0.8,0.7,1.4,1.5,1.7l16.7,6.3l-4.2,21.3c-0.2,1,0.3,2,1.2,2.5c0.3,0.2,0.7,0.3,1.1,0.3
				c0.6,0,1.2-0.3,1.7-0.7l32.5-34.8C1416.1,86.3,1416.3,85.5,1416.2,84.8z"/>
			<path class="st2" d="M1477.7-99.9c-0.1-0.4-0.4-0.7-0.7-0.8l-8.4-3.1l2.1-10.6c0.1-0.5-0.1-1-0.6-1.3c-0.5-0.2-1-0.1-1.4,0.2
				l-16.2,17.4c-0.3,0.3-0.4,0.7-0.3,1.1c0.1,0.4,0.4,0.7,0.7,0.8l8.4,3.1l-2.1,10.6c-0.1,0.5,0.1,1,0.6,1.3
				c0.2,0.1,0.4,0.1,0.5,0.1c0.3,0,0.6-0.1,0.8-0.4l16.2-17.4C1477.7-99.2,1477.8-99.6,1477.7-99.9z"/>
			<path class="st2" d="M1308.4-140.2c-0.1-0.3-0.2-0.5-0.5-0.6l-5.7-2.1l1.5-7.3c0.1-0.3-0.1-0.7-0.4-0.9c-0.3-0.2-0.7-0.1-0.9,0.2
				l-11.1,11.9c-0.2,0.2-0.3,0.5-0.2,0.7c0.1,0.3,0.2,0.5,0.5,0.6l5.7,2.1l-1.5,7.3c-0.1,0.3,0.1,0.7,0.4,0.9
				c0.1,0.1,0.2,0.1,0.4,0.1c0.2,0,0.4-0.1,0.6-0.2l11.1-11.9C1308.4-139.7,1308.5-139.9,1308.4-140.2z"/>
		</g>
		<g id="_x3C_Grid_Repeat_x3E__00000029743502597187515310000000764702708091890599_">
			<path class="st2" d="M20,264.1c-0.9-1.1-2.3-1.6-3.7-1.2l-12.2,3.4l-8.3-9.5c-0.9-1.1-2.4-1.5-3.8-1l0,0
				c-1.3,0.5-2.3,1.7-2.3,3.2l-0.5,12.7l-11.5,4.9c-1.3,0.6-2.2,1.9-2.1,3.3c0,1.5,1,2.7,2.3,3.2l11.8,4.5l1.1,11.6
				c0.1,1.6,1.2,3,2.8,3.4c1.5,0.4,3.1-0.1,4.1-1.3l7.3-9.2l0,0l12.3,2.8c0.6,0.2,1.3,0.1,1.9-0.1c1.8-0.7,2.8-2.7,2.1-4.5
				c-0.1-0.3-0.2-0.5-0.4-0.8l-7-10.6l6.4-10.7C20.9,266.8,20.8,265.2,20,264.1z"/>
			<path class="st2" d="M107.3,249.4c-0.2-0.5-0.7-0.9-1.2-1l-5-0.3l-1.8-4.6c-0.2-0.5-0.7-0.9-1.3-0.9l0,0c-0.6,0-1.1,0.3-1.3,0.9
				l-1.9,4.7l-4.9,0.3c-0.6,0-1,0.4-1.2,1c-0.2,0.5,0,1.1,0.4,1.5l3.8,3.2l-1.1,4.4c-0.2,0.6,0.1,1.3,0.6,1.6
				c0.5,0.4,1.2,0.4,1.7,0.1l3.9-2.5h0l4.2,2.7c0.2,0.1,0.5,0.2,0.7,0.2c0.8,0,1.4-0.6,1.4-1.4c0-0.1,0-0.2,0-0.3l-1.2-4.9l3.8-3.1
				C107.3,250.5,107.5,249.9,107.3,249.4z"/>
			<path class="st2" d="M94.4,339.3c-0.3-0.9-1.1-1.5-2-1.5l-8-0.6l-3-7.5c-0.3-0.8-1.1-1.4-2.1-1.4l0,0c-0.9,0-1.7,0.6-2.1,1.4
				l-3,7.5l-8,0.5c-0.9,0.1-1.7,0.7-2,1.5c-0.3,0.9,0,1.8,0.7,2.4l6.1,5.2l-1.8,7.2c-0.3,1,0.1,2,0.9,2.6c0.8,0.6,1.9,0.6,2.7,0.1
				l6.3-4h0l6.8,4.3c0.3,0.2,0.8,0.3,1.2,0.4c1.2,0,2.2-1,2.2-2.2c0-0.2,0-0.4-0.1-0.6l-1.9-7.8l6.1-5.1
				C94.4,341.1,94.7,340.1,94.4,339.3z"/>
			<path class="st2" d="M-40.1,222.5c-0.4-0.7-1.1-1.1-1.8-1.1l-17.4-0.7l-2.5-21c-0.1-1-0.9-1.8-1.9-2c-1-0.2-2,0.3-2.4,1.3
				l-19.6,42.1c-0.3,0.7-0.3,1.5,0.1,2.1c0.4,0.6,1.1,1.1,1.8,1.1l17.4,0.7l2.5,21c0.1,1,0.9,1.8,1.9,2c0.4,0.1,0.7,0,1.1-0.1
				c0.6-0.2,1.1-0.6,1.3-1.2l19.6-42.1C-39.6,224-39.7,223.2-40.1,222.5z"/>
			<path class="st2" d="M6.2,372.4c-0.2-0.8-0.7-1.4-1.5-1.7l-16.7-6.3l4.2-21.3c0.2-1-0.3-2-1.2-2.5c-0.9-0.5-2-0.3-2.8,0.5
				L-44.2,376c-0.5,0.6-0.8,1.4-0.6,2.1c0.2,0.8,0.7,1.4,1.5,1.7l16.7,6.3l-4.2,21.3c-0.2,1,0.3,2,1.2,2.5c0.3,0.2,0.7,0.3,1.1,0.3
				c0.6,0,1.2-0.3,1.7-0.7l32.5-34.8C6.1,374,6.3,373.2,6.2,372.4z"/>
			<path class="st2" d="M67.7,187.7c-0.1-0.4-0.4-0.7-0.7-0.8l-8.4-3.1l2.1-10.6c0.1-0.5-0.1-1-0.6-1.3c-0.5-0.2-1-0.1-1.4,0.2
				l-16.2,17.4c-0.3,0.3-0.4,0.7-0.3,1.1c0.1,0.4,0.4,0.7,0.7,0.8l8.4,3.1l-2.1,10.6c-0.1,0.5,0.1,1,0.6,1.3
				c0.2,0.1,0.4,0.1,0.5,0.1c0.3,0,0.6-0.1,0.8-0.4l16.2-17.4C67.7,188.5,67.8,188.1,67.7,187.7z"/>
			<path class="st2" d="M-101.6,147.5c-0.1-0.3-0.2-0.5-0.5-0.6l-5.7-2.1l1.5-7.3c0.1-0.3-0.1-0.7-0.4-0.9c-0.3-0.2-0.7-0.1-0.9,0.2
				l-11.1,11.9c-0.2,0.2-0.3,0.5-0.2,0.7c0.1,0.3,0.2,0.5,0.5,0.6l5.7,2.1l-1.5,7.3c-0.1,0.3,0.1,0.7,0.4,0.9
				c0.1,0.1,0.2,0.1,0.4,0.1c0.2,0,0.4-0.1,0.6-0.2l11.1-11.9C-101.6,148-101.5,147.7-101.6,147.5z"/>
		</g>
		<g id="_x3C_Grid_Repeat_x3E__00000159465565611464936420000003181669269071859079_">
			<path class="st2" d="M302,264.1c-0.9-1.1-2.3-1.6-3.7-1.2l-12.2,3.4l-8.3-9.5c-0.9-1.1-2.4-1.5-3.8-1l0,0
				c-1.3,0.5-2.3,1.7-2.3,3.2l-0.5,12.7l-11.5,4.9c-1.3,0.6-2.2,1.9-2.1,3.3c0,1.5,1,2.7,2.3,3.2l11.8,4.5l1.1,11.6
				c0.1,1.6,1.2,3,2.8,3.4c1.5,0.4,3.1-0.1,4.1-1.3l7.3-9.2l0,0l12.3,2.8c0.6,0.2,1.3,0.1,1.9-0.1c1.8-0.7,2.8-2.7,2.1-4.5
				c-0.1-0.3-0.2-0.5-0.4-0.8l-7-10.6l6.4-10.7C302.9,266.8,302.8,265.2,302,264.1z"/>
			<path class="st2" d="M389.3,249.4c-0.2-0.5-0.7-0.9-1.2-1l-5-0.3l-1.8-4.6c-0.2-0.5-0.7-0.9-1.3-0.9l0,0c-0.6,0-1.1,0.3-1.3,0.9
				l-1.9,4.7l-4.9,0.3c-0.6,0-1,0.4-1.2,1c-0.2,0.5,0,1.1,0.4,1.5l3.8,3.2l-1.1,4.4c-0.2,0.6,0.1,1.3,0.6,1.6
				c0.5,0.4,1.2,0.4,1.7,0.1l3.9-2.5h0l4.2,2.7c0.2,0.1,0.5,0.2,0.7,0.2c0.8,0,1.4-0.6,1.4-1.4c0-0.1,0-0.2,0-0.3l-1.2-4.9l3.8-3.1
				C389.3,250.5,389.5,249.9,389.3,249.4z"/>
			<path class="st2" d="M376.4,339.3c-0.3-0.9-1.1-1.5-2-1.5l-8-0.6l-3-7.5c-0.3-0.8-1.1-1.4-2.1-1.4l0,0c-0.9,0-1.7,0.6-2.1,1.4
				l-3,7.5l-8,0.5c-0.9,0.1-1.7,0.7-2,1.5c-0.3,0.9,0,1.8,0.7,2.4l6.1,5.2l-1.8,7.2c-0.3,1,0.1,2,0.9,2.6c0.8,0.6,1.9,0.6,2.7,0.1
				l6.3-4h0l6.8,4.3c0.3,0.2,0.8,0.3,1.2,0.4c1.2,0,2.2-1,2.2-2.2c0-0.2,0-0.4-0.1-0.6l-1.9-7.8l6.1-5.1
				C376.4,341.1,376.7,340.1,376.4,339.3z"/>
			<path class="st2" d="M241.9,222.5c-0.4-0.7-1.1-1.1-1.8-1.1l-17.4-0.7l-2.5-21c-0.1-1-0.9-1.8-1.9-2c-1-0.2-2,0.3-2.4,1.3
				l-19.6,42.1c-0.3,0.7-0.3,1.5,0.1,2.1c0.4,0.6,1.1,1.1,1.8,1.1l17.4,0.7l2.5,21c0.1,1,0.9,1.8,1.9,2c0.4,0.1,0.7,0,1.1-0.1
				c0.6-0.2,1.1-0.6,1.3-1.2l19.6-42.1C242.4,224,242.3,223.2,241.9,222.5z"/>
			<path class="st2" d="M288.2,372.4c-0.2-0.8-0.7-1.4-1.5-1.7l-16.7-6.3l4.2-21.3c0.2-1-0.3-2-1.2-2.5c-0.9-0.5-2-0.3-2.8,0.5
				L237.8,376c-0.5,0.6-0.8,1.4-0.6,2.1c0.2,0.8,0.7,1.4,1.5,1.7l16.7,6.3l-4.2,21.3c-0.2,1,0.3,2,1.2,2.5c0.3,0.2,0.7,0.3,1.1,0.3
				c0.6,0,1.2-0.3,1.7-0.7l32.5-34.8C288.1,374,288.3,373.2,288.2,372.4z"/>
			<path class="st2" d="M349.7,187.7c-0.1-0.4-0.4-0.7-0.7-0.8l-8.4-3.1l2.1-10.6c0.1-0.5-0.1-1-0.6-1.3c-0.5-0.2-1-0.1-1.4,0.2
				l-16.2,17.4c-0.3,0.3-0.4,0.7-0.3,1.1c0.1,0.4,0.4,0.7,0.7,0.8l8.4,3.1l-2.1,10.6c-0.1,0.5,0.1,1,0.6,1.3
				c0.2,0.1,0.4,0.1,0.5,0.1c0.3,0,0.6-0.1,0.8-0.4l16.2-17.4C349.7,188.5,349.8,188.1,349.7,187.7z"/>
			<path class="st2" d="M180.4,147.5c-0.1-0.3-0.2-0.5-0.5-0.6l-5.7-2.1l1.5-7.3c0.1-0.3-0.1-0.7-0.4-0.9c-0.3-0.2-0.7-0.1-0.9,0.2
				l-11.1,11.9c-0.2,0.2-0.3,0.5-0.2,0.7c0.1,0.3,0.2,0.5,0.5,0.6l5.7,2.1l-1.5,7.3c-0.1,0.3,0.1,0.7,0.4,0.9
				c0.1,0.1,0.2,0.1,0.4,0.1c0.2,0,0.4-0.1,0.6-0.2l11.1-11.9C180.4,148,180.5,147.7,180.4,147.5z"/>
		</g>
		<g id="_x3C_Grid_Repeat_x3E__00000037655303508672754770000017959591513557541529_">
			<path class="st2" d="M584,264.1c-0.9-1.1-2.3-1.6-3.7-1.2l-12.2,3.4l-8.3-9.5c-0.9-1.1-2.4-1.5-3.8-1l0,0
				c-1.3,0.5-2.3,1.7-2.3,3.2l-0.5,12.7l-11.5,4.9c-1.3,0.6-2.2,1.9-2.1,3.3c0,1.5,1,2.7,2.3,3.2l11.8,4.5l1.1,11.6
				c0.1,1.6,1.2,3,2.8,3.4c1.5,0.4,3.1-0.1,4.1-1.3l7.3-9.2l0,0l12.3,2.8c0.6,0.2,1.3,0.1,1.9-0.1c1.8-0.7,2.8-2.7,2.1-4.5
				c-0.1-0.3-0.2-0.5-0.4-0.8l-7-10.6l6.4-10.7C584.9,266.8,584.8,265.2,584,264.1z"/>
			<path class="st2" d="M671.3,249.4c-0.2-0.5-0.7-0.9-1.2-1l-5-0.3l-1.8-4.6c-0.2-0.5-0.7-0.9-1.3-0.9l0,0c-0.6,0-1.1,0.3-1.3,0.9
				l-1.9,4.7l-4.9,0.3c-0.6,0-1,0.4-1.2,1c-0.2,0.5,0,1.1,0.4,1.5l3.8,3.2l-1.1,4.4c-0.2,0.6,0.1,1.3,0.6,1.6
				c0.5,0.4,1.2,0.4,1.7,0.1l3.9-2.5h0l4.2,2.7c0.2,0.1,0.5,0.2,0.7,0.2c0.8,0,1.4-0.6,1.4-1.4c0-0.1,0-0.2,0-0.3l-1.2-4.9l3.8-3.1
				C671.3,250.5,671.5,249.9,671.3,249.4z"/>
			<path class="st2" d="M658.4,339.3c-0.3-0.9-1.1-1.5-2-1.5l-8-0.6l-3-7.5c-0.3-0.8-1.1-1.4-2.1-1.4l0,0c-0.9,0-1.7,0.6-2.1,1.4
				l-3,7.5l-8,0.5c-0.9,0.1-1.7,0.7-2,1.5c-0.3,0.9,0,1.8,0.7,2.4l6.1,5.2l-1.8,7.2c-0.3,1,0.1,2,0.9,2.6c0.8,0.6,1.9,0.6,2.7,0.1
				l6.3-4h0l6.8,4.3c0.3,0.2,0.8,0.3,1.2,0.4c1.2,0,2.2-1,2.2-2.2c0-0.2,0-0.4-0.1-0.6l-1.9-7.8l6.1-5.1
				C658.4,341.1,658.7,340.1,658.4,339.3z"/>
			<path class="st2" d="M523.9,222.5c-0.4-0.7-1.1-1.1-1.8-1.1l-17.4-0.7l-2.5-21c-0.1-1-0.9-1.8-1.9-2c-1-0.2-2,0.3-2.4,1.3
				l-19.6,42.1c-0.3,0.7-0.3,1.5,0.1,2.1c0.4,0.6,1.1,1.1,1.8,1.1l17.4,0.7l2.5,21c0.1,1,0.9,1.8,1.9,2c0.4,0.1,0.7,0,1.1-0.1
				c0.6-0.2,1.1-0.6,1.3-1.2l19.6-42.1C524.4,224,524.3,223.2,523.9,222.5z"/>
			<path class="st2" d="M570.2,372.4c-0.2-0.8-0.7-1.4-1.5-1.7l-16.7-6.3l4.2-21.3c0.2-1-0.3-2-1.2-2.5c-0.9-0.5-2-0.3-2.8,0.5
				L519.8,376c-0.5,0.6-0.8,1.4-0.6,2.1c0.2,0.8,0.7,1.4,1.5,1.7l16.7,6.3l-4.2,21.3c-0.2,1,0.3,2,1.2,2.5c0.3,0.2,0.7,0.3,1.1,0.3
				c0.6,0,1.2-0.3,1.7-0.7l32.5-34.8C570.1,374,570.3,373.2,570.2,372.4z"/>
			<path class="st2" d="M631.7,187.7c-0.1-0.4-0.4-0.7-0.7-0.8l-8.4-3.1l2.1-10.6c0.1-0.5-0.1-1-0.6-1.3c-0.5-0.2-1-0.1-1.4,0.2
				l-16.2,17.4c-0.3,0.3-0.4,0.7-0.3,1.1c0.1,0.4,0.4,0.7,0.7,0.8l8.4,3.1l-2.1,10.6c-0.1,0.5,0.1,1,0.6,1.3
				c0.2,0.1,0.4,0.1,0.5,0.1c0.3,0,0.6-0.1,0.8-0.4l16.2-17.4C631.7,188.5,631.8,188.1,631.7,187.7z"/>
			<path class="st2" d="M462.4,147.5c-0.1-0.3-0.2-0.5-0.5-0.6l-5.7-2.1l1.5-7.3c0.1-0.3-0.1-0.7-0.4-0.9c-0.3-0.2-0.7-0.1-0.9,0.2
				l-11.1,11.9c-0.2,0.2-0.3,0.5-0.2,0.7c0.1,0.3,0.2,0.5,0.5,0.6l5.7,2.1l-1.5,7.3c-0.1,0.3,0.1,0.7,0.4,0.9
				c0.1,0.1,0.2,0.1,0.4,0.1c0.2,0,0.4-0.1,0.6-0.2l11.1-11.9C462.4,148,462.5,147.7,462.4,147.5z"/>
		</g>
		<g id="_x3C_Grid_Repeat_x3E__00000080186768982088230550000018420728110303929012_">
			<path class="st2" d="M866,264.1c-0.9-1.1-2.3-1.6-3.7-1.2l-12.2,3.4l-8.3-9.5c-0.9-1.1-2.4-1.5-3.8-1l0,0
				c-1.3,0.5-2.3,1.7-2.3,3.2l-0.5,12.7l-11.5,4.9c-1.3,0.6-2.2,1.9-2.1,3.3c0,1.5,1,2.7,2.3,3.2l11.8,4.5l1.1,11.6
				c0.1,1.6,1.2,3,2.8,3.4c1.5,0.4,3.1-0.1,4.1-1.3l7.3-9.2l0,0l12.3,2.8c0.6,0.2,1.3,0.1,1.9-0.1c1.8-0.7,2.8-2.7,2.1-4.5
				c-0.1-0.3-0.2-0.5-0.4-0.8l-7-10.6l6.4-10.7C866.9,266.8,866.8,265.2,866,264.1z"/>
			<path class="st2" d="M953.3,249.4c-0.2-0.5-0.7-0.9-1.2-1l-5-0.3l-1.8-4.6c-0.2-0.5-0.7-0.9-1.3-0.9l0,0c-0.6,0-1.1,0.3-1.3,0.9
				l-1.9,4.7l-4.9,0.3c-0.6,0-1,0.4-1.2,1c-0.2,0.5,0,1.1,0.4,1.5l3.8,3.2l-1.1,4.4c-0.2,0.6,0.1,1.3,0.6,1.6
				c0.5,0.4,1.2,0.4,1.7,0.1l3.9-2.5h0l4.2,2.7c0.2,0.1,0.5,0.2,0.7,0.2c0.8,0,1.4-0.6,1.4-1.4c0-0.1,0-0.2,0-0.3l-1.2-4.9l3.8-3.1
				C953.3,250.5,953.5,249.9,953.3,249.4z"/>
			<path class="st2" d="M940.4,339.3c-0.3-0.9-1.1-1.5-2-1.5l-8-0.6l-3-7.5c-0.3-0.8-1.1-1.4-2.1-1.4l0,0c-0.9,0-1.7,0.6-2.1,1.4
				l-3,7.5l-8,0.5c-0.9,0.1-1.7,0.7-2,1.5c-0.3,0.9,0,1.8,0.7,2.4l6.1,5.2l-1.8,7.2c-0.3,1,0.1,2,0.9,2.6c0.8,0.6,1.9,0.6,2.7,0.1
				l6.3-4h0l6.8,4.3c0.3,0.2,0.8,0.3,1.2,0.4c1.2,0,2.2-1,2.2-2.2c0-0.2,0-0.4-0.1-0.6l-1.9-7.8l6.1-5.1
				C940.4,341.1,940.7,340.1,940.4,339.3z"/>
			<path class="st2" d="M805.9,222.5c-0.4-0.7-1.1-1.1-1.8-1.1l-17.4-0.7l-2.5-21c-0.1-1-0.9-1.8-1.9-2c-1-0.2-2,0.3-2.4,1.3
				l-19.6,42.1c-0.3,0.7-0.3,1.5,0.1,2.1c0.4,0.6,1.1,1.1,1.8,1.1l17.4,0.7l2.5,21c0.1,1,0.9,1.8,1.9,2c0.4,0.1,0.7,0,1.1-0.1
				c0.6-0.2,1.1-0.6,1.3-1.2l19.6-42.1C806.4,224,806.3,223.2,805.9,222.5z"/>
			<path class="st2" d="M852.2,372.4c-0.2-0.8-0.7-1.4-1.5-1.7l-16.7-6.3l4.2-21.3c0.2-1-0.3-2-1.2-2.5c-0.9-0.5-2-0.3-2.8,0.5
				L801.8,376c-0.5,0.6-0.8,1.4-0.6,2.1c0.2,0.8,0.7,1.4,1.5,1.7l16.7,6.3l-4.2,21.3c-0.2,1,0.3,2,1.2,2.5c0.3,0.2,0.7,0.3,1.1,0.3
				c0.6,0,1.2-0.3,1.7-0.7l32.5-34.8C852.1,374,852.3,373.2,852.2,372.4z"/>
			<path class="st2" d="M913.7,187.7c-0.1-0.4-0.4-0.7-0.7-0.8l-8.4-3.1l2.1-10.6c0.1-0.5-0.1-1-0.6-1.3c-0.5-0.2-1-0.1-1.4,0.2
				l-16.2,17.4c-0.3,0.3-0.4,0.7-0.3,1.1c0.1,0.4,0.4,0.7,0.7,0.8l8.4,3.1l-2.1,10.6c-0.1,0.5,0.1,1,0.6,1.3
				c0.2,0.1,0.4,0.1,0.5,0.1c0.3,0,0.6-0.1,0.8-0.4l16.2-17.4C913.7,188.5,913.8,188.1,913.7,187.7z"/>
			<path class="st2" d="M744.4,147.5c-0.1-0.3-0.2-0.5-0.5-0.6l-5.7-2.1l1.5-7.3c0.1-0.3-0.1-0.7-0.4-0.9c-0.3-0.2-0.7-0.1-0.9,0.2
				l-11.1,11.9c-0.2,0.2-0.3,0.5-0.2,0.7c0.1,0.3,0.2,0.5,0.5,0.6l5.7,2.1l-1.5,7.3c-0.1,0.3,0.1,0.7,0.4,0.9
				c0.1,0.1,0.2,0.1,0.4,0.1c0.2,0,0.4-0.1,0.6-0.2l11.1-11.9C744.4,148,744.5,147.7,744.4,147.5z"/>
		</g>
		<g id="_x3C_Grid_Repeat_x3E__00000134957436406046288260000010027805735405484217_">
			<path class="st2" d="M1148,264.1c-0.9-1.1-2.3-1.6-3.7-1.2l-12.2,3.4l-8.3-9.5c-0.9-1.1-2.4-1.5-3.8-1l0,0
				c-1.3,0.5-2.3,1.7-2.3,3.2l-0.5,12.7l-11.5,4.9c-1.3,0.6-2.2,1.9-2.1,3.3c0,1.5,1,2.7,2.3,3.2l11.8,4.5l1.1,11.6
				c0.1,1.6,1.2,3,2.8,3.4c1.5,0.4,3.1-0.1,4.1-1.3l7.3-9.2l0,0l12.3,2.8c0.6,0.2,1.3,0.1,1.9-0.1c1.8-0.7,2.8-2.7,2.1-4.5
				c-0.1-0.3-0.2-0.5-0.4-0.8l-7-10.6l6.4-10.7C1148.9,266.8,1148.8,265.2,1148,264.1z"/>
			<path class="st2" d="M1235.3,249.4c-0.2-0.5-0.7-0.9-1.2-1l-5-0.3l-1.8-4.6c-0.2-0.5-0.7-0.9-1.3-0.9l0,0c-0.6,0-1.1,0.3-1.3,0.9
				l-1.9,4.7l-4.9,0.3c-0.6,0-1,0.4-1.2,1c-0.2,0.5,0,1.1,0.4,1.5l3.8,3.2l-1.1,4.4c-0.2,0.6,0.1,1.3,0.6,1.6
				c0.5,0.4,1.2,0.4,1.7,0.1l3.9-2.5h0l4.2,2.7c0.2,0.1,0.5,0.2,0.7,0.2c0.8,0,1.4-0.6,1.4-1.4c0-0.1,0-0.2,0-0.3l-1.2-4.9l3.8-3.1
				C1235.3,250.5,1235.5,249.9,1235.3,249.4z"/>
			<path class="st2" d="M1222.4,339.3c-0.3-0.9-1.1-1.5-2-1.5l-8-0.6l-3-7.5c-0.3-0.8-1.1-1.4-2.1-1.4l0,0c-0.9,0-1.7,0.6-2.1,1.4
				l-3,7.5l-8,0.5c-0.9,0.1-1.7,0.7-2,1.5c-0.3,0.9,0,1.8,0.7,2.4l6.1,5.2l-1.8,7.2c-0.3,1,0.1,2,0.9,2.6c0.8,0.6,1.9,0.6,2.7,0.1
				l6.3-4h0l6.8,4.3c0.3,0.2,0.8,0.3,1.2,0.4c1.2,0,2.2-1,2.2-2.2c0-0.2,0-0.4-0.1-0.6l-1.9-7.8l6.1-5.1
				C1222.4,341.1,1222.7,340.1,1222.4,339.3z"/>
			<path class="st2" d="M1087.9,222.5c-0.4-0.7-1.1-1.1-1.8-1.1l-17.4-0.7l-2.5-21c-0.1-1-0.9-1.8-1.9-2c-1-0.2-2,0.3-2.4,1.3
				l-19.6,42.1c-0.3,0.7-0.3,1.5,0.1,2.1c0.4,0.6,1.1,1.1,1.8,1.1l17.4,0.7l2.5,21c0.1,1,0.9,1.8,1.9,2c0.4,0.1,0.7,0,1.1-0.1
				c0.6-0.2,1.1-0.6,1.3-1.2l19.6-42.1C1088.4,224,1088.3,223.2,1087.9,222.5z"/>
			<path class="st2" d="M1134.2,372.4c-0.2-0.8-0.7-1.4-1.5-1.7l-16.7-6.3l4.2-21.3c0.2-1-0.3-2-1.2-2.5c-0.9-0.5-2-0.3-2.8,0.5
				l-32.5,34.8c-0.5,0.6-0.8,1.4-0.6,2.1c0.2,0.8,0.7,1.4,1.5,1.7l16.7,6.3l-4.2,21.3c-0.2,1,0.3,2,1.2,2.5c0.3,0.2,0.7,0.3,1.1,0.3
				c0.6,0,1.2-0.3,1.7-0.7l32.5-34.8C1134.1,374,1134.3,373.2,1134.2,372.4z"/>
			<path class="st2" d="M1195.7,187.7c-0.1-0.4-0.4-0.7-0.7-0.8l-8.4-3.1l2.1-10.6c0.1-0.5-0.1-1-0.6-1.3c-0.5-0.2-1-0.1-1.4,0.2
				l-16.2,17.4c-0.3,0.3-0.4,0.7-0.3,1.1c0.1,0.4,0.4,0.7,0.7,0.8l8.4,3.1l-2.1,10.6c-0.1,0.5,0.1,1,0.6,1.3
				c0.2,0.1,0.4,0.1,0.5,0.1c0.3,0,0.6-0.1,0.8-0.4l16.2-17.4C1195.7,188.5,1195.8,188.1,1195.7,187.7z"/>
			<path class="st2" d="M1026.4,147.5c-0.1-0.3-0.2-0.5-0.5-0.6l-5.7-2.1l1.5-7.3c0.1-0.3-0.1-0.7-0.4-0.9c-0.3-0.2-0.7-0.1-0.9,0.2
				l-11.1,11.9c-0.2,0.2-0.3,0.5-0.2,0.7c0.1,0.3,0.2,0.5,0.5,0.6l5.7,2.1l-1.5,7.3c-0.1,0.3,0.1,0.7,0.4,0.9
				c0.1,0.1,0.2,0.1,0.4,0.1c0.2,0,0.4-0.1,0.6-0.2l11.1-11.9C1026.4,148,1026.5,147.7,1026.4,147.5z"/>
		</g>
		<g id="_x3C_Grid_Repeat_x3E__00000158010244075902418880000016562785402363379081_">
			<path class="st2" d="M1430,264.1c-0.9-1.1-2.3-1.6-3.7-1.2l-12.2,3.4l-8.3-9.5c-0.9-1.1-2.4-1.5-3.8-1l0,0
				c-1.3,0.5-2.3,1.7-2.3,3.2l-0.5,12.7l-11.5,4.9c-1.3,0.6-2.2,1.9-2.1,3.3c0,1.5,1,2.7,2.3,3.2l11.8,4.5l1.1,11.6
				c0.1,1.6,1.2,3,2.8,3.4c1.5,0.4,3.1-0.1,4.1-1.3l7.3-9.2l0,0l12.3,2.8c0.6,0.2,1.3,0.1,1.9-0.1c1.8-0.7,2.8-2.7,2.1-4.5
				c-0.1-0.3-0.2-0.5-0.4-0.8l-7-10.6l6.4-10.7C1430.9,266.8,1430.8,265.2,1430,264.1z"/>
			<path class="st2" d="M1517.3,249.4c-0.2-0.5-0.7-0.9-1.2-1l-5-0.3l-1.8-4.6c-0.2-0.5-0.7-0.9-1.3-0.9l0,0c-0.6,0-1.1,0.3-1.3,0.9
				l-1.9,4.7l-4.9,0.3c-0.6,0-1,0.4-1.2,1c-0.2,0.5,0,1.1,0.4,1.5l3.8,3.2l-1.1,4.4c-0.2,0.6,0.1,1.3,0.6,1.6
				c0.5,0.4,1.2,0.4,1.7,0.1l3.9-2.5h0l4.2,2.7c0.2,0.1,0.5,0.2,0.7,0.2c0.8,0,1.4-0.6,1.4-1.4c0-0.1,0-0.2,0-0.3l-1.2-4.9l3.8-3.1
				C1517.3,250.5,1517.5,249.9,1517.3,249.4z"/>
			<path class="st2" d="M1504.4,339.3c-0.3-0.9-1.1-1.5-2-1.5l-8-0.6l-3-7.5c-0.3-0.8-1.1-1.4-2.1-1.4l0,0c-0.9,0-1.7,0.6-2.1,1.4
				l-3,7.5l-8,0.5c-0.9,0.1-1.7,0.7-2,1.5c-0.3,0.9,0,1.8,0.7,2.4l6.1,5.2l-1.8,7.2c-0.3,1,0.1,2,0.9,2.6c0.8,0.6,1.9,0.6,2.7,0.1
				l6.3-4h0l6.8,4.3c0.3,0.2,0.8,0.3,1.2,0.4c1.2,0,2.2-1,2.2-2.2c0-0.2,0-0.4-0.1-0.6l-1.9-7.8l6.1-5.1
				C1504.4,341.1,1504.7,340.1,1504.4,339.3z"/>
			<path class="st2" d="M1369.9,222.5c-0.4-0.7-1.1-1.1-1.8-1.1l-17.4-0.7l-2.5-21c-0.1-1-0.9-1.8-1.9-2c-1-0.2-2,0.3-2.4,1.3
				l-19.6,42.1c-0.3,0.7-0.3,1.5,0.1,2.1c0.4,0.6,1.1,1.1,1.8,1.1l17.4,0.7l2.5,21c0.1,1,0.9,1.8,1.9,2c0.4,0.1,0.7,0,1.1-0.1
				c0.6-0.2,1.1-0.6,1.3-1.2l19.6-42.1C1370.4,224,1370.3,223.2,1369.9,222.5z"/>
			<path class="st2" d="M1416.2,372.4c-0.2-0.8-0.7-1.4-1.5-1.7l-16.7-6.3l4.2-21.3c0.2-1-0.3-2-1.2-2.5c-0.9-0.5-2-0.3-2.8,0.5
				l-32.5,34.8c-0.5,0.6-0.8,1.4-0.6,2.1c0.2,0.8,0.7,1.4,1.5,1.7l16.7,6.3l-4.2,21.3c-0.2,1,0.3,2,1.2,2.5c0.3,0.2,0.7,0.3,1.1,0.3
				c0.6,0,1.2-0.3,1.7-0.7l32.5-34.8C1416.1,374,1416.3,373.2,1416.2,372.4z"/>
			<path class="st2" d="M1477.7,187.7c-0.1-0.4-0.4-0.7-0.7-0.8l-8.4-3.1l2.1-10.6c0.1-0.5-0.1-1-0.6-1.3c-0.5-0.2-1-0.1-1.4,0.2
				l-16.2,17.4c-0.3,0.3-0.4,0.7-0.3,1.1c0.1,0.4,0.4,0.7,0.7,0.8l8.4,3.1l-2.1,10.6c-0.1,0.5,0.1,1,0.6,1.3
				c0.2,0.1,0.4,0.1,0.5,0.1c0.3,0,0.6-0.1,0.8-0.4l16.2-17.4C1477.7,188.5,1477.8,188.1,1477.7,187.7z"/>
			<path class="st2" d="M1308.4,147.5c-0.1-0.3-0.2-0.5-0.5-0.6l-5.7-2.1l1.5-7.3c0.1-0.3-0.1-0.7-0.4-0.9c-0.3-0.2-0.7-0.1-0.9,0.2
				l-11.1,11.9c-0.2,0.2-0.3,0.5-0.2,0.7c0.1,0.3,0.2,0.5,0.5,0.6l5.7,2.1l-1.5,7.3c-0.1,0.3,0.1,0.7,0.4,0.9
				c0.1,0.1,0.2,0.1,0.4,0.1c0.2,0,0.4-0.1,0.6-0.2l11.1-11.9C1308.4,148,1308.5,147.7,1308.4,147.5z"/>
		</g>
		<g id="_x3C_Grid_Repeat_x3E__00000132066132642995905100000011956070369107916448_">
			<path class="st2" d="M20,551.7c-0.9-1.1-2.3-1.6-3.7-1.2l-12.2,3.4l-8.3-9.5c-0.9-1.1-2.4-1.5-3.8-1l0,0
				c-1.3,0.5-2.3,1.7-2.3,3.2l-0.5,12.7l-11.5,4.9c-1.3,0.6-2.2,1.9-2.1,3.3c0,1.5,1,2.7,2.3,3.2l11.8,4.5l1.1,11.6
				c0.1,1.6,1.2,3,2.8,3.4c1.5,0.4,3.1-0.1,4.1-1.3l7.3-9.2l0,0l12.3,2.8c0.6,0.2,1.3,0.1,1.9-0.1c1.8-0.7,2.8-2.7,2.1-4.5
				c-0.1-0.3-0.2-0.5-0.4-0.8l-7-10.6l6.4-10.7C20.9,554.5,20.8,552.9,20,551.7z"/>
			<path class="st2" d="M107.3,537c-0.2-0.5-0.7-0.9-1.2-1l-5-0.3l-1.8-4.6c-0.2-0.5-0.7-0.9-1.3-0.9l0,0c-0.6,0-1.1,0.3-1.3,0.9
				l-1.9,4.7l-4.9,0.3c-0.6,0-1,0.4-1.2,1c-0.2,0.5,0,1.1,0.4,1.5l3.8,3.2l-1.1,4.4c-0.2,0.6,0.1,1.3,0.6,1.6
				c0.5,0.4,1.2,0.4,1.7,0.1l3.9-2.5h0l4.2,2.7c0.2,0.1,0.5,0.2,0.7,0.2c0.8,0,1.4-0.6,1.4-1.4c0-0.1,0-0.2,0-0.3l-1.2-4.9l3.8-3.1
				C107.3,538.2,107.5,537.6,107.3,537z"/>
			<path class="st2" d="M94.4,626.9c-0.3-0.9-1.1-1.5-2-1.5l-8-0.6l-3-7.5c-0.3-0.8-1.1-1.4-2.1-1.4l0,0c-0.9,0-1.7,0.6-2.1,1.4
				l-3,7.5l-8,0.5c-0.9,0.1-1.7,0.7-2,1.5c-0.3,0.9,0,1.8,0.7,2.4l6.1,5.2l-1.8,7.2c-0.3,1,0.1,2,0.9,2.6c0.8,0.6,1.9,0.6,2.7,0.1
				l6.3-4h0l6.8,4.3c0.3,0.2,0.8,0.3,1.2,0.4c1.2,0,2.2-1,2.2-2.2c0-0.2,0-0.4-0.1-0.6l-1.9-7.8l6.1-5.1
				C94.4,628.8,94.7,627.8,94.4,626.9z"/>
			<path class="st2" d="M-40.1,510.2c-0.4-0.7-1.1-1.1-1.8-1.1l-17.4-0.7l-2.5-21c-0.1-1-0.9-1.8-1.9-2c-1-0.2-2,0.3-2.4,1.3
				l-19.6,42.1c-0.3,0.7-0.3,1.5,0.1,2.1c0.4,0.6,1.1,1.1,1.8,1.1l17.4,0.7l2.5,21c0.1,1,0.9,1.8,1.9,2c0.4,0.1,0.7,0,1.1-0.1
				c0.6-0.2,1.1-0.6,1.3-1.2l19.6-42.1C-39.6,511.7-39.7,510.9-40.1,510.2z"/>
			<path class="st2" d="M6.2,660.1c-0.2-0.8-0.7-1.4-1.5-1.7l-16.7-6.3l4.2-21.3c0.2-1-0.3-2-1.2-2.5c-0.9-0.5-2-0.3-2.8,0.5
				l-32.5,34.8c-0.5,0.6-0.8,1.4-0.6,2.1c0.2,0.8,0.7,1.4,1.5,1.7l16.7,6.3l-4.2,21.3c-0.2,1,0.3,2,1.2,2.5c0.3,0.2,0.7,0.3,1.1,0.3
				c0.6,0,1.2-0.3,1.7-0.7l32.5-34.8C6.1,661.7,6.3,660.9,6.2,660.1z"/>
			<path class="st2" d="M67.7,475.4c-0.1-0.4-0.4-0.7-0.7-0.8l-8.4-3.1l2.1-10.6c0.1-0.5-0.1-1-0.6-1.3c-0.5-0.2-1-0.1-1.4,0.2
				l-16.2,17.4c-0.3,0.3-0.4,0.7-0.3,1.1c0.1,0.4,0.4,0.7,0.7,0.8l8.4,3.1l-2.1,10.6c-0.1,0.5,0.1,1,0.6,1.3
				c0.2,0.1,0.4,0.1,0.5,0.1c0.3,0,0.6-0.1,0.8-0.4l16.2-17.4C67.7,476.2,67.8,475.8,67.7,475.4z"/>
			<path class="st2" d="M-101.6,435.2c-0.1-0.3-0.2-0.5-0.5-0.6l-5.7-2.1l1.5-7.3c0.1-0.3-0.1-0.7-0.4-0.9c-0.3-0.2-0.7-0.1-0.9,0.2
				l-11.1,11.9c-0.2,0.2-0.3,0.5-0.2,0.7c0.1,0.3,0.2,0.5,0.5,0.6l5.7,2.1l-1.5,7.3c-0.1,0.3,0.1,0.7,0.4,0.9
				c0.1,0.1,0.2,0.1,0.4,0.1c0.2,0,0.4-0.1,0.6-0.2l11.1-11.9C-101.6,435.7-101.5,435.4-101.6,435.2z"/>
		</g>
		<g id="_x3C_Grid_Repeat_x3E__00000052066565254073343910000010950981331403669123_">
			<path class="st2" d="M302,551.7c-0.9-1.1-2.3-1.6-3.7-1.2l-12.2,3.4l-8.3-9.5c-0.9-1.1-2.4-1.5-3.8-1l0,0
				c-1.3,0.5-2.3,1.7-2.3,3.2l-0.5,12.7l-11.5,4.9c-1.3,0.6-2.2,1.9-2.1,3.3c0,1.5,1,2.7,2.3,3.2l11.8,4.5l1.1,11.6
				c0.1,1.6,1.2,3,2.8,3.4c1.5,0.4,3.1-0.1,4.1-1.3l7.3-9.2l0,0l12.3,2.8c0.6,0.2,1.3,0.1,1.9-0.1c1.8-0.7,2.8-2.7,2.1-4.5
				c-0.1-0.3-0.2-0.5-0.4-0.8l-7-10.6l6.4-10.7C302.9,554.5,302.8,552.9,302,551.7z"/>
			<path class="st2" d="M389.3,537c-0.2-0.5-0.7-0.9-1.2-1l-5-0.3l-1.8-4.6c-0.2-0.5-0.7-0.9-1.3-0.9l0,0c-0.6,0-1.1,0.3-1.3,0.9
				l-1.9,4.7l-4.9,0.3c-0.6,0-1,0.4-1.2,1c-0.2,0.5,0,1.1,0.4,1.5l3.8,3.2l-1.1,4.4c-0.2,0.6,0.1,1.3,0.6,1.6
				c0.5,0.4,1.2,0.4,1.7,0.1l3.9-2.5h0l4.2,2.7c0.2,0.1,0.5,0.2,0.7,0.2c0.8,0,1.4-0.6,1.4-1.4c0-0.1,0-0.2,0-0.3l-1.2-4.9l3.8-3.1
				C389.3,538.2,389.5,537.6,389.3,537z"/>
			<path class="st2" d="M376.4,626.9c-0.3-0.9-1.1-1.5-2-1.5l-8-0.6l-3-7.5c-0.3-0.8-1.1-1.4-2.1-1.4l0,0c-0.9,0-1.7,0.6-2.1,1.4
				l-3,7.5l-8,0.5c-0.9,0.1-1.7,0.7-2,1.5c-0.3,0.9,0,1.8,0.7,2.4l6.1,5.2l-1.8,7.2c-0.3,1,0.1,2,0.9,2.6c0.8,0.6,1.9,0.6,2.7,0.1
				l6.3-4h0l6.8,4.3c0.3,0.2,0.8,0.3,1.2,0.4c1.2,0,2.2-1,2.2-2.2c0-0.2,0-0.4-0.1-0.6l-1.9-7.8l6.1-5.1
				C376.4,628.8,376.7,627.8,376.4,626.9z"/>
			<path class="st2" d="M241.9,510.2c-0.4-0.7-1.1-1.1-1.8-1.1l-17.4-0.7l-2.5-21c-0.1-1-0.9-1.8-1.9-2c-1-0.2-2,0.3-2.4,1.3
				l-19.6,42.1c-0.3,0.7-0.3,1.5,0.1,2.1c0.4,0.6,1.1,1.1,1.8,1.1l17.4,0.7l2.5,21c0.1,1,0.9,1.8,1.9,2c0.4,0.1,0.7,0,1.1-0.1
				c0.6-0.2,1.1-0.6,1.3-1.2l19.6-42.1C242.4,511.7,242.3,510.9,241.9,510.2z"/>
			<path class="st2" d="M288.2,660.1c-0.2-0.8-0.7-1.4-1.5-1.7l-16.7-6.3l4.2-21.3c0.2-1-0.3-2-1.2-2.5c-0.9-0.5-2-0.3-2.8,0.5
				l-32.5,34.8c-0.5,0.6-0.8,1.4-0.6,2.1c0.2,0.8,0.7,1.4,1.5,1.7l16.7,6.3l-4.2,21.3c-0.2,1,0.3,2,1.2,2.5c0.3,0.2,0.7,0.3,1.1,0.3
				c0.6,0,1.2-0.3,1.7-0.7l32.5-34.8C288.1,661.7,288.3,660.9,288.2,660.1z"/>
			<path class="st2" d="M349.7,475.4c-0.1-0.4-0.4-0.7-0.7-0.8l-8.4-3.1l2.1-10.6c0.1-0.5-0.1-1-0.6-1.3c-0.5-0.2-1-0.1-1.4,0.2
				l-16.2,17.4c-0.3,0.3-0.4,0.7-0.3,1.1c0.1,0.4,0.4,0.7,0.7,0.8l8.4,3.1l-2.1,10.6c-0.1,0.5,0.1,1,0.6,1.3
				c0.2,0.1,0.4,0.1,0.5,0.1c0.3,0,0.6-0.1,0.8-0.4l16.2-17.4C349.7,476.2,349.8,475.8,349.7,475.4z"/>
			<path class="st2" d="M180.4,435.2c-0.1-0.3-0.2-0.5-0.5-0.6l-5.7-2.1l1.5-7.3c0.1-0.3-0.1-0.7-0.4-0.9c-0.3-0.2-0.7-0.1-0.9,0.2
				l-11.1,11.9c-0.2,0.2-0.3,0.5-0.2,0.7c0.1,0.3,0.2,0.5,0.5,0.6l5.7,2.1l-1.5,7.3c-0.1,0.3,0.1,0.7,0.4,0.9
				c0.1,0.1,0.2,0.1,0.4,0.1c0.2,0,0.4-0.1,0.6-0.2l11.1-11.9C180.4,435.7,180.5,435.4,180.4,435.2z"/>
		</g>
		<g id="_x3C_Grid_Repeat_x3E__00000129190438192191747520000007983064931756980396_">
			<path class="st2" d="M584,551.7c-0.9-1.1-2.3-1.6-3.7-1.2l-12.2,3.4l-8.3-9.5c-0.9-1.1-2.4-1.5-3.8-1l0,0
				c-1.3,0.5-2.3,1.7-2.3,3.2l-0.5,12.7l-11.5,4.9c-1.3,0.6-2.2,1.9-2.1,3.3c0,1.5,1,2.7,2.3,3.2l11.8,4.5l1.1,11.6
				c0.1,1.6,1.2,3,2.8,3.4c1.5,0.4,3.1-0.1,4.1-1.3l7.3-9.2l0,0l12.3,2.8c0.6,0.2,1.3,0.1,1.9-0.1c1.8-0.7,2.8-2.7,2.1-4.5
				c-0.1-0.3-0.2-0.5-0.4-0.8l-7-10.6l6.4-10.7C584.9,554.5,584.8,552.9,584,551.7z"/>
			<path class="st2" d="M671.3,537c-0.2-0.5-0.7-0.9-1.2-1l-5-0.3l-1.8-4.6c-0.2-0.5-0.7-0.9-1.3-0.9l0,0c-0.6,0-1.1,0.3-1.3,0.9
				l-1.9,4.7l-4.9,0.3c-0.6,0-1,0.4-1.2,1c-0.2,0.5,0,1.1,0.4,1.5l3.8,3.2l-1.1,4.4c-0.2,0.6,0.1,1.3,0.6,1.6
				c0.5,0.4,1.2,0.4,1.7,0.1l3.9-2.5h0l4.2,2.7c0.2,0.1,0.5,0.2,0.7,0.2c0.8,0,1.4-0.6,1.4-1.4c0-0.1,0-0.2,0-0.3l-1.2-4.9l3.8-3.1
				C671.3,538.2,671.5,537.6,671.3,537z"/>
			<path class="st2" d="M658.4,626.9c-0.3-0.9-1.1-1.5-2-1.5l-8-0.6l-3-7.5c-0.3-0.8-1.1-1.4-2.1-1.4l0,0c-0.9,0-1.7,0.6-2.1,1.4
				l-3,7.5l-8,0.5c-0.9,0.1-1.7,0.7-2,1.5c-0.3,0.9,0,1.8,0.7,2.4l6.1,5.2l-1.8,7.2c-0.3,1,0.1,2,0.9,2.6c0.8,0.6,1.9,0.6,2.7,0.1
				l6.3-4h0l6.8,4.3c0.3,0.2,0.8,0.3,1.2,0.4c1.2,0,2.2-1,2.2-2.2c0-0.2,0-0.4-0.1-0.6l-1.9-7.8l6.1-5.1
				C658.4,628.8,658.7,627.8,658.4,626.9z"/>
			<path class="st2" d="M523.9,510.2c-0.4-0.7-1.1-1.1-1.8-1.1l-17.4-0.7l-2.5-21c-0.1-1-0.9-1.8-1.9-2c-1-0.2-2,0.3-2.4,1.3
				l-19.6,42.1c-0.3,0.7-0.3,1.5,0.1,2.1c0.4,0.6,1.1,1.1,1.8,1.1l17.4,0.7l2.5,21c0.1,1,0.9,1.8,1.9,2c0.4,0.1,0.7,0,1.1-0.1
				c0.6-0.2,1.1-0.6,1.3-1.2l19.6-42.1C524.4,511.7,524.3,510.9,523.9,510.2z"/>
			<path class="st2" d="M570.2,660.1c-0.2-0.8-0.7-1.4-1.5-1.7l-16.7-6.3l4.2-21.3c0.2-1-0.3-2-1.2-2.5c-0.9-0.5-2-0.3-2.8,0.5
				l-32.5,34.8c-0.5,0.6-0.8,1.4-0.6,2.1c0.2,0.8,0.7,1.4,1.5,1.7l16.7,6.3l-4.2,21.3c-0.2,1,0.3,2,1.2,2.5c0.3,0.2,0.7,0.3,1.1,0.3
				c0.6,0,1.2-0.3,1.7-0.7l32.5-34.8C570.1,661.7,570.3,660.9,570.2,660.1z"/>
			<path class="st2" d="M631.7,475.4c-0.1-0.4-0.4-0.7-0.7-0.8l-8.4-3.1l2.1-10.6c0.1-0.5-0.1-1-0.6-1.3c-0.5-0.2-1-0.1-1.4,0.2
				l-16.2,17.4c-0.3,0.3-0.4,0.7-0.3,1.1c0.1,0.4,0.4,0.7,0.7,0.8l8.4,3.1l-2.1,10.6c-0.1,0.5,0.1,1,0.6,1.3
				c0.2,0.1,0.4,0.1,0.5,0.1c0.3,0,0.6-0.1,0.8-0.4l16.2-17.4C631.7,476.2,631.8,475.8,631.7,475.4z"/>
			<path class="st2" d="M462.4,435.2c-0.1-0.3-0.2-0.5-0.5-0.6l-5.7-2.1l1.5-7.3c0.1-0.3-0.1-0.7-0.4-0.9c-0.3-0.2-0.7-0.1-0.9,0.2
				l-11.1,11.9c-0.2,0.2-0.3,0.5-0.2,0.7c0.1,0.3,0.2,0.5,0.5,0.6l5.7,2.1l-1.5,7.3c-0.1,0.3,0.1,0.7,0.4,0.9
				c0.1,0.1,0.2,0.1,0.4,0.1c0.2,0,0.4-0.1,0.6-0.2l11.1-11.9C462.4,435.7,462.5,435.4,462.4,435.2z"/>
		</g>
		<g id="_x3C_Grid_Repeat_x3E__00000119110449162137364220000018212049838005241005_">
			<path class="st2" d="M866,551.7c-0.9-1.1-2.3-1.6-3.7-1.2l-12.2,3.4l-8.3-9.5c-0.9-1.1-2.4-1.5-3.8-1l0,0
				c-1.3,0.5-2.3,1.7-2.3,3.2l-0.5,12.7l-11.5,4.9c-1.3,0.6-2.2,1.9-2.1,3.3c0,1.5,1,2.7,2.3,3.2l11.8,4.5l1.1,11.6
				c0.1,1.6,1.2,3,2.8,3.4c1.5,0.4,3.1-0.1,4.1-1.3l7.3-9.2l0,0l12.3,2.8c0.6,0.2,1.3,0.1,1.9-0.1c1.8-0.7,2.8-2.7,2.1-4.5
				c-0.1-0.3-0.2-0.5-0.4-0.8l-7-10.6l6.4-10.7C866.9,554.5,866.8,552.9,866,551.7z"/>
			<path class="st2" d="M953.3,537c-0.2-0.5-0.7-0.9-1.2-1l-5-0.3l-1.8-4.6c-0.2-0.5-0.7-0.9-1.3-0.9l0,0c-0.6,0-1.1,0.3-1.3,0.9
				l-1.9,4.7l-4.9,0.3c-0.6,0-1,0.4-1.2,1c-0.2,0.5,0,1.1,0.4,1.5l3.8,3.2l-1.1,4.4c-0.2,0.6,0.1,1.3,0.6,1.6
				c0.5,0.4,1.2,0.4,1.7,0.1l3.9-2.5h0l4.2,2.7c0.2,0.1,0.5,0.2,0.7,0.2c0.8,0,1.4-0.6,1.4-1.4c0-0.1,0-0.2,0-0.3l-1.2-4.9l3.8-3.1
				C953.3,538.2,953.5,537.6,953.3,537z"/>
			<path class="st2" d="M940.4,626.9c-0.3-0.9-1.1-1.5-2-1.5l-8-0.6l-3-7.5c-0.3-0.8-1.1-1.4-2.1-1.4l0,0c-0.9,0-1.7,0.6-2.1,1.4
				l-3,7.5l-8,0.5c-0.9,0.1-1.7,0.7-2,1.5c-0.3,0.9,0,1.8,0.7,2.4l6.1,5.2l-1.8,7.2c-0.3,1,0.1,2,0.9,2.6c0.8,0.6,1.9,0.6,2.7,0.1
				l6.3-4h0l6.8,4.3c0.3,0.2,0.8,0.3,1.2,0.4c1.2,0,2.2-1,2.2-2.2c0-0.2,0-0.4-0.1-0.6l-1.9-7.8l6.1-5.1
				C940.4,628.8,940.7,627.8,940.4,626.9z"/>
			<path class="st2" d="M805.9,510.2c-0.4-0.7-1.1-1.1-1.8-1.1l-17.4-0.7l-2.5-21c-0.1-1-0.9-1.8-1.9-2c-1-0.2-2,0.3-2.4,1.3
				l-19.6,42.1c-0.3,0.7-0.3,1.5,0.1,2.1c0.4,0.6,1.1,1.1,1.8,1.1l17.4,0.7l2.5,21c0.1,1,0.9,1.8,1.9,2c0.4,0.1,0.7,0,1.1-0.1
				c0.6-0.2,1.1-0.6,1.3-1.2l19.6-42.1C806.4,511.7,806.3,510.9,805.9,510.2z"/>
			<path class="st2" d="M852.2,660.1c-0.2-0.8-0.7-1.4-1.5-1.7l-16.7-6.3l4.2-21.3c0.2-1-0.3-2-1.2-2.5c-0.9-0.5-2-0.3-2.8,0.5
				l-32.5,34.8c-0.5,0.6-0.8,1.4-0.6,2.1c0.2,0.8,0.7,1.4,1.5,1.7l16.7,6.3l-4.2,21.3c-0.2,1,0.3,2,1.2,2.5c0.3,0.2,0.7,0.3,1.1,0.3
				c0.6,0,1.2-0.3,1.7-0.7l32.5-34.8C852.1,661.7,852.3,660.9,852.2,660.1z"/>
			<path class="st2" d="M913.7,475.4c-0.1-0.4-0.4-0.7-0.7-0.8l-8.4-3.1l2.1-10.6c0.1-0.5-0.1-1-0.6-1.3c-0.5-0.2-1-0.1-1.4,0.2
				l-16.2,17.4c-0.3,0.3-0.4,0.7-0.3,1.1c0.1,0.4,0.4,0.7,0.7,0.8l8.4,3.1l-2.1,10.6c-0.1,0.5,0.1,1,0.6,1.3
				c0.2,0.1,0.4,0.1,0.5,0.1c0.3,0,0.6-0.1,0.8-0.4l16.2-17.4C913.7,476.2,913.8,475.8,913.7,475.4z"/>
			<path class="st2" d="M744.4,435.2c-0.1-0.3-0.2-0.5-0.5-0.6l-5.7-2.1l1.5-7.3c0.1-0.3-0.1-0.7-0.4-0.9c-0.3-0.2-0.7-0.1-0.9,0.2
				l-11.1,11.9c-0.2,0.2-0.3,0.5-0.2,0.7c0.1,0.3,0.2,0.5,0.5,0.6l5.7,2.1l-1.5,7.3c-0.1,0.3,0.1,0.7,0.4,0.9
				c0.1,0.1,0.2,0.1,0.4,0.1c0.2,0,0.4-0.1,0.6-0.2l11.1-11.9C744.4,435.7,744.5,435.4,744.4,435.2z"/>
		</g>
		<g id="_x3C_Grid_Repeat_x3E__00000029006152456402304200000007617758995368029097_">
			<path class="st2" d="M1148,551.7c-0.9-1.1-2.3-1.6-3.7-1.2l-12.2,3.4l-8.3-9.5c-0.9-1.1-2.4-1.5-3.8-1l0,0
				c-1.3,0.5-2.3,1.7-2.3,3.2l-0.5,12.7l-11.5,4.9c-1.3,0.6-2.2,1.9-2.1,3.3c0,1.5,1,2.7,2.3,3.2l11.8,4.5l1.1,11.6
				c0.1,1.6,1.2,3,2.8,3.4c1.5,0.4,3.1-0.1,4.1-1.3l7.3-9.2l0,0l12.3,2.8c0.6,0.2,1.3,0.1,1.9-0.1c1.8-0.7,2.8-2.7,2.1-4.5
				c-0.1-0.3-0.2-0.5-0.4-0.8l-7-10.6l6.4-10.7C1148.9,554.5,1148.8,552.9,1148,551.7z"/>
			<path class="st2" d="M1235.3,537c-0.2-0.5-0.7-0.9-1.2-1l-5-0.3l-1.8-4.6c-0.2-0.5-0.7-0.9-1.3-0.9l0,0c-0.6,0-1.1,0.3-1.3,0.9
				l-1.9,4.7l-4.9,0.3c-0.6,0-1,0.4-1.2,1c-0.2,0.5,0,1.1,0.4,1.5l3.8,3.2l-1.1,4.4c-0.2,0.6,0.1,1.3,0.6,1.6
				c0.5,0.4,1.2,0.4,1.7,0.1l3.9-2.5h0l4.2,2.7c0.2,0.1,0.5,0.2,0.7,0.2c0.8,0,1.4-0.6,1.4-1.4c0-0.1,0-0.2,0-0.3l-1.2-4.9l3.8-3.1
				C1235.3,538.2,1235.5,537.6,1235.3,537z"/>
			<path class="st2" d="M1222.4,626.9c-0.3-0.9-1.1-1.5-2-1.5l-8-0.6l-3-7.5c-0.3-0.8-1.1-1.4-2.1-1.4l0,0c-0.9,0-1.7,0.6-2.1,1.4
				l-3,7.5l-8,0.5c-0.9,0.1-1.7,0.7-2,1.5c-0.3,0.9,0,1.8,0.7,2.4l6.1,5.2l-1.8,7.2c-0.3,1,0.1,2,0.9,2.6c0.8,0.6,1.9,0.6,2.7,0.1
				l6.3-4h0l6.8,4.3c0.3,0.2,0.8,0.3,1.2,0.4c1.2,0,2.2-1,2.2-2.2c0-0.2,0-0.4-0.1-0.6l-1.9-7.8l6.1-5.1
				C1222.4,628.8,1222.7,627.8,1222.4,626.9z"/>
			<path class="st2" d="M1087.9,510.2c-0.4-0.7-1.1-1.1-1.8-1.1l-17.4-0.7l-2.5-21c-0.1-1-0.9-1.8-1.9-2c-1-0.2-2,0.3-2.4,1.3
				l-19.6,42.1c-0.3,0.7-0.3,1.5,0.1,2.1c0.4,0.6,1.1,1.1,1.8,1.1l17.4,0.7l2.5,21c0.1,1,0.9,1.8,1.9,2c0.4,0.1,0.7,0,1.1-0.1
				c0.6-0.2,1.1-0.6,1.3-1.2l19.6-42.1C1088.4,511.7,1088.3,510.9,1087.9,510.2z"/>
			<path class="st2" d="M1134.2,660.1c-0.2-0.8-0.7-1.4-1.5-1.7l-16.7-6.3l4.2-21.3c0.2-1-0.3-2-1.2-2.5c-0.9-0.5-2-0.3-2.8,0.5
				l-32.5,34.8c-0.5,0.6-0.8,1.4-0.6,2.1c0.2,0.8,0.7,1.4,1.5,1.7l16.7,6.3l-4.2,21.3c-0.2,1,0.3,2,1.2,2.5c0.3,0.2,0.7,0.3,1.1,0.3
				c0.6,0,1.2-0.3,1.7-0.7l32.5-34.8C1134.1,661.7,1134.3,660.9,1134.2,660.1z"/>
			<path class="st2" d="M1195.7,475.4c-0.1-0.4-0.4-0.7-0.7-0.8l-8.4-3.1l2.1-10.6c0.1-0.5-0.1-1-0.6-1.3c-0.5-0.2-1-0.1-1.4,0.2
				l-16.2,17.4c-0.3,0.3-0.4,0.7-0.3,1.1c0.1,0.4,0.4,0.7,0.7,0.8l8.4,3.1l-2.1,10.6c-0.1,0.5,0.1,1,0.6,1.3
				c0.2,0.1,0.4,0.1,0.5,0.1c0.3,0,0.6-0.1,0.8-0.4l16.2-17.4C1195.7,476.2,1195.8,475.8,1195.7,475.4z"/>
			<path class="st2" d="M1026.4,435.2c-0.1-0.3-0.2-0.5-0.5-0.6l-5.7-2.1l1.5-7.3c0.1-0.3-0.1-0.7-0.4-0.9c-0.3-0.2-0.7-0.1-0.9,0.2
				l-11.1,11.9c-0.2,0.2-0.3,0.5-0.2,0.7c0.1,0.3,0.2,0.5,0.5,0.6l5.7,2.1l-1.5,7.3c-0.1,0.3,0.1,0.7,0.4,0.9
				c0.1,0.1,0.2,0.1,0.4,0.1c0.2,0,0.4-0.1,0.6-0.2l11.1-11.9C1026.4,435.7,1026.5,435.4,1026.4,435.2z"/>
		</g>
		<g id="_x3C_Grid_Repeat_x3E__00000030472530691582017600000002795719918584150670_">
			<path class="st2" d="M1430,551.7c-0.9-1.1-2.3-1.6-3.7-1.2l-12.2,3.4l-8.3-9.5c-0.9-1.1-2.4-1.5-3.8-1l0,0
				c-1.3,0.5-2.3,1.7-2.3,3.2l-0.5,12.7l-11.5,4.9c-1.3,0.6-2.2,1.9-2.1,3.3c0,1.5,1,2.7,2.3,3.2l11.8,4.5l1.1,11.6
				c0.1,1.6,1.2,3,2.8,3.4c1.5,0.4,3.1-0.1,4.1-1.3l7.3-9.2l0,0l12.3,2.8c0.6,0.2,1.3,0.1,1.9-0.1c1.8-0.7,2.8-2.7,2.1-4.5
				c-0.1-0.3-0.2-0.5-0.4-0.8l-7-10.6l6.4-10.7C1430.9,554.5,1430.8,552.9,1430,551.7z"/>
			<path class="st2" d="M1517.3,537c-0.2-0.5-0.7-0.9-1.2-1l-5-0.3l-1.8-4.6c-0.2-0.5-0.7-0.9-1.3-0.9l0,0c-0.6,0-1.1,0.3-1.3,0.9
				l-1.9,4.7l-4.9,0.3c-0.6,0-1,0.4-1.2,1c-0.2,0.5,0,1.1,0.4,1.5l3.8,3.2l-1.1,4.4c-0.2,0.6,0.1,1.3,0.6,1.6
				c0.5,0.4,1.2,0.4,1.7,0.1l3.9-2.5h0l4.2,2.7c0.2,0.1,0.5,0.2,0.7,0.2c0.8,0,1.4-0.6,1.4-1.4c0-0.1,0-0.2,0-0.3l-1.2-4.9l3.8-3.1
				C1517.3,538.2,1517.5,537.6,1517.3,537z"/>
			<path class="st2" d="M1504.4,626.9c-0.3-0.9-1.1-1.5-2-1.5l-8-0.6l-3-7.5c-0.3-0.8-1.1-1.4-2.1-1.4l0,0c-0.9,0-1.7,0.6-2.1,1.4
				l-3,7.5l-8,0.5c-0.9,0.1-1.7,0.7-2,1.5c-0.3,0.9,0,1.8,0.7,2.4l6.1,5.2l-1.8,7.2c-0.3,1,0.1,2,0.9,2.6c0.8,0.6,1.9,0.6,2.7,0.1
				l6.3-4h0l6.8,4.3c0.3,0.2,0.8,0.3,1.2,0.4c1.2,0,2.2-1,2.2-2.2c0-0.2,0-0.4-0.1-0.6l-1.9-7.8l6.1-5.1
				C1504.4,628.8,1504.7,627.8,1504.4,626.9z"/>
			<path class="st2" d="M1369.9,510.2c-0.4-0.7-1.1-1.1-1.8-1.1l-17.4-0.7l-2.5-21c-0.1-1-0.9-1.8-1.9-2c-1-0.2-2,0.3-2.4,1.3
				l-19.6,42.1c-0.3,0.7-0.3,1.5,0.1,2.1c0.4,0.6,1.1,1.1,1.8,1.1l17.4,0.7l2.5,21c0.1,1,0.9,1.8,1.9,2c0.4,0.1,0.7,0,1.1-0.1
				c0.6-0.2,1.1-0.6,1.3-1.2l19.6-42.1C1370.4,511.7,1370.3,510.9,1369.9,510.2z"/>
			<path class="st2" d="M1416.2,660.1c-0.2-0.8-0.7-1.4-1.5-1.7l-16.7-6.3l4.2-21.3c0.2-1-0.3-2-1.2-2.5c-0.9-0.5-2-0.3-2.8,0.5
				l-32.5,34.8c-0.5,0.6-0.8,1.4-0.6,2.1c0.2,0.8,0.7,1.4,1.5,1.7l16.7,6.3l-4.2,21.3c-0.2,1,0.3,2,1.2,2.5c0.3,0.2,0.7,0.3,1.1,0.3
				c0.6,0,1.2-0.3,1.7-0.7l32.5-34.8C1416.1,661.7,1416.3,660.9,1416.2,660.1z"/>
			<path class="st2" d="M1477.7,475.4c-0.1-0.4-0.4-0.7-0.7-0.8l-8.4-3.1l2.1-10.6c0.1-0.5-0.1-1-0.6-1.3c-0.5-0.2-1-0.1-1.4,0.2
				l-16.2,17.4c-0.3,0.3-0.4,0.7-0.3,1.1c0.1,0.4,0.4,0.7,0.7,0.8l8.4,3.1l-2.1,10.6c-0.1,0.5,0.1,1,0.6,1.3
				c0.2,0.1,0.4,0.1,0.5,0.1c0.3,0,0.6-0.1,0.8-0.4l16.2-17.4C1477.7,476.2,1477.8,475.8,1477.7,475.4z"/>
			<path class="st2" d="M1308.4,435.2c-0.1-0.3-0.2-0.5-0.5-0.6l-5.7-2.1l1.5-7.3c0.1-0.3-0.1-0.7-0.4-0.9c-0.3-0.2-0.7-0.1-0.9,0.2
				l-11.1,11.9c-0.2,0.2-0.3,0.5-0.2,0.7c0.1,0.3,0.2,0.5,0.5,0.6l5.7,2.1l-1.5,7.3c-0.1,0.3,0.1,0.7,0.4,0.9
				c0.1,0.1,0.2,0.1,0.4,0.1c0.2,0,0.4-0.1,0.6-0.2l11.1-11.9C1308.4,435.7,1308.5,435.4,1308.4,435.2z"/>
		</g>
		<g id="_x3C_Grid_Repeat_x3E__00000140707045712179493060000005998014760697012914_">
			<path class="st2" d="M20,839.4c-0.9-1.1-2.3-1.6-3.7-1.2l-12.2,3.4l-8.3-9.5c-0.9-1.1-2.4-1.5-3.8-1l0,0
				c-1.3,0.5-2.3,1.7-2.3,3.2l-0.5,12.7l-11.5,4.9c-1.3,0.6-2.2,1.9-2.1,3.3c0,1.5,1,2.7,2.3,3.2l11.8,4.5l1.1,11.6
				c0.1,1.6,1.2,3,2.8,3.4c1.5,0.4,3.1-0.1,4.1-1.3l7.3-9.2l0,0l12.3,2.8c0.6,0.2,1.3,0.1,1.9-0.1c1.8-0.7,2.8-2.7,2.1-4.5
				c-0.1-0.3-0.2-0.5-0.4-0.8l-7-10.6l6.4-10.7C20.9,842.2,20.8,840.6,20,839.4z"/>
			<path class="st2" d="M107.3,824.7c-0.2-0.5-0.7-0.9-1.2-1l-5-0.3l-1.8-4.6c-0.2-0.5-0.7-0.9-1.3-0.9l0,0c-0.6,0-1.1,0.3-1.3,0.9
				l-1.9,4.7l-4.9,0.3c-0.6,0-1,0.4-1.2,1c-0.2,0.5,0,1.1,0.4,1.5l3.8,3.2l-1.1,4.4c-0.2,0.6,0.1,1.3,0.6,1.6
				c0.5,0.4,1.2,0.4,1.7,0.1l3.9-2.5h0l4.2,2.7c0.2,0.1,0.5,0.2,0.7,0.2c0.8,0,1.4-0.6,1.4-1.4c0-0.1,0-0.2,0-0.3l-1.2-4.9l3.8-3.1
				C107.3,825.9,107.5,825.3,107.3,824.7z"/>
			<path class="st2" d="M94.4,914.6c-0.3-0.9-1.1-1.5-2-1.5l-8-0.6l-3-7.5c-0.3-0.8-1.1-1.4-2.1-1.4l0,0c-0.9,0-1.7,0.6-2.1,1.4
				l-3,7.5l-8,0.5c-0.9,0.1-1.7,0.7-2,1.5c-0.3,0.9,0,1.8,0.7,2.4l6.1,5.2l-1.8,7.2c-0.3,1,0.1,2,0.9,2.6c0.8,0.6,1.9,0.6,2.7,0.1
				l6.3-4h0l6.8,4.3c0.3,0.2,0.8,0.3,1.2,0.4c1.2,0,2.2-1,2.2-2.2c0-0.2,0-0.4-0.1-0.6l-1.9-7.8l6.1-5.1
				C94.4,916.5,94.7,915.5,94.4,914.6z"/>
			<path class="st2" d="M-40.1,797.9c-0.4-0.7-1.1-1.1-1.8-1.1l-17.4-0.7l-2.5-21c-0.1-1-0.9-1.8-1.9-2c-1-0.2-2,0.3-2.4,1.3
				l-19.6,42.1c-0.3,0.7-0.3,1.5,0.1,2.1c0.4,0.6,1.1,1.1,1.8,1.1l17.4,0.7l2.5,21c0.1,1,0.9,1.8,1.9,2c0.4,0.1,0.7,0,1.1-0.1
				c0.6-0.2,1.1-0.6,1.3-1.2L-40,800C-39.6,799.3-39.7,798.5-40.1,797.9z"/>
			<path class="st2" d="M6.2,947.8c-0.2-0.8-0.7-1.4-1.5-1.7l-16.7-6.3l4.2-21.3c0.2-1-0.3-2-1.2-2.5c-0.9-0.5-2-0.3-2.8,0.5
				l-32.5,34.8c-0.5,0.6-0.8,1.4-0.6,2.1c0.2,0.8,0.7,1.4,1.5,1.7l16.7,6.3l-4.2,21.3c-0.2,1,0.3,2,1.2,2.5c0.3,0.2,0.7,0.3,1.1,0.3
				c0.6,0,1.2-0.3,1.7-0.7l32.5-34.8C6.1,949.4,6.3,948.6,6.2,947.8z"/>
			<path class="st2" d="M67.7,763.1c-0.1-0.4-0.4-0.7-0.7-0.8l-8.4-3.1l2.1-10.6c0.1-0.5-0.1-1-0.6-1.3c-0.5-0.2-1-0.1-1.4,0.2
				l-16.2,17.4c-0.3,0.3-0.4,0.7-0.3,1.1c0.1,0.4,0.4,0.7,0.7,0.8l8.4,3.1l-2.1,10.6c-0.1,0.5,0.1,1,0.6,1.3
				c0.2,0.1,0.4,0.1,0.5,0.1c0.3,0,0.6-0.1,0.8-0.4l16.2-17.4C67.7,763.9,67.8,763.5,67.7,763.1z"/>
			<path class="st2" d="M-101.6,722.8c-0.1-0.3-0.2-0.5-0.5-0.6l-5.7-2.1l1.5-7.3c0.1-0.3-0.1-0.7-0.4-0.9c-0.3-0.2-0.7-0.1-0.9,0.2
				l-11.1,11.9c-0.2,0.2-0.3,0.5-0.2,0.7c0.1,0.3,0.2,0.5,0.5,0.6l5.7,2.1l-1.5,7.3c-0.1,0.3,0.1,0.7,0.4,0.9
				c0.1,0.1,0.2,0.1,0.4,0.1c0.2,0,0.4-0.1,0.6-0.2l11.1-11.9C-101.6,723.4-101.5,723.1-101.6,722.8z"/>
		</g>
		<g id="_x3C_Grid_Repeat_x3E__00000158743879220845507370000000475183183536793762_">
			<path class="st2" d="M302,839.4c-0.9-1.1-2.3-1.6-3.7-1.2l-12.2,3.4l-8.3-9.5c-0.9-1.1-2.4-1.5-3.8-1l0,0
				c-1.3,0.5-2.3,1.7-2.3,3.2l-0.5,12.7l-11.5,4.9c-1.3,0.6-2.2,1.9-2.1,3.3c0,1.5,1,2.7,2.3,3.2l11.8,4.5l1.1,11.6
				c0.1,1.6,1.2,3,2.8,3.4c1.5,0.4,3.1-0.1,4.1-1.3l7.3-9.2l0,0l12.3,2.8c0.6,0.2,1.3,0.1,1.9-0.1c1.8-0.7,2.8-2.7,2.1-4.5
				c-0.1-0.3-0.2-0.5-0.4-0.8l-7-10.6l6.4-10.7C302.9,842.2,302.8,840.6,302,839.4z"/>
			<path class="st2" d="M389.3,824.7c-0.2-0.5-0.7-0.9-1.2-1l-5-0.3l-1.8-4.6c-0.2-0.5-0.7-0.9-1.3-0.9l0,0c-0.6,0-1.1,0.3-1.3,0.9
				l-1.9,4.7l-4.9,0.3c-0.6,0-1,0.4-1.2,1c-0.2,0.5,0,1.1,0.4,1.5l3.8,3.2l-1.1,4.4c-0.2,0.6,0.1,1.3,0.6,1.6
				c0.5,0.4,1.2,0.4,1.7,0.1l3.9-2.5h0l4.2,2.7c0.2,0.1,0.5,0.2,0.7,0.2c0.8,0,1.4-0.6,1.4-1.4c0-0.1,0-0.2,0-0.3l-1.2-4.9l3.8-3.1
				C389.3,825.9,389.5,825.3,389.3,824.7z"/>
			<path class="st2" d="M376.4,914.6c-0.3-0.9-1.1-1.5-2-1.5l-8-0.6l-3-7.5c-0.3-0.8-1.1-1.4-2.1-1.4l0,0c-0.9,0-1.7,0.6-2.1,1.4
				l-3,7.5l-8,0.5c-0.9,0.1-1.7,0.7-2,1.5c-0.3,0.9,0,1.8,0.7,2.4l6.1,5.2l-1.8,7.2c-0.3,1,0.1,2,0.9,2.6c0.8,0.6,1.9,0.6,2.7,0.1
				l6.3-4h0l6.8,4.3c0.3,0.2,0.8,0.3,1.2,0.4c1.2,0,2.2-1,2.2-2.2c0-0.2,0-0.4-0.1-0.6l-1.9-7.8l6.1-5.1
				C376.4,916.5,376.7,915.5,376.4,914.6z"/>
			<path class="st2" d="M241.9,797.9c-0.4-0.7-1.1-1.1-1.8-1.1l-17.4-0.7l-2.5-21c-0.1-1-0.9-1.8-1.9-2c-1-0.2-2,0.3-2.4,1.3
				l-19.6,42.1c-0.3,0.7-0.3,1.5,0.1,2.1c0.4,0.6,1.1,1.1,1.8,1.1l17.4,0.7l2.5,21c0.1,1,0.9,1.8,1.9,2c0.4,0.1,0.7,0,1.1-0.1
				c0.6-0.2,1.1-0.6,1.3-1.2L242,800C242.4,799.3,242.3,798.5,241.9,797.9z"/>
			<path class="st2" d="M288.2,947.8c-0.2-0.8-0.7-1.4-1.5-1.7l-16.7-6.3l4.2-21.3c0.2-1-0.3-2-1.2-2.5c-0.9-0.5-2-0.3-2.8,0.5
				l-32.5,34.8c-0.5,0.6-0.8,1.4-0.6,2.1c0.2,0.8,0.7,1.4,1.5,1.7l16.7,6.3l-4.2,21.3c-0.2,1,0.3,2,1.2,2.5c0.3,0.2,0.7,0.3,1.1,0.3
				c0.6,0,1.2-0.3,1.7-0.7l32.5-34.8C288.1,949.4,288.3,948.6,288.2,947.8z"/>
			<path class="st2" d="M349.7,763.1c-0.1-0.4-0.4-0.7-0.7-0.8l-8.4-3.1l2.1-10.6c0.1-0.5-0.1-1-0.6-1.3c-0.5-0.2-1-0.1-1.4,0.2
				l-16.2,17.4c-0.3,0.3-0.4,0.7-0.3,1.1c0.1,0.4,0.4,0.7,0.7,0.8l8.4,3.1l-2.1,10.6c-0.1,0.5,0.1,1,0.6,1.3
				c0.2,0.1,0.4,0.1,0.5,0.1c0.3,0,0.6-0.1,0.8-0.4l16.2-17.4C349.7,763.9,349.8,763.5,349.7,763.1z"/>
			<path class="st2" d="M180.4,722.8c-0.1-0.3-0.2-0.5-0.5-0.6l-5.7-2.1l1.5-7.3c0.1-0.3-0.1-0.7-0.4-0.9c-0.3-0.2-0.7-0.1-0.9,0.2
				l-11.1,11.9c-0.2,0.2-0.3,0.5-0.2,0.7c0.1,0.3,0.2,0.5,0.5,0.6l5.7,2.1l-1.5,7.3c-0.1,0.3,0.1,0.7,0.4,0.9
				c0.1,0.1,0.2,0.1,0.4,0.1c0.2,0,0.4-0.1,0.6-0.2l11.1-11.9C180.4,723.4,180.5,723.1,180.4,722.8z"/>
		</g>
		<g id="_x3C_Grid_Repeat_x3E__00000111152994027320137470000016021787264221202594_">
			<path class="st2" d="M584,839.4c-0.9-1.1-2.3-1.6-3.7-1.2l-12.2,3.4l-8.3-9.5c-0.9-1.1-2.4-1.5-3.8-1l0,0
				c-1.3,0.5-2.3,1.7-2.3,3.2l-0.5,12.7l-11.5,4.9c-1.3,0.6-2.2,1.9-2.1,3.3c0,1.5,1,2.7,2.3,3.2l11.8,4.5l1.1,11.6
				c0.1,1.6,1.2,3,2.8,3.4c1.5,0.4,3.1-0.1,4.1-1.3l7.3-9.2l0,0l12.3,2.8c0.6,0.2,1.3,0.1,1.9-0.1c1.8-0.7,2.8-2.7,2.1-4.5
				c-0.1-0.3-0.2-0.5-0.4-0.8l-7-10.6l6.4-10.7C584.9,842.2,584.8,840.6,584,839.4z"/>
			<path class="st2" d="M671.3,824.7c-0.2-0.5-0.7-0.9-1.2-1l-5-0.3l-1.8-4.6c-0.2-0.5-0.7-0.9-1.3-0.9l0,0c-0.6,0-1.1,0.3-1.3,0.9
				l-1.9,4.7l-4.9,0.3c-0.6,0-1,0.4-1.2,1c-0.2,0.5,0,1.1,0.4,1.5l3.8,3.2l-1.1,4.4c-0.2,0.6,0.1,1.3,0.6,1.6
				c0.5,0.4,1.2,0.4,1.7,0.1l3.9-2.5h0l4.2,2.7c0.2,0.1,0.5,0.2,0.7,0.2c0.8,0,1.4-0.6,1.4-1.4c0-0.1,0-0.2,0-0.3l-1.2-4.9l3.8-3.1
				C671.3,825.9,671.5,825.3,671.3,824.7z"/>
			<path class="st2" d="M658.4,914.6c-0.3-0.9-1.1-1.5-2-1.5l-8-0.6l-3-7.5c-0.3-0.8-1.1-1.4-2.1-1.4l0,0c-0.9,0-1.7,0.6-2.1,1.4
				l-3,7.5l-8,0.5c-0.9,0.1-1.7,0.7-2,1.5c-0.3,0.9,0,1.8,0.7,2.4l6.1,5.2l-1.8,7.2c-0.3,1,0.1,2,0.9,2.6c0.8,0.6,1.9,0.6,2.7,0.1
				l6.3-4h0l6.8,4.3c0.3,0.2,0.8,0.3,1.2,0.4c1.2,0,2.2-1,2.2-2.2c0-0.2,0-0.4-0.1-0.6l-1.9-7.8l6.1-5.1
				C658.4,916.5,658.7,915.5,658.4,914.6z"/>
			<path class="st2" d="M523.9,797.9c-0.4-0.7-1.1-1.1-1.8-1.1l-17.4-0.7l-2.5-21c-0.1-1-0.9-1.8-1.9-2c-1-0.2-2,0.3-2.4,1.3
				l-19.6,42.1c-0.3,0.7-0.3,1.5,0.1,2.1c0.4,0.6,1.1,1.1,1.8,1.1l17.4,0.7l2.5,21c0.1,1,0.9,1.8,1.9,2c0.4,0.1,0.7,0,1.1-0.1
				c0.6-0.2,1.1-0.6,1.3-1.2L524,800C524.4,799.3,524.3,798.5,523.9,797.9z"/>
			<path class="st2" d="M570.2,947.8c-0.2-0.8-0.7-1.4-1.5-1.7l-16.7-6.3l4.2-21.3c0.2-1-0.3-2-1.2-2.5c-0.9-0.5-2-0.3-2.8,0.5
				l-32.5,34.8c-0.5,0.6-0.8,1.4-0.6,2.1c0.2,0.8,0.7,1.4,1.5,1.7l16.7,6.3l-4.2,21.3c-0.2,1,0.3,2,1.2,2.5c0.3,0.2,0.7,0.3,1.1,0.3
				c0.6,0,1.2-0.3,1.7-0.7l32.5-34.8C570.1,949.4,570.3,948.6,570.2,947.8z"/>
			<path class="st2" d="M631.7,763.1c-0.1-0.4-0.4-0.7-0.7-0.8l-8.4-3.1l2.1-10.6c0.1-0.5-0.1-1-0.6-1.3c-0.5-0.2-1-0.1-1.4,0.2
				l-16.2,17.4c-0.3,0.3-0.4,0.7-0.3,1.1c0.1,0.4,0.4,0.7,0.7,0.8l8.4,3.1l-2.1,10.6c-0.1,0.5,0.1,1,0.6,1.3
				c0.2,0.1,0.4,0.1,0.5,0.1c0.3,0,0.6-0.1,0.8-0.4l16.2-17.4C631.7,763.9,631.8,763.5,631.7,763.1z"/>
			<path class="st2" d="M462.4,722.8c-0.1-0.3-0.2-0.5-0.5-0.6l-5.7-2.1l1.5-7.3c0.1-0.3-0.1-0.7-0.4-0.9c-0.3-0.2-0.7-0.1-0.9,0.2
				l-11.1,11.9c-0.2,0.2-0.3,0.5-0.2,0.7c0.1,0.3,0.2,0.5,0.5,0.6l5.7,2.1l-1.5,7.3c-0.1,0.3,0.1,0.7,0.4,0.9
				c0.1,0.1,0.2,0.1,0.4,0.1c0.2,0,0.4-0.1,0.6-0.2l11.1-11.9C462.4,723.4,462.5,723.1,462.4,722.8z"/>
		</g>
		<g id="_x3C_Grid_Repeat_x3E__00000168080853347659548930000014103475166517105295_">
			<path class="st2" d="M866,839.4c-0.9-1.1-2.3-1.6-3.7-1.2l-12.2,3.4l-8.3-9.5c-0.9-1.1-2.4-1.5-3.8-1l0,0
				c-1.3,0.5-2.3,1.7-2.3,3.2l-0.5,12.7l-11.5,4.9c-1.3,0.6-2.2,1.9-2.1,3.3c0,1.5,1,2.7,2.3,3.2l11.8,4.5l1.1,11.6
				c0.1,1.6,1.2,3,2.8,3.4c1.5,0.4,3.1-0.1,4.1-1.3l7.3-9.2l0,0l12.3,2.8c0.6,0.2,1.3,0.1,1.9-0.1c1.8-0.7,2.8-2.7,2.1-4.5
				c-0.1-0.3-0.2-0.5-0.4-0.8l-7-10.6l6.4-10.7C866.9,842.2,866.8,840.6,866,839.4z"/>
			<path class="st2" d="M953.3,824.7c-0.2-0.5-0.7-0.9-1.2-1l-5-0.3l-1.8-4.6c-0.2-0.5-0.7-0.9-1.3-0.9l0,0c-0.6,0-1.1,0.3-1.3,0.9
				l-1.9,4.7l-4.9,0.3c-0.6,0-1,0.4-1.2,1c-0.2,0.5,0,1.1,0.4,1.5l3.8,3.2l-1.1,4.4c-0.2,0.6,0.1,1.3,0.6,1.6
				c0.5,0.4,1.2,0.4,1.7,0.1l3.9-2.5h0l4.2,2.7c0.2,0.1,0.5,0.2,0.7,0.2c0.8,0,1.4-0.6,1.4-1.4c0-0.1,0-0.2,0-0.3l-1.2-4.9l3.8-3.1
				C953.3,825.9,953.5,825.3,953.3,824.7z"/>
			<path class="st2" d="M940.4,914.6c-0.3-0.9-1.1-1.5-2-1.5l-8-0.6l-3-7.5c-0.3-0.8-1.1-1.4-2.1-1.4l0,0c-0.9,0-1.7,0.6-2.1,1.4
				l-3,7.5l-8,0.5c-0.9,0.1-1.7,0.7-2,1.5c-0.3,0.9,0,1.8,0.7,2.4l6.1,5.2l-1.8,7.2c-0.3,1,0.1,2,0.9,2.6c0.8,0.6,1.9,0.6,2.7,0.1
				l6.3-4h0l6.8,4.3c0.3,0.2,0.8,0.3,1.2,0.4c1.2,0,2.2-1,2.2-2.2c0-0.2,0-0.4-0.1-0.6l-1.9-7.8l6.1-5.1
				C940.4,916.5,940.7,915.5,940.4,914.6z"/>
			<path class="st2" d="M805.9,797.9c-0.4-0.7-1.1-1.1-1.8-1.1l-17.4-0.7l-2.5-21c-0.1-1-0.9-1.8-1.9-2c-1-0.2-2,0.3-2.4,1.3
				l-19.6,42.1c-0.3,0.7-0.3,1.5,0.1,2.1c0.4,0.6,1.1,1.1,1.8,1.1l17.4,0.7l2.5,21c0.1,1,0.9,1.8,1.9,2c0.4,0.1,0.7,0,1.1-0.1
				c0.6-0.2,1.1-0.6,1.3-1.2L806,800C806.4,799.3,806.3,798.5,805.9,797.9z"/>
			<path class="st2" d="M852.2,947.8c-0.2-0.8-0.7-1.4-1.5-1.7l-16.7-6.3l4.2-21.3c0.2-1-0.3-2-1.2-2.5c-0.9-0.5-2-0.3-2.8,0.5
				l-32.5,34.8c-0.5,0.6-0.8,1.4-0.6,2.1c0.2,0.8,0.7,1.4,1.5,1.7l16.7,6.3l-4.2,21.3c-0.2,1,0.3,2,1.2,2.5c0.3,0.2,0.7,0.3,1.1,0.3
				c0.6,0,1.2-0.3,1.7-0.7l32.5-34.8C852.1,949.4,852.3,948.6,852.2,947.8z"/>
			<path class="st2" d="M913.7,763.1c-0.1-0.4-0.4-0.7-0.7-0.8l-8.4-3.1l2.1-10.6c0.1-0.5-0.1-1-0.6-1.3c-0.5-0.2-1-0.1-1.4,0.2
				l-16.2,17.4c-0.3,0.3-0.4,0.7-0.3,1.1c0.1,0.4,0.4,0.7,0.7,0.8l8.4,3.1l-2.1,10.6c-0.1,0.5,0.1,1,0.6,1.3
				c0.2,0.1,0.4,0.1,0.5,0.1c0.3,0,0.6-0.1,0.8-0.4l16.2-17.4C913.7,763.9,913.8,763.5,913.7,763.1z"/>
			<path class="st2" d="M744.4,722.8c-0.1-0.3-0.2-0.5-0.5-0.6l-5.7-2.1l1.5-7.3c0.1-0.3-0.1-0.7-0.4-0.9c-0.3-0.2-0.7-0.1-0.9,0.2
				l-11.1,11.9c-0.2,0.2-0.3,0.5-0.2,0.7c0.1,0.3,0.2,0.5,0.5,0.6l5.7,2.1l-1.5,7.3c-0.1,0.3,0.1,0.7,0.4,0.9
				c0.1,0.1,0.2,0.1,0.4,0.1c0.2,0,0.4-0.1,0.6-0.2l11.1-11.9C744.4,723.4,744.5,723.1,744.4,722.8z"/>
		</g>
		<g id="_x3C_Grid_Repeat_x3E__00000165937431666766529200000004637593276987343525_">
			<path class="st2" d="M1148,839.4c-0.9-1.1-2.3-1.6-3.7-1.2l-12.2,3.4l-8.3-9.5c-0.9-1.1-2.4-1.5-3.8-1l0,0
				c-1.3,0.5-2.3,1.7-2.3,3.2l-0.5,12.7l-11.5,4.9c-1.3,0.6-2.2,1.9-2.1,3.3c0,1.5,1,2.7,2.3,3.2l11.8,4.5l1.1,11.6
				c0.1,1.6,1.2,3,2.8,3.4c1.5,0.4,3.1-0.1,4.1-1.3l7.3-9.2l0,0l12.3,2.8c0.6,0.2,1.3,0.1,1.9-0.1c1.8-0.7,2.8-2.7,2.1-4.5
				c-0.1-0.3-0.2-0.5-0.4-0.8l-7-10.6l6.4-10.7C1148.9,842.2,1148.8,840.6,1148,839.4z"/>
			<path class="st2" d="M1235.3,824.7c-0.2-0.5-0.7-0.9-1.2-1l-5-0.3l-1.8-4.6c-0.2-0.5-0.7-0.9-1.3-0.9l0,0c-0.6,0-1.1,0.3-1.3,0.9
				l-1.9,4.7l-4.9,0.3c-0.6,0-1,0.4-1.2,1c-0.2,0.5,0,1.1,0.4,1.5l3.8,3.2l-1.1,4.4c-0.2,0.6,0.1,1.3,0.6,1.6
				c0.5,0.4,1.2,0.4,1.7,0.1l3.9-2.5h0l4.2,2.7c0.2,0.1,0.5,0.2,0.7,0.2c0.8,0,1.4-0.6,1.4-1.4c0-0.1,0-0.2,0-0.3l-1.2-4.9l3.8-3.1
				C1235.3,825.9,1235.5,825.3,1235.3,824.7z"/>
			<path class="st2" d="M1222.4,914.6c-0.3-0.9-1.1-1.5-2-1.5l-8-0.6l-3-7.5c-0.3-0.8-1.1-1.4-2.1-1.4l0,0c-0.9,0-1.7,0.6-2.1,1.4
				l-3,7.5l-8,0.5c-0.9,0.1-1.7,0.7-2,1.5c-0.3,0.9,0,1.8,0.7,2.4l6.1,5.2l-1.8,7.2c-0.3,1,0.1,2,0.9,2.6c0.8,0.6,1.9,0.6,2.7,0.1
				l6.3-4h0l6.8,4.3c0.3,0.2,0.8,0.3,1.2,0.4c1.2,0,2.2-1,2.2-2.2c0-0.2,0-0.4-0.1-0.6l-1.9-7.8l6.1-5.1
				C1222.4,916.5,1222.7,915.5,1222.4,914.6z"/>
			<path class="st2" d="M1087.9,797.9c-0.4-0.7-1.1-1.1-1.8-1.1l-17.4-0.7l-2.5-21c-0.1-1-0.9-1.8-1.9-2c-1-0.2-2,0.3-2.4,1.3
				l-19.6,42.1c-0.3,0.7-0.3,1.5,0.1,2.1c0.4,0.6,1.1,1.1,1.8,1.1l17.4,0.7l2.5,21c0.1,1,0.9,1.8,1.9,2c0.4,0.1,0.7,0,1.1-0.1
				c0.6-0.2,1.1-0.6,1.3-1.2L1088,800C1088.4,799.3,1088.3,798.5,1087.9,797.9z"/>
			<path class="st2" d="M1134.2,947.8c-0.2-0.8-0.7-1.4-1.5-1.7l-16.7-6.3l4.2-21.3c0.2-1-0.3-2-1.2-2.5c-0.9-0.5-2-0.3-2.8,0.5
				l-32.5,34.8c-0.5,0.6-0.8,1.4-0.6,2.1c0.2,0.8,0.7,1.4,1.5,1.7l16.7,6.3l-4.2,21.3c-0.2,1,0.3,2,1.2,2.5c0.3,0.2,0.7,0.3,1.1,0.3
				c0.6,0,1.2-0.3,1.7-0.7l32.5-34.8C1134.1,949.4,1134.3,948.6,1134.2,947.8z"/>
			<path class="st2" d="M1195.7,763.1c-0.1-0.4-0.4-0.7-0.7-0.8l-8.4-3.1l2.1-10.6c0.1-0.5-0.1-1-0.6-1.3c-0.5-0.2-1-0.1-1.4,0.2
				l-16.2,17.4c-0.3,0.3-0.4,0.7-0.3,1.1c0.1,0.4,0.4,0.7,0.7,0.8l8.4,3.1l-2.1,10.6c-0.1,0.5,0.1,1,0.6,1.3
				c0.2,0.1,0.4,0.1,0.5,0.1c0.3,0,0.6-0.1,0.8-0.4l16.2-17.4C1195.7,763.9,1195.8,763.5,1195.7,763.1z"/>
			<path class="st2" d="M1026.4,722.8c-0.1-0.3-0.2-0.5-0.5-0.6l-5.7-2.1l1.5-7.3c0.1-0.3-0.1-0.7-0.4-0.9c-0.3-0.2-0.7-0.1-0.9,0.2
				l-11.1,11.9c-0.2,0.2-0.3,0.5-0.2,0.7c0.1,0.3,0.2,0.5,0.5,0.6l5.7,2.1l-1.5,7.3c-0.1,0.3,0.1,0.7,0.4,0.9
				c0.1,0.1,0.2,0.1,0.4,0.1c0.2,0,0.4-0.1,0.6-0.2l11.1-11.9C1026.4,723.4,1026.5,723.1,1026.4,722.8z"/>
		</g>
		<g id="_x3C_Grid_Repeat_x3E__00000158000161027902096630000007978195473189836973_">
			<path class="st2" d="M1430,839.4c-0.9-1.1-2.3-1.6-3.7-1.2l-12.2,3.4l-8.3-9.5c-0.9-1.1-2.4-1.5-3.8-1l0,0
				c-1.3,0.5-2.3,1.7-2.3,3.2l-0.5,12.7l-11.5,4.9c-1.3,0.6-2.2,1.9-2.1,3.3c0,1.5,1,2.7,2.3,3.2l11.8,4.5l1.1,11.6
				c0.1,1.6,1.2,3,2.8,3.4c1.5,0.4,3.1-0.1,4.1-1.3l7.3-9.2l0,0l12.3,2.8c0.6,0.2,1.3,0.1,1.9-0.1c1.8-0.7,2.8-2.7,2.1-4.5
				c-0.1-0.3-0.2-0.5-0.4-0.8l-7-10.6l6.4-10.7C1430.9,842.2,1430.8,840.6,1430,839.4z"/>
			<path class="st2" d="M1517.3,824.7c-0.2-0.5-0.7-0.9-1.2-1l-5-0.3l-1.8-4.6c-0.2-0.5-0.7-0.9-1.3-0.9l0,0c-0.6,0-1.1,0.3-1.3,0.9
				l-1.9,4.7l-4.9,0.3c-0.6,0-1,0.4-1.2,1c-0.2,0.5,0,1.1,0.4,1.5l3.8,3.2l-1.1,4.4c-0.2,0.6,0.1,1.3,0.6,1.6
				c0.5,0.4,1.2,0.4,1.7,0.1l3.9-2.5h0l4.2,2.7c0.2,0.1,0.5,0.2,0.7,0.2c0.8,0,1.4-0.6,1.4-1.4c0-0.1,0-0.2,0-0.3l-1.2-4.9l3.8-3.1
				C1517.3,825.9,1517.5,825.3,1517.3,824.7z"/>
			<path class="st2" d="M1504.4,914.6c-0.3-0.9-1.1-1.5-2-1.5l-8-0.6l-3-7.5c-0.3-0.8-1.1-1.4-2.1-1.4l0,0c-0.9,0-1.7,0.6-2.1,1.4
				l-3,7.5l-8,0.5c-0.9,0.1-1.7,0.7-2,1.5c-0.3,0.9,0,1.8,0.7,2.4l6.1,5.2l-1.8,7.2c-0.3,1,0.1,2,0.9,2.6c0.8,0.6,1.9,0.6,2.7,0.1
				l6.3-4h0l6.8,4.3c0.3,0.2,0.8,0.3,1.2,0.4c1.2,0,2.2-1,2.2-2.2c0-0.2,0-0.4-0.1-0.6l-1.9-7.8l6.1-5.1
				C1504.4,916.5,1504.7,915.5,1504.4,914.6z"/>
			<path class="st2" d="M1369.9,797.9c-0.4-0.7-1.1-1.1-1.8-1.1l-17.4-0.7l-2.5-21c-0.1-1-0.9-1.8-1.9-2c-1-0.2-2,0.3-2.4,1.3
				l-19.6,42.1c-0.3,0.7-0.3,1.5,0.1,2.1c0.4,0.6,1.1,1.1,1.8,1.1l17.4,0.7l2.5,21c0.1,1,0.9,1.8,1.9,2c0.4,0.1,0.7,0,1.1-0.1
				c0.6-0.2,1.1-0.6,1.3-1.2L1370,800C1370.4,799.3,1370.3,798.5,1369.9,797.9z"/>
			<path class="st2" d="M1416.2,947.8c-0.2-0.8-0.7-1.4-1.5-1.7l-16.7-6.3l4.2-21.3c0.2-1-0.3-2-1.2-2.5c-0.9-0.5-2-0.3-2.8,0.5
				l-32.5,34.8c-0.5,0.6-0.8,1.4-0.6,2.1c0.2,0.8,0.7,1.4,1.5,1.7l16.7,6.3l-4.2,21.3c-0.2,1,0.3,2,1.2,2.5c0.3,0.2,0.7,0.3,1.1,0.3
				c0.6,0,1.2-0.3,1.7-0.7l32.5-34.8C1416.1,949.4,1416.3,948.6,1416.2,947.8z"/>
			<path class="st2" d="M1477.7,763.1c-0.1-0.4-0.4-0.7-0.7-0.8l-8.4-3.1l2.1-10.6c0.1-0.5-0.1-1-0.6-1.3c-0.5-0.2-1-0.1-1.4,0.2
				l-16.2,17.4c-0.3,0.3-0.4,0.7-0.3,1.1c0.1,0.4,0.4,0.7,0.7,0.8l8.4,3.1l-2.1,10.6c-0.1,0.5,0.1,1,0.6,1.3
				c0.2,0.1,0.4,0.1,0.5,0.1c0.3,0,0.6-0.1,0.8-0.4l16.2-17.4C1477.7,763.9,1477.8,763.5,1477.7,763.1z"/>
			<path class="st2" d="M1308.4,722.8c-0.1-0.3-0.2-0.5-0.5-0.6l-5.7-2.1l1.5-7.3c0.1-0.3-0.1-0.7-0.4-0.9c-0.3-0.2-0.7-0.1-0.9,0.2
				l-11.1,11.9c-0.2,0.2-0.3,0.5-0.2,0.7c0.1,0.3,0.2,0.5,0.5,0.6l5.7,2.1l-1.5,7.3c-0.1,0.3,0.1,0.7,0.4,0.9
				c0.1,0.1,0.2,0.1,0.4,0.1c0.2,0,0.4-0.1,0.6-0.2l11.1-11.9C1308.4,723.4,1308.5,723.1,1308.4,722.8z"/>
		</g>
	</g>
</g>
</svg>
