<svg width="321" height="319" viewBox="0 0 321 319" fill="none" xmlns="http://www.w3.org/2000/svg">
<path d="M24.7723 15.3663C20.5385 8.70893 25.3209 0 33.2105 0H286.474C294.81 0 299.486 9.59954 294.348 16.1636L285.632 27.2997C282.841 30.8657 282.795 35.8623 285.519 39.4795L294.937 51.9838C299.9 58.5735 295.199 68 286.949 68H32.8434C25.0314 68 20.2361 59.4436 24.3139 52.7802L32.9501 38.6677C34.9431 35.4109 34.9077 31.3035 32.8587 28.0816L24.7723 15.3663Z" fill="#6B6B6B" fill-opacity="0.37"/>
<rect x="1.5" y="66.5" width="318" height="186" rx="18.5" stroke="#6B6B6B" stroke-opacity="0.37" stroke-width="3"/>
<path d="M24.7723 266.366C20.5385 259.709 25.3209 251 33.2105 251H286.474C294.81 251 299.486 260.6 294.348 267.164L285.632 278.3C282.841 281.866 282.795 286.862 285.519 290.48L294.937 302.984C299.9 309.574 295.199 319 286.949 319H32.8434C25.0314 319 20.2361 310.444 24.3139 303.78L32.9501 289.668C34.9431 286.411 34.9077 282.304 32.8587 279.082L24.7723 266.366Z" fill="#6B6B6B" fill-opacity="0.37"/>
</svg>
