<?xml version="1.0" encoding="utf-8"?>
<!-- Generator: Adobe Adobe Illustrator 24.2.0, SVG Export Plug-In . SVG Version: 6.00 Build 0)  -->
<svg version="1.1" id="Layer_1" xmlns="http://www.w3.org/2000/svg" xmlns:xlink="http://www.w3.org/1999/xlink" x="0px" y="0px"
	 width="1920px" height="350px" viewBox="0 0 1920 350" style="enable-background:new 0 0 1920 350;" xml:space="preserve">
<style type="text/css">
	.st0{fill:#17B96B;}
	.st1{fill:#F038F0;}
</style>
<g>
	<g>
		<path class="st0" d="M177.04,164.52c27.62,0,42.28,10.38,42.28,30.36c0,28.96-17.33,49.93-62.66,49.93H38l31.04-34.35h15.67h80.9
			c10.66,0,15.24-3.6,15.24-11.38c0-5.39-4-7.99-12-7.99H99.33c-5.13,0-9.75-0.4-13.89-1.17c-19.24-3.57-28.01-15.04-28.01-30.99
			c0-27.16,17.71-47.73,62.28-47.73h110.66l-31.24,34.75h-88.37c-10.67,0-15.24,3-15.24,10.99c0,5.39,4,7.59,12.19,7.59H177.04z"/>
		<path class="st0" d="M340.05,210.65h-66.66l-5.72,34.15h-39.23l11.43-68.31h109.71c13.71,0,22.09-7.39,22.09-17.78
			c0-7.79-5.9-12.78-16.95-12.78H245.01l32-34.75h79.99c35.43,0,54.85,17.38,54.85,42.94C411.86,187.29,384.24,210.65,340.05,210.65
			z"/>
		<g>
			<g>
				<path class="st0" d="M588.98,244.81l-59.24-120.83c-4.19-8.39-10.86-14.98-22.66-14.98c-12.38,0-21.33,7.19-28,14.98
					L376.99,244.81h46.66l36.14-42.92l-3.19-3.88c-1.08-1.31-1.11-3.25-0.07-4.59c4.31-5.59,15.44-19.89,22.64-28
					c7.65-8.61,14.45-10.69,20.04-12.4c9.01-2.76,28.09-7.55,29.65-4.97c1.45,2.38-4.9,20.75-8.92,29.79
					c-4.47,10.06-10.24,15.28-15.02,18.83c-6.29,4.68-23.58,15.84-29.75,19.8c-1.28,0.82-2.94,0.55-3.93-0.65l-2.62-3.19
					l-27.83,32.18H588.98z M449.51,194.01l-11.43-1.55c-1.87-0.25-2.77-2.54-1.63-4.11c4.06-5.57,13.35-16.56,28.48-16.34
					L449.51,194.01z M473.73,223.42l23-12.79c-2,15.73-13.73,23.76-19.57,27.16c-1.65,0.96-3.67-0.31-3.64-2.28L473.73,223.42z"/>
			</g>
		</g>
		<path class="st0" d="M751.23,210.45l-31.04,34.35h-64c-39.8,0-66.28-25.17-66.28-58.92c0-43.94,40-74.7,88.76-74.7h89.33
			l-31.24,34.75h-63.99c-23.43,0-43.24,15.78-43.24,36.95c0,16.58,13.14,27.56,32.38,27.56H751.23z"/>
		<path class="st0" d="M913.11,210.45l-31.24,34.35H759.22l22.66-133.61H929.3l-31.43,34.75H815.4l-2.67,15.98h100.75l-27.42,30.36
			h-78.47l-3.05,18.17H913.11z"/>
		<path class="st1" d="M1056.89,195.08c-7.81-20.57-11.05-30.56-13.71-40.15c-5.72,9.59-12.38,19.38-27.05,39.95l-26.85,37.94
			c-5.9,8.59-13.71,14.18-24,14.18c-9.9,0-17.9-5.99-19.05-18.37l-12.38-117.43h39.23l4.19,46.54c1.14,14.98,2.09,25.96,2.48,36.74
			c5.71-9.19,12-19.57,24-36.95l22.86-33.55c8.95-12.98,15.43-14.98,24.95-14.98c9.71,0,15.81,1.8,20.19,14.98l11.43,33.75
			c6.09,18.37,9.14,27.76,11.81,36.74c3.62-10.58,8.19-21.97,14.67-36.74l20-46.54h38.66l-52.95,117.43
			c-5.53,12.38-15.05,18.37-25.14,18.37s-16-5.39-19.24-14.18L1056.89,195.08z"/>
		<g>
			<g>
				<path class="st1" d="M1342.76,244.81l-59.24-120.83c-4.19-8.39-10.86-14.98-22.66-14.98c-12.38,0-21.33,7.19-28,14.98
					l-102.09,120.83h46.66l36.14-42.92l-3.19-3.88c-1.08-1.31-1.11-3.25-0.07-4.59c4.31-5.59,15.44-19.89,22.64-28
					c7.65-8.61,14.45-10.69,20.04-12.4c9.01-2.76,28.09-7.55,29.65-4.97c1.45,2.38-4.9,20.75-8.92,29.79
					c-4.47,10.06-10.24,15.28-15.02,18.83c-6.29,4.68-23.58,15.84-29.75,19.8c-1.28,0.82-2.94,0.55-3.93-0.65l-2.62-3.19
					l-27.83,32.18H1342.76z M1203.3,194.01l-11.43-1.55c-1.87-0.25-2.77-2.54-1.63-4.11c4.06-5.57,13.35-16.56,28.48-16.34
					L1203.3,194.01z M1227.51,223.42l23-12.79c-2,15.73-13.73,23.76-19.57,27.16c-1.65,0.96-3.67-0.31-3.64-2.28L1227.51,223.42z"/>
			</g>
		</g>
		<path class="st1" d="M1428.45,161.32h81.52l-14.1,83.48h-87.42c-39.8,0-66.28-25.17-66.28-58.92c0-43.94,40-74.7,88.76-74.7h91.23
			l-31.43,34.75h-65.71c-23.43,0-43.43,15.78-43.43,37.15c0,16.58,12.95,27.36,32.57,27.36h48.38l3.24-19.37h-66.09L1428.45,161.32z
			"/>
		<path class="st1" d="M1672.41,210.45l-31.24,34.35h-122.65l22.66-133.61h147.42l-31.43,34.75h-82.47l-2.67,15.98h100.75
			l-27.42,30.36h-78.47l-3.05,18.17H1672.41z"/>
		<path class="st1" d="M1860.76,244.81h-52.76l-22.48-35.35h-60.57l-5.9,35.35h-39.43l11.43-68.31h110.85
			c13.14,0,24.57-6.59,24.57-17.37c0-8.79-7.24-13.18-19.43-13.18H1696.2l31.62-34.75h81.9c26.67,0,58.28,8.59,58.28,40.54
			c0,24.17-16.57,44.54-41.14,49.53c3.62,3.39,7.62,8.19,14.67,17.57L1860.76,244.81z"/>
	</g>
	<g>
		<g>
			<path class="st0" d="M588.98,244.81l-59.24-120.83c-4.19-8.39-10.86-14.98-22.66-14.98c-12.38,0-21.33,7.19-28,14.98
				L376.99,244.81h46.66l36.14-42.92l-3.19-3.88c-1.08-1.31-1.11-3.25-0.07-4.59c4.31-5.59,15.44-19.89,22.64-28
				c7.65-8.61,14.45-10.69,20.04-12.4c9.01-2.76,28.09-7.55,29.65-4.97c1.45,2.38-4.9,20.75-8.92,29.79
				c-4.47,10.06-10.24,15.28-15.02,18.83c-6.29,4.68-23.58,15.84-29.75,19.8c-1.28,0.82-2.94,0.55-3.93-0.65l-2.62-3.19
				l-27.83,32.18H588.98z M449.51,194.01l-11.43-1.55c-1.87-0.25-2.77-2.54-1.63-4.11c4.06-5.57,13.35-16.56,28.48-16.34
				L449.51,194.01z M473.73,223.42l23-12.79c-2,15.73-13.73,23.76-19.57,27.16c-1.65,0.96-3.67-0.31-3.64-2.28L473.73,223.42z"/>
		</g>
	</g>
</g>
</svg>
