<svg id="e6U8Ifv9NjW1" xmlns="http://www.w3.org/2000/svg" xmlns:xlink="http://www.w3.org/1999/xlink" viewBox="-10 0 512 512" shape-rendering="geometricPrecision" text-rendering="geometricPrecision">
<g transform="translate(-.77845 0)">
<path d="M141.042969,426.769531c-29.433594-16.671875-54.054688-40.671875-71.464844-69.675781l-4.269531-6.980469c-2.15625-4.023437-7.125-5.601562-11.210938-3.558593-2.0625,1.054687-3.621094,2.890624-4.320312,5.097656s-.484375,4.605468.597656,6.652344l4.609375,7.605468c18.921875,31.511719,45.675781,57.59375,77.652344,75.714844.367187.207031.761719.382812,1.128906.589844l-45.183594,52.71875h-30.21875c-4.710937,0-8.53125,3.820312-8.53125,8.53125c0,4.714844,3.820313,8.535156,8.53125,8.535156h85.335938c4.710937,0,8.53125-3.820312,8.53125-8.535156c0-4.710938-3.820313-8.53125-8.53125-8.53125h-32.660157l38.402344-44.835938c27.734375,12.414063,57.738282,18.964844,88.121094,19.234375c28.148438.003907,56.019531-5.566406,82.007812-16.382812l35.984376,41.984375h-32.65625c-4.714844,0-8.535157,3.820312-8.535157,8.53125c0,4.714844,3.820313,8.535156,8.535157,8.535156h85.332031c4.714843,0,8.535156-3.820312,8.535156-8.535156c0-4.710938-3.820313-8.53125-8.535156-8.53125h-30.214844l-42.394531-49.492188c33.082031-17.125,61.109375-42.605468,81.296875-73.917968c2.410156-3.949219,1.230469-9.105469-2.660157-11.613282-3.886718-2.511718-9.070312-1.460937-11.675781,2.363282-36.0625,56.175781-98.265625,90.097656-165.019531,89.992187-33.8125-.199219-67.019531-8.972656-96.519531-25.496094Zm0,0" fill="#048abf"/>
<path d="M52.253906,320.179688c-.816406-2.058594-2.371094-3.738282-4.359375-4.710938l-1.476562-.589844c-.535157-.167968-1.09375-.261718-1.65625-.28125-.527344-.09375-1.066407-.109375-1.59375-.042968-.578125.066406-1.148438.175781-1.707031.324218-2.1875.6875-4.023438,2.191406-5.121094,4.199219-.453125,1.035156-.699219,2.148437-.71875,3.277344-.078125,3.535156,1.859375,6.8125,5.003906,8.4375c2.066406.886719,4.394531.949219,6.507812.171875c2.089844-.867188,3.796876-2.453125,4.8125-4.472656.910157-1.984376,1.019532-4.246094.308594-6.3125Zm0,0" fill="#048abf"/>
<path d="M24.230469,256l.851562,17.75c.449219,5.90625,1.207031,11.785156,2.273438,17.613281.269531,2.277344,1.492187,4.339844,3.359375,5.671875c1.871094,1.332032,4.214844,1.816406,6.460937,1.332032c4.503907-1,7.53125-5.234376,7.015625-9.820313-.992187-5.363281-1.691406-10.777344-2.101562-16.214844L41.296875,256c0-108.394531,87.871094-196.265625,196.265625-196.265625c108.398438,0,196.269531,87.871094,196.269531,196.265625c0,2.742188-.058593,5.46875-.171875,8.183594-.09375,2.261718.714844,4.46875,2.246094,6.136718c1.535156,1.664063,3.667969,2.652344,5.929688,2.746094h.355468c4.582032.003906,8.347656-3.609375,8.535156-8.183594.109376-2.910156.171876-5.90625.171876-8.882812c0-117.820312-95.515626-213.332031-213.335938-213.332031s-213.332031,95.511719-213.332031,213.332031Zm0,0" fill="#048abf"/>
<g id="e6U8Ifv9NjW6" transform="translate(0 0.000001)">
<path d="M237.5625,435.199219c14.140625,0,25.601562-11.460938,25.601562-25.597657C263.164062,395.460938,251.703125,384,237.5625,384c-14.136719,0-25.597656,11.460938-25.597656,25.601562c0,14.136719,11.460937,25.597657,25.597656,25.597657Zm0-34.132813c4.714844,0,8.535156,3.820313,8.535156,8.535156c0,4.710938-3.820312,8.53125-8.535156,8.53125-4.710938,0-8.53125-3.820312-8.53125-8.53125c0-4.714843,3.820312-8.535156,8.53125-8.535156Zm0,0" fill="#048abf"/>
<path id="e6U8Ifv9NjW8" d="M143.699219,384c0,14.136719,11.460937,25.601562,25.597656,25.601562c14.140625,0,25.601563-11.464843,25.601563-25.601562s-11.460938-25.601562-25.601563-25.601562c-14.136719,0-25.597656,11.464843-25.597656,25.601562Zm34.132812,0c0,4.710938-3.820312,8.535156-8.535156,8.535156-4.710937,0-8.53125-3.824218-8.53125-8.535156s3.820313-8.535156,8.53125-8.535156c4.714844,0,8.535156,3.824218,8.535156,8.535156Zm0,0" transform="translate(-24.728157 16.985826)" fill="#048abf"/>
<path id="e6U8Ifv9NjW9" d="M237.5625,366.933594c14.140625,0,25.601562-11.460938,25.601562-25.601563c0-14.136719-11.460937-25.597656-25.601562-25.597656-14.136719,0-25.597656,11.460937-25.597656,25.597656c0,14.140625,11.460937,25.601563,25.597656,25.601563Zm0-34.132813c4.714844,0,8.535156,3.820313,8.535156,8.53125c0,4.714844-3.820312,8.535157-8.535156,8.535157-4.710938,0-8.53125-3.820313-8.53125-8.535157c0-4.710937,3.820312-8.53125,8.53125-8.53125Zm0,0" fill="#048abf"/>
<path id="e6U8Ifv9NjW10" d="M331.429688,384c0-14.136719-11.460938-25.601562-25.597657-25.601562-14.140625,0-25.601562,11.464843-25.601562,25.601562s11.460937,25.601562,25.601562,25.601562c14.136719,0,25.597657-11.464843,25.597657-25.601562Zm-34.132813,0c0-4.710938,3.820313-8.535156,8.535156-8.535156c4.710938,0,8.53125,3.824218,8.53125,8.535156s-3.820312,8.535156-8.53125,8.535156c-4.714843,0-8.535156-3.824218-8.535156-8.535156Zm0,0" fill="#048abf"/>
<path id="e6U8Ifv9NjW11" d="M83.964844,332.800781c0,14.136719,11.460937,25.597657,25.597656,25.597657c14.140625,0,25.601562-11.460938,25.601562-25.597657c0-14.140625-11.460937-25.601562-25.601562-25.601562-14.136719,0-25.597656,11.460937-25.597656,25.601562Zm34.132812,0c0,4.710938-3.820312,8.53125-8.535156,8.53125-4.710938,0-8.53125-3.820312-8.53125-8.53125c0-4.714843,3.820312-8.535156,8.53125-8.535156c4.714844,0,8.535156,3.820313,8.535156,8.535156Zm0,0" fill="#048abf"/>
<path d="M135.164062,204.800781c-14.136718,0-25.601562,11.460938-25.601562,25.597657C109.5625,244.539062,121.027344,256,135.164062,256s25.601563-11.460938,25.601563-25.601562c0-14.136719-11.464844-25.597657-25.601563-25.597657Zm0,34.132813c-4.714843,0-8.535156-3.820313-8.535156-8.535156c0-4.710938,3.820313-8.53125,8.535156-8.53125c4.710938,0,8.535157,3.820312,8.535157,8.53125c0,4.714843-3.824219,8.535156-8.535157,8.535156Zm0,0" transform="translate(.000001 0)" fill="#048abf"/>
<path id="e6U8Ifv9NjW13" d="M203.429688,315.734375c0-14.140625-11.460938-25.601563-25.597657-25.601563-14.140625,0-25.601562,11.460938-25.601562,25.601563c0,14.136719,11.460937,25.597656,25.601562,25.597656c14.136719,0,25.597657-11.460937,25.597657-25.597656Zm-25.597657,8.53125c-4.714843,0-8.535156-3.820313-8.535156-8.53125c0-4.714844,3.820313-8.535156,8.535156-8.535156c4.710938,0,8.53125,3.820312,8.53125,8.535156c0,4.710937-3.820312,8.53125-8.53125,8.53125Zm0,0" fill="#048abf"/>
<path id="e6U8Ifv9NjW14" d="M322.898438,179.199219c0,14.140625,11.460937,25.601562,25.597656,25.601562c14.140625,0,25.601562-11.460937,25.601562-25.601562c0-14.136719-11.460937-25.597657-25.601562-25.597657-14.136719,0-25.597656,11.460938-25.597656,25.597657Zm34.132812,0c0,4.714843-3.820312,8.535156-8.535156,8.535156-4.710938,0-8.53125-3.820313-8.53125-8.535156c0-4.710938,3.820312-8.53125,8.53125-8.53125c4.714844,0,8.535156,3.820312,8.535156,8.53125Zm0,0" transform="translate(-24.528804 31.596484)" fill="#f2d230"/>
<path d="M229.03125,162.132812c14.136719,0,25.597656-11.460937,25.597656-25.597656c0-14.140625-11.460937-25.601562-25.597656-25.601562-14.140625,0-25.601562,11.460937-25.601562,25.601562c0,14.136719,11.460937,25.597656,25.601562,25.597656Zm0-34.132812c4.710938,0,8.53125,3.820312,8.53125,8.535156c0,4.710938-3.820312,8.53125-8.53125,8.53125-4.714844,0-8.535156-3.820312-8.535156-8.53125c0-4.714844,3.820312-8.535156,8.535156-8.535156Zm0,0" fill="#048abf"/>
</g>
<g id="e6U8Ifv9NjW16" transform="matrix(.748814-.662781 0.662781 0.748814-111.462897 217.893828)">
<path d="M237.5625,230.398438c4.492188-.003907,8.90625,1.171874,12.800781,3.414062c4.054688,2.121094,9.054688.667969,11.34375-3.289062c2.289063-3.960938,1.050781-9.019532-2.808593-11.472657C240.042969,208.140625,216,213.183594,203.117188,230.75c-12.878907,17.566406-10.460938,42.015625,5.617187,56.714844C224.808594,302.164062,249.375,302.394531,265.722656,288c2.289063-2.015625,3.324219-5.101562,2.722656-8.089844-.605468-2.988281-2.757812-5.425781-5.644531-6.398437-2.890625-.972657-6.078125-.328125-8.367187,1.6875-8.546875,7.539062-21.046875,8.519531-30.664063,2.40625s-14.035156-17.847657-10.839843-28.785157c3.195312-10.941406,13.238281-18.449218,24.632812-18.421874Zm0,0" fill="#048abf"/>
<path d="M459.429688,290.132812c-15.515626.058594-29.042969,10.574219-32.921876,25.601563h-62.410156c0,0-4.433594-.902344-6.035156-2.5L299.796875,254.96875c-4.789063-4.816406-11.304687-7.519531-18.097656-7.503906h-44.136719c-4.710938,0-8.53125,3.824218-8.53125,8.535156s3.820312,8.535156,8.53125,8.535156h44.136719c2.261719,0,4.433593.898438,6.03125,2.5l58.265625,58.265625c4.789062,4.816407,11.308594,7.519531,18.101562,7.5h62.410156c4.464844,17.128907,21.304688,27.988281,38.753907,24.984375c17.445312-3,29.6875-18.867187,28.167969-36.503906s-16.296876-31.175781-34-31.148438Zm0,51.199219c-9.425782,0-17.066407-7.640625-17.066407-17.066406s7.640625-17.066406,17.066407-17.066406s17.066406,7.640625,17.066406,17.066406-7.640625,17.066406-17.066406,17.066406Zm0,0" fill="#048abf"/>
</g>
<g id="e6U8Ifv9NjW19" transform="matrix(.999795-.020234 0.020234 0.999795-5.038203 4.85834)">
<path d="M118.097656,47.785156c1.4375.003906,2.855469-.363281,4.113282-1.066406C157.546875,27.265625,197.226562,17.066406,237.5625,17.066406c4.714844,0,8.535156-3.820312,8.535156-8.53125C246.097656,3.820312,242.277344,0,237.5625,0c-43.214844-.003906-85.726562,10.921875-123.585938,31.761719-3.433593,1.871093-5.152343,5.832031-4.179687,9.617187s4.390625,6.425782,8.300781,6.40625Zm0,0" fill="#048abf"/>
<path d="M5.277344,170.027344c1.027344.425781,2.128906.644531,3.242187.640625c3.460938,0,6.578125-2.089844,7.894531-5.292969c8.058594-19.636719,18.703126-38.109375,31.648438-54.929688c2.777344-3.738281,2.042969-9.015624-1.652344-11.851562s-8.980468-2.1875-11.878906,1.460938c-13.871094,18.03125-25.273438,37.832031-33.902344,58.878906-1.765625,4.347656.3125,9.300781,4.648438,11.09375Zm0,0" fill="#048abf"/>
<path d="M394.109375,436.515625c-2.414063,1.964844-3.5625,5.085937-3.003906,8.148437.558593,3.058594,2.738281,5.574219,5.691406,6.558594c2.949219.984375,6.203125.289063,8.488281-1.824218c12.992188-11.273438,24.820313-23.820313,35.3125-37.453126c2.777344-3.738281,2.039063-9.015624-1.65625-11.851562-3.691406-2.835938-8.980468-2.1875-11.878906,1.460938-9.789062,12.722656-20.832031,24.433593-32.953125,34.960937Zm0,0" fill="#048abf"/>
</g>
</g>
<script>
<![CDATA[!function(t,n){"object"==typeof exports&&"undefined"!=typeof module?module.exports=n():"function"==typeof define&&define.amd?define(n):((t="undefined"!=typeof globalThis?globalThis:t||self).__SVGATOR_PLAYER__=t.__SVGATOR_PLAYER__||{},t.__SVGATOR_PLAYER__["5c7f360c"]=n())}(this,(function(){"use strict";function t(t,n){var r=Object.keys(t);if(Object.getOwnPropertySymbols){var e=Object.getOwnPropertySymbols(t);n&&(e=e.filter((function(n){return Object.getOwnPropertyDescriptor(t,n).enumerable}))),r.push.apply(r,e)}return r}function n(n){for(var r=1;r<arguments.length;r++){var e=null!=arguments[r]?arguments[r]:{};r%2?t(Object(e),!0).forEach((function(t){u(n,t,e[t])})):Object.getOwnPropertyDescriptors?Object.defineProperties(n,Object.getOwnPropertyDescriptors(e)):t(Object(e)).forEach((function(t){Object.defineProperty(n,t,Object.getOwnPropertyDescriptor(e,t))}))}return n}function r(t){return(r="function"==typeof Symbol&&"symbol"==typeof Symbol.iterator?function(t){return typeof t}:function(t){return t&&"function"==typeof Symbol&&t.constructor===Symbol&&t!==Symbol.prototype?"symbol":typeof t})(t)}function e(t,n){if(!(t instanceof n))throw new TypeError("Cannot call a class as a function")}function i(t,n){for(var r=0;r<n.length;r++){var e=n[r];e.enumerable=e.enumerable||!1,e.configurable=!0,"value"in e&&(e.writable=!0),Object.defineProperty(t,e.key,e)}}function o(t,n,r){return n&&i(t.prototype,n),r&&i(t,r),t}function u(t,n,r){return n in t?Object.defineProperty(t,n,{value:r,enumerable:!0,configurable:!0,writable:!0}):t[n]=r,t}function a(t){return(a=Object.setPrototypeOf?Object.getPrototypeOf:function(t){return t.__proto__||Object.getPrototypeOf(t)})(t)}function l(t,n){return(l=Object.setPrototypeOf||function(t,n){return t.__proto__=n,t})(t,n)}function f(){if("undefined"==typeof Reflect||!Reflect.construct)return!1;if(Reflect.construct.sham)return!1;if("function"==typeof Proxy)return!0;try{return Boolean.prototype.valueOf.call(Reflect.construct(Boolean,[],(function(){}))),!0}catch(t){return!1}}function s(t,n,r){return(s=f()?Reflect.construct:function(t,n,r){var e=[null];e.push.apply(e,n);var i=new(Function.bind.apply(t,e));return r&&l(i,r.prototype),i}).apply(null,arguments)}function c(t,n){if(n&&("object"==typeof n||"function"==typeof n))return n;if(void 0!==n)throw new TypeError("Derived constructors may only return object or undefined");return function(t){if(void 0===t)throw new ReferenceError("this hasn't been initialised - super() hasn't been called");return t}(t)}function h(t,n,r){return(h="undefined"!=typeof Reflect&&Reflect.get?Reflect.get:function(t,n,r){var e=function(t,n){for(;!Object.prototype.hasOwnProperty.call(t,n)&&null!==(t=a(t)););return t}(t,n);if(e){var i=Object.getOwnPropertyDescriptor(e,n);return i.get?i.get.call(r):i.value}})(t,n,r||t)}function v(t){return function(t){if(Array.isArray(t))return y(t)}(t)||function(t){if("undefined"!=typeof Symbol&&null!=t[Symbol.iterator]||null!=t["@@iterator"])return Array.from(t)}(t)||function(t,n){if(!t)return;if("string"==typeof t)return y(t,n);var r=Object.prototype.toString.call(t).slice(8,-1);"Object"===r&&t.constructor&&(r=t.constructor.name);if("Map"===r||"Set"===r)return Array.from(t);if("Arguments"===r||/^(?:Ui|I)nt(?:8|16|32)(?:Clamped)?Array$/.test(r))return y(t,n)}(t)||function(){throw new TypeError("Invalid attempt to spread non-iterable instance.\nIn order to be iterable, non-array objects must have a [Symbol.iterator]() method.")}()}function y(t,n){(null==n||n>t.length)&&(n=t.length);for(var r=0,e=new Array(n);r<n;r++)e[r]=t[r];return e}Number.isInteger||(Number.isInteger=function(t){return"number"==typeof t&&isFinite(t)&&Math.floor(t)===t}),Number.EPSILON||(Number.EPSILON=2220446049250313e-31);var g=p(Math.pow(10,-6));function p(t){var n=arguments.length>1&&void 0!==arguments[1]?arguments[1]:6;if(Number.isInteger(t))return t;var r=Math.pow(10,n);return Math.round((+t+Number.EPSILON)*r)/r}function d(t,n){var r=arguments.length>2&&void 0!==arguments[2]?arguments[2]:g;return Math.abs(t-n)<r}var m=Math.PI/180;function b(t){return t}function w(t,n,r){var e=1-r;return 3*r*e*(t*e+n*r)+r*r*r}function x(){var t=arguments.length>0&&void 0!==arguments[0]?arguments[0]:0,n=arguments.length>1&&void 0!==arguments[1]?arguments[1]:0,r=arguments.length>2&&void 0!==arguments[2]?arguments[2]:1,e=arguments.length>3&&void 0!==arguments[3]?arguments[3]:1;return t<0||t>1||r<0||r>1?null:d(t,n)&&d(r,e)?b:function(i){if(i<=0)return t>0?i*n/t:0===n&&r>0?i*e/r:0;if(i>=1)return r<1?1+(i-1)*(e-1)/(r-1):1===r&&t<1?1+(i-1)*(n-1)/(t-1):1;for(var o,u=0,a=1;u<a;){var l=w(t,r,o=(u+a)/2);if(d(i,l))break;l<i?u=o:a=o}return w(n,e,o)}}function A(){return 1}function k(t){return 1===t?1:0}function _(){var t=arguments.length>0&&void 0!==arguments[0]?arguments[0]:1,n=arguments.length>1&&void 0!==arguments[1]?arguments[1]:0;if(1===t){if(0===n)return k;if(1===n)return A}var r=1/t;return function(t){return t>=1?1:(t+=n*r)-t%r}}var S=Math.sin,O=Math.cos,j=Math.acos,M=Math.asin,P=Math.tan,E=Math.atan2,I=Math.PI/180,R=180/Math.PI,F=Math.sqrt,N=function(){function t(){var n=arguments.length>0&&void 0!==arguments[0]?arguments[0]:1,r=arguments.length>1&&void 0!==arguments[1]?arguments[1]:0,i=arguments.length>2&&void 0!==arguments[2]?arguments[2]:0,o=arguments.length>3&&void 0!==arguments[3]?arguments[3]:1,u=arguments.length>4&&void 0!==arguments[4]?arguments[4]:0,a=arguments.length>5&&void 0!==arguments[5]?arguments[5]:0;e(this,t),this.m=[n,r,i,o,u,a],this.i=null,this.w=null,this.s=null}return o(t,[{key:"determinant",get:function(){var t=this.m;return t[0]*t[3]-t[1]*t[2]}},{key:"isIdentity",get:function(){if(null===this.i){var t=this.m;this.i=1===t[0]&&0===t[1]&&0===t[2]&&1===t[3]&&0===t[4]&&0===t[5]}return this.i}},{key:"point",value:function(t,n){var r=this.m;return{x:r[0]*t+r[2]*n+r[4],y:r[1]*t+r[3]*n+r[5]}}},{key:"translateSelf",value:function(){var t=arguments.length>0&&void 0!==arguments[0]?arguments[0]:0,n=arguments.length>1&&void 0!==arguments[1]?arguments[1]:0;if(!t&&!n)return this;var r=this.m;return r[4]+=r[0]*t+r[2]*n,r[5]+=r[1]*t+r[3]*n,this.w=this.s=this.i=null,this}},{key:"rotateSelf",value:function(){var t=arguments.length>0&&void 0!==arguments[0]?arguments[0]:0;if(t%=360){var n=S(t*=I),r=O(t),e=this.m,i=e[0],o=e[1];e[0]=i*r+e[2]*n,e[1]=o*r+e[3]*n,e[2]=e[2]*r-i*n,e[3]=e[3]*r-o*n,this.w=this.s=this.i=null}return this}},{key:"scaleSelf",value:function(){var t=arguments.length>0&&void 0!==arguments[0]?arguments[0]:1,n=arguments.length>1&&void 0!==arguments[1]?arguments[1]:1;if(1!==t||1!==n){var r=this.m;r[0]*=t,r[1]*=t,r[2]*=n,r[3]*=n,this.w=this.s=this.i=null}return this}},{key:"skewSelf",value:function(t,n){if(n%=360,(t%=360)||n){var r=this.m,e=r[0],i=r[1],o=r[2],u=r[3];t&&(t=P(t*I),r[2]+=e*t,r[3]+=i*t),n&&(n=P(n*I),r[0]+=o*n,r[1]+=u*n),this.w=this.s=this.i=null}return this}},{key:"resetSelf",value:function(){var t=arguments.length>0&&void 0!==arguments[0]?arguments[0]:1,n=arguments.length>1&&void 0!==arguments[1]?arguments[1]:0,r=arguments.length>2&&void 0!==arguments[2]?arguments[2]:0,e=arguments.length>3&&void 0!==arguments[3]?arguments[3]:1,i=arguments.length>4&&void 0!==arguments[4]?arguments[4]:0,o=arguments.length>5&&void 0!==arguments[5]?arguments[5]:0,u=this.m;return u[0]=t,u[1]=n,u[2]=r,u[3]=e,u[4]=i,u[5]=o,this.w=this.s=this.i=null,this}},{key:"recomposeSelf",value:function(){var t=arguments.length>0&&void 0!==arguments[0]?arguments[0]:null,n=arguments.length>1&&void 0!==arguments[1]?arguments[1]:null,r=arguments.length>2&&void 0!==arguments[2]?arguments[2]:null,e=arguments.length>3&&void 0!==arguments[3]?arguments[3]:null,i=arguments.length>4&&void 0!==arguments[4]?arguments[4]:null;return this.isIdentity||this.resetSelf(),t&&(t.x||t.y)&&this.translateSelf(t.x,t.y),n&&this.rotateSelf(n),r&&(r.x&&this.skewSelf(r.x,0),r.y&&this.skewSelf(0,r.y)),!e||1===e.x&&1===e.y||this.scaleSelf(e.x,e.y),i&&(i.x||i.y)&&this.translateSelf(i.x,i.y),this}},{key:"decompose",value:function(){var t=arguments.length>0&&void 0!==arguments[0]?arguments[0]:0,n=arguments.length>1&&void 0!==arguments[1]?arguments[1]:0,r=this.m,e=r[0]*r[0]+r[1]*r[1],i=[[r[0],r[1]],[r[2],r[3]]],o=F(e);if(0===o)return{origin:{x:p(r[4]),y:p(r[5])},translate:{x:p(t),y:p(n)},scale:{x:0,y:0},skew:{x:0,y:0},rotate:0};i[0][0]/=o,i[0][1]/=o;var u=r[0]*r[3]-r[1]*r[2]<0;u&&(o=-o);var a=i[0][0]*i[1][0]+i[0][1]*i[1][1];i[1][0]-=i[0][0]*a,i[1][1]-=i[0][1]*a;var l=F(i[1][0]*i[1][0]+i[1][1]*i[1][1]);if(0===l)return{origin:{x:p(r[4]),y:p(r[5])},translate:{x:p(t),y:p(n)},scale:{x:p(o),y:0},skew:{x:0,y:0},rotate:0};i[1][0]/=l,i[1][1]/=l,a/=l;var f=0;return i[1][1]<0?(f=j(i[1][1])*R,i[0][1]<0&&(f=360-f)):f=M(i[0][1])*R,u&&(f=-f),a=E(a,F(i[0][0]*i[0][0]+i[0][1]*i[0][1]))*R,u&&(a=-a),{origin:{x:p(r[4]),y:p(r[5])},translate:{x:p(t),y:p(n)},scale:{x:p(o),y:p(l)},skew:{x:p(a),y:0},rotate:p(f)}}},{key:"clone",value:function(){var t=this.m;return new this.constructor(t[0],t[1],t[2],t[3],t[4],t[5])}},{key:"toString",value:function(){var t=arguments.length>0&&void 0!==arguments[0]?arguments[0]:" ";if(null===this.s){var n=this.m.map((function(t){return p(t)}));1===n[0]&&0===n[1]&&0===n[2]&&1===n[3]?this.s="translate("+n[4]+t+n[5]+")":this.s="matrix("+n.join(t)+")"}return this.s}}],[{key:"create",value:function(t){return t?Array.isArray(t)?s(this,v(t)):t instanceof this?t.clone():(new this).recomposeSelf(t.origin,t.rotate,t.skew,t.scale,t.translate):new this}}]),t}();function T(t,n,r){return t>=.5?r:n}function q(t,n,r){return 0===t||n===r?n:t*(r-n)+n}function B(t,n,r){var e=q(t,n,r);return e<=0?0:e}function L(t,n,r){var e=q(t,n,r);return e<=0?0:e>=1?1:e}function C(t,n,r){return 0===t?n:1===t?r:{x:q(t,n.x,r.x),y:q(t,n.y,r.y)}}function D(t,n,r){var e=function(t,n,r){return Math.round(q(t,n,r))}(t,n,r);return e<=0?0:e>=255?255:e}function z(t,n,r){return 0===t?n:1===t?r:{r:D(t,n.r,r.r),g:D(t,n.g,r.g),b:D(t,n.b,r.b),a:q(t,null==n.a?1:n.a,null==r.a?1:r.a)}}function V(t,n){for(var r=[],e=0;e<t;e++)r.push(n);return r}function G(t,n){if(--n<=0)return t;var r=(t=Object.assign([],t)).length;do{for(var e=0;e<r;e++)t.push(t[e])}while(--n>0);return t}var Y,$=function(){function t(n){e(this,t),this.list=n,this.length=n.length}return o(t,[{key:"setAttribute",value:function(t,n){for(var r=this.list,e=0;e<this.length;e++)r[e].setAttribute(t,n)}},{key:"removeAttribute",value:function(t){for(var n=this.list,r=0;r<this.length;r++)n[r].removeAttribute(t)}},{key:"style",value:function(t,n){for(var r=this.list,e=0;e<this.length;e++)r[e].style[t]=n}}]),t}(),U=/-./g,Q=function(t,n){return n.toUpperCase()};function H(t){return"function"==typeof t?t:T}function J(t){return t?"function"==typeof t?t:Array.isArray(t)?function(t){var n=arguments.length>1&&void 0!==arguments[1]?arguments[1]:b;if(!Array.isArray(t))return n;switch(t.length){case 1:return _(t[0])||n;case 2:return _(t[0],t[1])||n;case 4:return x(t[0],t[1],t[2],t[3])||n}return n}(t,null):function(t,n){var r=arguments.length>2&&void 0!==arguments[2]?arguments[2]:b;switch(t){case"linear":return b;case"steps":return _(n.steps||1,n.jump||0)||r;case"bezier":case"cubic-bezier":return x(n.x1||0,n.y1||0,n.x2||0,n.y2||0)||r}return r}(t.type,t.value,null):null}function Z(t,n,r){var e=arguments.length>3&&void 0!==arguments[3]&&arguments[3],i=n.length-1;if(t<=n[0].t)return e?[0,0,n[0].v]:n[0].v;if(t>=n[i].t)return e?[i,1,n[i].v]:n[i].v;var o,u=n[0],a=null;for(o=1;o<=i;o++){if(!(t>n[o].t)){a=n[o];break}u=n[o]}return null==a?e?[i,1,n[i].v]:n[i].v:u.t===a.t?e?[o,1,a.v]:a.v:(t=(t-u.t)/(a.t-u.t),u.e&&(t=u.e(t)),e?[o,t,r(t,u.v,a.v)]:r(t,u.v,a.v))}function K(t,n){var r=arguments.length>2&&void 0!==arguments[2]?arguments[2]:null;return t&&t.length?"function"!=typeof n?null:("function"!=typeof r&&(r=null),function(e){var i=Z(e,t,n);return null!=i&&r&&(i=r(i)),i}):null}function W(t,n){return t.t-n.t}function X(t,n,e,i,o){var u,a="@"===e[0],l="#"===e[0],f=Y[e],s=T;switch(a?(u=e.substr(1),e=u.replace(U,Q)):l&&(e=e.substr(1)),r(f)){case"function":if(s=f(i,o,Z,J,e,a,n,t),l)return s;break;case"string":s=K(i,H(f));break;case"object":if((s=K(i,H(f.i),f.f))&&"function"==typeof f.u)return f.u(n,s,e,a,t)}return s?function(t,n,r){if(arguments.length>3&&void 0!==arguments[3]&&arguments[3])return t instanceof $?function(e){return t.style(n,r(e))}:function(e){return t.style[n]=r(e)};if(Array.isArray(n)){var e=n.length;return function(i){var o=r(i);if(null==o)for(var u=0;u<e;u++)t[u].removeAttribute(n);else for(var a=0;a<e;a++)t[a].setAttribute(n,o)}}return function(e){var i=r(e);null==i?t.removeAttribute(n):t.setAttribute(n,i)}}(n,e,s,a):null}function tt(t,n,e,i){if(!i||"object"!==r(i))return null;var o=null,u=null;return Array.isArray(i)?u=function(t){if(!t||!t.length)return null;for(var n=0;n<t.length;n++)t[n].e&&(t[n].e=J(t[n].e));return t.sort(W)}(i):(u=i.keys,o=i.data||null),u?X(t,n,e,u,o):null}function nt(t,n,r){if(!r)return null;var e=[];for(var i in r)if(r.hasOwnProperty(i)){var o=tt(t,n,i,r[i]);o&&e.push(o)}return e.length?e:null}function rt(t,n){if(!n.duration||n.duration<0)return null;var r=function(t,n){if(!n)return null;var r=[];if(Array.isArray(n))for(var e=n.length,i=0;i<e;i++){var o=n[i];if(2===o.length){var u=null;if("string"==typeof o[0])u=t.getElementById(o[0]);else if(Array.isArray(o[0])){u=[];for(var a=0;a<o[0].length;a++)if("string"==typeof o[0][a]){var l=t.getElementById(o[0][a]);l&&u.push(l)}u=u.length?1===u.length?u[0]:new $(u):null}if(u){var f=nt(t,u,o[1]);f&&(r=r.concat(f))}}}else for(var s in n)if(n.hasOwnProperty(s)){var c=t.getElementById(s);if(c){var h=nt(t,c,n[s]);h&&(r=r.concat(h))}}return r.length?r:null}(t,n.elements);return r?function(t,n){var r=arguments.length>2&&void 0!==arguments[2]?arguments[2]:1/0,e=arguments.length>3&&void 0!==arguments[3]?arguments[3]:1,i=arguments.length>4&&void 0!==arguments[4]&&arguments[4],o=arguments.length>5&&void 0!==arguments[5]?arguments[5]:1,u=t.length,a=e>0?n:0;i&&r%2==0&&(a=n-a);var l=null;return function(f,s){var c=f%n,h=1+(f-c)/n;s*=e,i&&h%2==0&&(s=-s);var v=!1;if(h>r)c=a,v=!0,-1===o&&(c=e>0?0:n);else if(s<0&&(c=n-c),c===l)return!1;l=c;for(var y=0;y<u;y++)t[y](c);return v}}(r,n.duration,n.iterations||1/0,n.direction||1,!!n.alternate,n.fill||1):null}function et(t){return+("0x"+(t.replace(/[^0-9a-fA-F]+/g,"")||27))}function it(t,n,r){return!t||!r||n>t.length?t:t.substring(0,n)+it(t.substring(n+1),r,r)}function ot(t){var n=arguments.length>1&&void 0!==arguments[1]?arguments[1]:27;return!t||t%n?t%n:ot(t/n,n)}function ut(t,n,r){if(t&&t.length){var e=et(r),i=et(n),o=ot(e)+5,u=it(t,ot(e,5),o);return u=u.replace(/\x7c$/g,"==").replace(/\x2f$/g,"="),u=function(t,n,r){var e=+("0x"+t.substring(0,4));t=t.substring(4);for(var i=n%e+r%27,o=[],u=0;u<t.length;u+=2)if("|"!==t[u]){var a=+("0x"+t[u]+t[u+1])-i;o.push(a)}else{var l=+("0x"+t.substring(u+1,u+1+4))-i;u+=3,o.push(l)}return String.fromCharCode.apply(String,o)}(u=(u=atob(u)).replace(/[\x41-\x5A]/g,""),i,e),u=JSON.parse(u)}}var at=function(){function t(n,r){var i=arguments.length>2&&void 0!==arguments[2]?arguments[2]:{};e(this,t),this._id=0,this._running=!1,this._rollingBack=!1,this._animations=n,this.duration=r.duration,this.alternate=r.alternate,this.fill=r.fill,this.iterations=r.iterations,this.direction=i.direction||1,this.speed=i.speed||1,this.fps=i.fps||100,this.offset=i.offset||0,this.rollbackStartOffset=0}return o(t,[{key:"maxFiniteDuration",get:function(){return this.iterations>0?this.iterations*this.duration:this.duration}},{key:"_apply",value:function(t){for(var n=arguments.length>1&&void 0!==arguments[1]?arguments[1]:{},r=this._animations,e=r.length,i=0,o=0;o<e;o++)n[o]?i++:(n[o]=r[o](t,this.direction),n[o]&&i++);return i}},{key:"_rollback",value:function(){var t=this,n=1/0,r=null;this.rollbackStartOffset=this.offset,this._rollingBack=!0,this._running=!0;this._id=window.requestAnimationFrame((function e(i){if(t._rollingBack){null==r&&(r=i);var o=i-r,u=t.rollbackStartOffset-o,a=Math.round(u*t.speed);if(a>t.duration&&n!==1/0){var l=!!t.alternate&&a/t.duration%2>1,f=a%t.duration;a=(f+=l?t.duration:0)||t.duration}var s=t.fps?1e3/t.fps:0,c=Math.max(0,a);c<n-s&&(t.offset=c,n=c,t._apply(c));var h=t.iterations>0&&-1===t.fill&&a>=t.maxFiniteDuration;(a<=0||t.offset<a||h)&&t.stop(),t._id=window.requestAnimationFrame(e)}}))}},{key:"_start",value:function(){var t=this,n=arguments.length>0&&void 0!==arguments[0]?arguments[0]:0,r=-1/0,e=null,i={};this._running=!0;var o=function o(u){null==e&&(e=u);var a=Math.round((u-e+n)*t.speed),l=t.fps?1e3/t.fps:0;if(a>r+l&&!t._rollingBack&&(t.offset=a,r=a,t._apply(a,i)===t._animations.length))return void t.pause(!0);t._id=window.requestAnimationFrame(o)};this._id=window.requestAnimationFrame(o)}},{key:"_pause",value:function(){this._id&&window.cancelAnimationFrame(this._id),this._running=!1}},{key:"play",value:function(){if(!this._running)return this._rollingBack?this._rollback():this._start(this.offset)}},{key:"stop",value:function(){this._pause(),this.offset=0,this.rollbackStartOffset=0,this._rollingBack=!1,this._apply(0)}},{key:"reachedToEnd",value:function(){return this.iterations>0&&this.offset>=this.iterations*this.duration}},{key:"restart",value:function(){var t=arguments.length>0&&void 0!==arguments[0]&&arguments[0];this.stop(t),this.play(t)}},{key:"pause",value:function(){this._pause()}},{key:"reverse",value:function(){this.direction=-this.direction}}],[{key:"build",value:function(t,r){return delete t.animationSettings,t.options=ut(t.options,t.root,"5c7f360c"),t.animations.map((function(r){var e=ut(r.s,t.root,"5c7f360c");for(var i in delete r.s,t.animationSettings||(t.animationSettings=n({},e)),e)e.hasOwnProperty(i)&&(r[i]=e[i])})),(t=function(t,n){if(Y=n,!t||!t.root||!Array.isArray(t.animations))return null;for(var r=document.getElementsByTagName("svg"),e=!1,i=0;i<r.length;i++)if(r[i].id===t.root&&!r[i].svgatorAnimation){(e=r[i]).svgatorAnimation=!0;break}if(!e)return null;var o=t.animations.map((function(t){return rt(e,t)})).filter((function(t){return!!t}));return o.length?{element:e,animations:o,animationSettings:t.animationSettings,options:t.options||void 0}:null}(t,r))?{el:t.element,options:t.options||{},player:new this(t.animations,t.animationSettings,t.options)}:null}},{key:"push",value:function(t){return this.build(t)}},{key:"init",value:function(){var t=this,n=window.__SVGATOR_PLAYER__&&window.__SVGATOR_PLAYER__["5c7f360c"];Array.isArray(n)&&n.splice(0).forEach((function(n){return t.build(n)}))}}]),t}();function lt(t){return p(t)+""}function ft(t){var n=arguments.length>1&&void 0!==arguments[1]?arguments[1]:" ";return t&&t.length?t.map(lt).join(n):""}function st(t){if(!t)return"transparent";if(null==t.a||t.a>=1){var n=function(t){return 1===(t=parseInt(t).toString(16)).length?"0"+t:t},r=function(t){return t.charAt(0)===t.charAt(1)},e=n(t.r),i=n(t.g),o=n(t.b);return r(e)&&r(i)&&r(o)&&(e=e.charAt(0),i=i.charAt(0),o=o.charAt(0)),"#"+e+i+o}return"rgba("+t.r+","+t.g+","+t.b+","+t.a+")"}function ct(t){return t?"url(#"+t+")":"none"}!function(){for(var t=0,n=["ms","moz","webkit","o"],r=0;r<n.length&&!window.requestAnimationFrame;++r)window.requestAnimationFrame=window[n[r]+"RequestAnimationFrame"],window.cancelAnimationFrame=window[n[r]+"CancelAnimationFrame"]||window[n[r]+"CancelRequestAnimationFrame"];window.requestAnimationFrame||(window.requestAnimationFrame=function(n){var r=Date.now(),e=Math.max(0,16-(r-t)),i=window.setTimeout((function(){n(r+e)}),e);return t=r+e,i},window.cancelAnimationFrame=window.clearTimeout)}();var ht={f:null,i:function(t,n,r){return 0===t?n:1===t?r:{x:B(t,n.x,r.x),y:B(t,n.y,r.y)}},u:function(t,n){return function(r){var e=n(r);t.setAttribute("rx",lt(e.x)),t.setAttribute("ry",lt(e.y))}}},vt={f:null,i:function(t,n,r){return 0===t?n:1===t?r:{width:B(t,n.width,r.width),height:B(t,n.height,r.height)}},u:function(t,n){return function(r){var e=n(r);t.setAttribute("width",lt(e.width)),t.setAttribute("height",lt(e.height))}}};Object.freeze({M:2,L:2,Z:0,H:1,V:1,C:6,Q:4,T:2,S:4,A:7});var yt={},gt=null;function pt(t){var n=function(){if(gt)return gt;if("object"!==("undefined"==typeof document?"undefined":r(document))||!document.createElementNS)return{};var t=document.createElementNS("http://www.w3.org/2000/svg","svg");return t&&t.style?(t.style.position="absolute",t.style.opacity="0.01",t.style.zIndex="-9999",t.style.left="-9999px",t.style.width="1px",t.style.height="1px",gt={svg:t}):{}}().svg;if(!n)return function(t){return null};var e=document.createElementNS(n.namespaceURI,"path");e.setAttributeNS(null,"d",t),e.setAttributeNS(null,"fill","none"),e.setAttributeNS(null,"stroke","none"),n.appendChild(e);var i=e.getTotalLength();return function(t){var n=e.getPointAtLength(i*t);return{x:n.x,y:n.y}}}function dt(t){return yt[t]?yt[t]:yt[t]=pt(t)}function mt(t,n,r,e){if(!t||!e)return!1;var i=["M",t.x,t.y];if(n&&r&&(i.push("C"),i.push(n.x),i.push(n.y),i.push(r.x),i.push(r.y)),n?!r:r){var o=n||r;i.push("Q"),i.push(o.x),i.push(o.y)}return n||r||i.push("L"),i.push(e.x),i.push(e.y),i.join(" ")}function bt(t,n,r,e){var i=arguments.length>4&&void 0!==arguments[4]?arguments[4]:1,o=mt(t,n,r,e),u=dt(o);try{return u(i)}catch(t){return null}}function wt(t,n,r){return t+(n-t)*r}function xt(t,n,r){var e=arguments.length>3&&void 0!==arguments[3]&&arguments[3],i={x:wt(t.x,n.x,r),y:wt(t.y,n.y,r)};return e&&(i.a=At(t,n)),i}function At(t,n){return Math.atan2(n.y-t.y,n.x-t.x)}function kt(t,n,r,e){var i=1-e;return i*i*t+2*i*e*n+e*e*r}function _t(t,n,r,e){return 2*(1-e)*(n-t)+2*e*(r-n)}function St(t,n,r,e){var i=arguments.length>4&&void 0!==arguments[4]&&arguments[4],o=bt(t,n,null,r,e);return o||(o={x:kt(t.x,n.x,r.x,e),y:kt(t.y,n.y,r.y,e)}),i&&(o.a=Ot(t,n,r,e)),o}function Ot(t,n,r,e){return Math.atan2(_t(t.y,n.y,r.y,e),_t(t.x,n.x,r.x,e))}function jt(t,n,r,e,i){var o=i*i;return i*o*(e-t+3*(n-r))+3*o*(t+r-2*n)+3*i*(n-t)+t}function Mt(t,n,r,e,i){var o=1-i;return 3*(o*o*(n-t)+2*o*i*(r-n)+i*i*(e-r))}function Pt(t,n,r,e,i){var o=arguments.length>5&&void 0!==arguments[5]&&arguments[5],u=bt(t,n,r,e,i);return u||(u={x:jt(t.x,n.x,r.x,e.x,i),y:jt(t.y,n.y,r.y,e.y,i)}),o&&(u.a=Et(t,n,r,e,i)),u}function Et(t,n,r,e,i){return Math.atan2(Mt(t.y,n.y,r.y,e.y,i),Mt(t.x,n.x,r.x,e.x,i))}function It(t,n,r){var e=arguments.length>3&&void 0!==arguments[3]&&arguments[3];if(Ft(n)){if(Nt(r))return St(n,r.start,r,t,e)}else if(Ft(r)){if(n.end)return St(n,n.end,r,t,e)}else{if(n.end)return r.start?Pt(n,n.end,r.start,r,t,e):St(n,n.end,r,t,e);if(r.start)return St(n,r.start,r,t,e)}return xt(n,r,t,e)}function Rt(t,n,r){var e=It(t,n,r,!0);return e.a=function(t){return arguments.length>1&&void 0!==arguments[1]&&arguments[1]?t+Math.PI:t}(e.a)/m,e}function Ft(t){return!t.type||"corner"===t.type}function Nt(t){return null!=t.start&&!Ft(t)}var Tt=new N;var qt={f:lt,i:q},Bt={f:lt,i:L};function Lt(t,n,r){return t.map((function(t){return function(t,n,r){var e=t.v;if(!e||"g"!==e.t||e.s||!e.v||!e.r)return t;var i=r.getElementById(e.r),o=i&&i.querySelectorAll("stop")||[];return e.s=e.v.map((function(t,n){var r=o[n]&&o[n].getAttribute("offset");return{c:t,o:r=p(parseInt(r)/100)}})),delete e.v,t}(t,0,r)}))}var Ct={gt:"gradientTransform",c:{x:"cx",y:"cy"},rd:"r",f:{x:"x1",y:"y1"},to:{x:"x2",y:"y2"}};function Dt(t,n,e,i,o,u,a,l){return Lt(t,0,l),n=function(t,n,r){for(var e,i,o,u=t.length-1,a={},l=0;l<=u;l++)(e=t[l]).e&&(e.e=n(e.e)),e.v&&"g"===(i=e.v).t&&i.r&&(o=r.getElementById(i.r))&&(a[i.r]={e:o,s:o.querySelectorAll("stop")});return a}(t,i,l),function(i){var o=e(i,t,zt);if(!o)return"none";if("c"===o.t)return st(o.v);if("g"===o.t){if(!n[o.r])return ct(o.r);var u=n[o.r];return function(t,n){for(var r=t.s,e=r.length;e<n.length;e++){var i=r[r.length-1].cloneNode();i.id=Yt(i.id),t.e.appendChild(i),r=t.s=t.e.querySelectorAll("stop")}for(var o=0,u=r.length,a=n.length-1;o<u;o++)r[o].setAttribute("stop-color",st(n[Math.min(o,a)].c)),r[o].setAttribute("offset",n[Math.min(o,a)].o)}(u,o.s),Object.keys(Ct).forEach((function(t){if(void 0!==o[t])if("object"!==r(Ct[t])){var n,e="gt"===t?(n=o[t],Array.isArray(n)?"matrix("+n.join(" ")+")":""):o[t],i=Ct[t];u.e.setAttribute(i,e)}else Object.keys(Ct[t]).forEach((function(n){if(void 0!==o[t][n]){var r=o[t][n],e=Ct[t][n];u.e.setAttribute(e,r)}}))})),ct(o.r)}return"none"}}function zt(t,r,e){if(0===t)return r;if(1===t)return e;if(r&&e){var i=r.t;if(i===e.t)switch(r.t){case"c":return{t:i,v:z(t,r.v,e.v)};case"g":if(r.r===e.r){var o={t:i,s:Vt(t,r.s,e.s),r:r.r};return r.gt&&e.gt&&(o.gt=function(t,n,r){var e=n.length;if(e!==r.length)return T(t,n,r);for(var i=new Array(e),o=0;o<e;o++)i[o]=q(t,n[o],r[o]);return i}(t,r.gt,e.gt)),r.c?(o.c=C(t,r.c,e.c),o.rd=B(t,r.rd,e.rd)):r.f&&(o.f=C(t,r.f,e.f),o.to=C(t,r.to,e.to)),o}}if("c"===r.t&&"g"===e.t||"c"===e.t&&"g"===r.t){var u="c"===r.t?r:e,a="g"===r.t?n({},r):n({},e),l=a.s.map((function(t){return{c:u.v,o:t.o}}));return a.s="c"===r.t?Vt(t,l,a.s):Vt(t,a.s,l),a}}return T(t,r,e)}function Vt(t,n,r){if(n.length===r.length)return n.map((function(n,e){return Gt(t,n,r[e])}));for(var e=Math.max(n.length,r.length),i=[],o=0;o<e;o++){var u=Gt(t,n[Math.min(o,n.length-1)],r[Math.min(o,r.length-1)]);i.push(u)}return i}function Gt(t,n,r){return{o:L(t,n.o,r.o||0),c:z(t,n.c,r.c||{})}}function Yt(t){return t.replace(/-fill-([0-9]+)$/,(function(t,n){return"-fill-"+(+n+1)}))}var $t={fill:Dt,"fill-opacity":Bt,stroke:Dt,"stroke-opacity":Bt,"stroke-width":qt,"stroke-dashoffset":{f:lt,i:q},"stroke-dasharray":{f:function(t){var n=arguments.length>1&&void 0!==arguments[1]?arguments[1]:" ";return t&&t.length>0&&(t=t.map((function(t){return p(t,4)}))),ft(t,n)},i:function(t,n,r){var e,i,o,u=n.length,a=r.length;if(u!==a)if(0===u)n=V(u=a,0);else if(0===a)a=u,r=V(u,0);else{var l=(o=(e=u)*(i=a)/function(t,n){for(var r;n;)r=n,n=t%n,t=r;return t||1}(e,i))<0?-o:o;n=G(n,Math.floor(l/u)),r=G(r,Math.floor(l/a)),u=a=l}for(var f=[],s=0;s<u;s++)f.push(p(B(t,n[s],r[s])));return f}},opacity:Bt,transform:function(t,n,e,i){if(!(t=function(t,n){if(!t||"object"!==r(t))return null;var e=!1;for(var i in t)t.hasOwnProperty(i)&&(t[i]&&t[i].length?(t[i].forEach((function(t){t.e&&(t.e=n(t.e))})),e=!0):delete t[i]);return e?t:null}(t,i)))return null;var o=function(r,i,o){var u=arguments.length>3&&void 0!==arguments[3]?arguments[3]:null;return t[r]?e(i,t[r],o):n&&n[r]?n[r]:u};return n&&n.a&&t.o?function(n){var r=e(n,t.o,Rt);return Tt.recomposeSelf(r,o("r",n,q,0)+r.a,o("k",n,C),o("s",n,C),o("t",n,C)).toString()}:function(t){return Tt.recomposeSelf(o("o",t,It,null),o("r",t,q,0),o("k",t,C),o("s",t,C),o("t",t,C)).toString()}},r:qt,"#size":vt,"#radius":ht,_:function(t,n){if(Array.isArray(t))for(var r=0;r<t.length;r++)this[t[r]]=n;else this[t]=n}},Ut=function(t){!function(t,n){if("function"!=typeof n&&null!==n)throw new TypeError("Super expression must either be null or a function");t.prototype=Object.create(n&&n.prototype,{constructor:{value:t,writable:!0,configurable:!0}}),n&&l(t,n)}(u,t);var n,r,i=(n=u,r=f(),function(){var t,e=a(n);if(r){var i=a(this).constructor;t=Reflect.construct(e,arguments,i)}else t=e.apply(this,arguments);return c(this,t)});function u(){return e(this,u),i.apply(this,arguments)}return o(u,null,[{key:"build",value:function(t){var n=h(a(u),"build",this).call(this,t,$t);if(!n)return null;n.el,n.options,function(t,n,r){t.play()}(n.player)}}]),u}(at);return Ut.init(),Ut}));
(function(s,i,o,w,a,b){w[o]=w[o]||{};w[o][s]=w[o][s]||[];w[o][s].push(i);})('5c7f360c',{"root":"e6U8Ifv9NjW1","animations":[{"elements":{"e6U8Ifv9NjW6":{"transform":{"data":{"o":{"x":229.03125,"y":273.066407,"type":"corner"},"t":{"x":-229.03125,"y":-273.066406}},"keys":{"r":[{"t":0,"v":0,"e":[0.42,0,0.58,1]},{"t":500,"v":52.177297,"e":[0.42,0,0.58,1]},{"t":2000,"v":263.453559}]}}},"e6U8Ifv9NjW8":{"transform":{"data":{"t":{"x":-169.298828,"y":-384}},"keys":{"o":[{"t":1500,"v":{"x":144.570671,"y":400.985826,"type":"corner"}},{"t":1800,"v":{"x":154.282527,"y":453.789715,"type":"corner"}},{"t":2100,"v":{"x":143.525299,"y":492.121708,"type":"corner"}}]}}},"e6U8Ifv9NjW9":{"transform":{"data":{"t":{"x":-237.564453,"y":-341.333984}},"keys":{"o":[{"t":0,"v":{"x":237.564453,"y":341.333984,"type":"corner"}},{"t":500,"v":{"x":255.961056,"y":317.636621,"type":"corner"}},{"t":2500,"v":{"x":231.53112,"y":355.095643,"type":"corner"}}]}}},"e6U8Ifv9NjW10":{"transform":{"data":{"t":{"x":-305.830078,"y":-384}},"keys":{"o":[{"t":0,"v":{"x":305.830078,"y":384,"type":"corner"}},{"t":1000,"v":{"x":298.097962,"y":344.754436,"type":"corner"}},{"t":1700,"v":{"x":325.5469,"y":356.860459,"type":"corner"}}]}}},"e6U8Ifv9NjW11":{"transform":{"data":{"t":{"x":-109.564453,"y":-332.798828}},"keys":{"o":[{"t":0,"v":{"x":109.564453,"y":332.798828,"type":"corner"}},{"t":400,"v":{"x":108.125337,"y":304.551192,"type":"corner"}},{"t":1100,"v":{"x":82.766505,"y":320.580216,"type":"corner"}}]}}},"e6U8Ifv9NjW13":{"transform":{"data":{"t":{"x":-177.830078,"y":-315.732422}},"keys":{"o":[{"t":0,"v":{"x":177.830078,"y":315.732422,"type":"corner"}},{"t":600,"v":{"x":189.58457,"y":299.551202,"type":"corner"}},{"t":1600,"v":{"x":145.703704,"y":290.92163,"type":"corner"}}]}}},"e6U8Ifv9NjW14":{"transform":{"data":{"t":{"x":-348.498047,"y":-179.201172}},"keys":{"o":[{"t":500,"v":{"x":323.969243,"y":210.797656,"type":"corner"}},{"t":1500,"v":{"x":279.674483,"y":216.959986,"type":"corner"}}]}}},"e6U8Ifv9NjW16":{"transform":{"data":{"o":{"x":231.736031,"y":256,"type":"corner"},"t":{"x":-231.736025,"y":-255.999999}},"keys":{"r":[{"t":0,"v":-41.51228,"e":[0.42,0,0.58,1]},{"t":500,"v":10.576763},{"t":700,"v":6.786849},{"t":1000,"v":13.180162}]}}},"e6U8Ifv9NjW19":{"transform":{"data":{"o":{"x":237.564453,"y":251.401431,"type":"corner"},"t":{"x":-237.564453,"y":-251.401423}},"keys":{"r":[{"t":0,"v":-1.159398,"e":[0.42,0,0.58,1]},{"t":2500,"v":71.525742}],"s":[{"t":0,"v":{"x":1,"y":1},"e":[0.42,0,0.58,1]},{"t":500,"v":{"x":0.919844,"y":0.919844},"e":[0.42,0,0.58,1]},{"t":2500,"v":{"x":0.971994,"y":0.971994}}]}}}},"s":"MQDA1M2I4NWZhMWIyYWUY5ZUJiMWE2YWNhYjVFmNzc3MDZkNmRVNmQ2HOTVmYTFhNkRhZmEyYXTBiMWE2YWNhYjVmNzBc2ZTY5NWZhNkhiMWEKyYWY5ZUJiMWE2SGFjBYWJiMDVmSTc3NmQ2OXTVmYTNhNmE5YTlFNWTY3NzZlNjlPNWY5ZWEL5YjFhMmFmYWI5ZWIxXQ2EyNWY3N2EzOWVhOUWIwYTI2OTVmYjBhZGIEyYTJhMTVmNzc2ZWJDh"}],"options":"MFDAxMEY4ODJmODBFODOE2ZTdmODEyZjQ3MmYJ3OTdjNmU3MTJmOGE/F"},'__SVGATOR_PLAYER__',window)]]>
</script>
</svg> 