<svg xmlns="http://www.w3.org/2000/svg" id="clover" height="512" viewBox="0 0 64 64" width="512" data-name="Layer 3">
    <path d="m25.382 47.768-.588-.491a16.058 16.058 0 0 1 -5.794-12.319l2-.006a14.073 14.073 0 0 0 5.075 10.789l.588.491z" fill="#669e4f"/>
    <path d="m48 58h-8l-6 4-32-7v-1a4 4 0 0 1 4-4h24v-.26a2 2 0 0 1 .481-1.3l5.519-6.44h12z" fill="#fadfb2"/>
    <path d="m54 40h8v22h-8z" fill="#669e4f" transform="matrix(-1 0 0 -1 116 102)"/>
    <path d="m48 40h6v20h-6z" fill="#f2c351" transform="matrix(-1 0 0 -1 102 100)"/>
    <path d="m33.171 54h-1.171a3 3 0 0 1 -3-3v-1h2v1a1 1 0 0 0 1 1h1.172a1 1 0 0 0 .706-.293l4.415-4.415 1.415 1.415-4.415 4.414a2.98 2.98 0 0 1 -2.122.879z" fill="#f5cf88"/>
    <path d="m20.023 20 8.992-8.992a5.3 5.3 0 0 0 -.259-7.741 5.3 5.3 0 0 0 -7.241.241l-1.492 1.492-1.492-1.492a5.3 5.3 0 0 0 -7.242-.241 5.3 5.3 0 0 0 -.258 7.741z" fill="#78b75b"/>
    <path d="m20.023 19.955 8.992 8.991a5.3 5.3 0 0 1 -.259 7.742 5.3 5.3 0 0 1 -7.241-.241l-1.492-1.492-1.492 1.492a5.3 5.3 0 0 1 -7.242.241 5.3 5.3 0 0 1 -.258-7.742z" fill="#78b75b"/>
    <path d="m20 19.977 8.992-8.992a5.3 5.3 0 0 1 7.741.259 5.3 5.3 0 0 1 -.241 7.241l-1.492 1.492 1.491 1.492a5.3 5.3 0 0 1 .241 7.242 5.3 5.3 0 0 1 -7.741.258z" fill="#669e4f"/>
    <path d="m20.045 19.977-8.991-8.992a5.3 5.3 0 0 0 -7.742.259 5.3 5.3 0 0 0 .241 7.241l1.492 1.492-1.492 1.492a5.3 5.3 0 0 0 -.241 7.242 5.3 5.3 0 0 0 7.742.258z" fill="#669e4f"/>
    <path d="m52 12 5.087-5.087a2.878 2.878 0 0 0 0-4.07 2.878 2.878 0 0 0 -4.07 0l-1.017 1.017-1.017-1.017a2.878 2.878 0 0 0 -4.07 0 2.878 2.878 0 0 0 0 4.07z" fill="#96cc7f"/>
    <path d="m52 12 5.087 5.087a2.878 2.878 0 0 1 0 4.07 2.878 2.878 0 0 1 -4.07 0l-1.017-1.017-1.016 1.017a2.878 2.878 0 0 1 -4.07 0 2.878 2.878 0 0 1 0-4.07z" fill="#96cc7f"/>
    <path d="m52 26 5.087 5.087a2.878 2.878 0 0 1 0 4.07 2.878 2.878 0 0 1 -4.07 0l-1.017-1.017-1.016 1.017a2.878 2.878 0 0 1 -4.07 0 2.878 2.878 0 0 1 0-4.07z" fill="#669e4f"/>
    <g fill="#78b75b">
        <path d="m52 12 5.087-5.087a2.878 2.878 0 0 1 4.07 0 2.878 2.878 0 0 1 0 4.07l-1.017 1.017 1.017 1.016a2.878 2.878 0 0 1 0 4.07 2.878 2.878 0 0 1 -4.07 0z"/>
        <path d="m52 12-5.087-5.087a2.878 2.878 0 0 0 -4.07 0 2.878 2.878 0 0 0 0 4.07l1.017 1.017-1.017 1.016a2.878 2.878 0 0 0 0 4.07 2.878 2.878 0 0 0 4.07 0z"/>
        <path d="m54 55.08a24.97 24.97 0 0 0 8-8.492v-6.588h-8z"/>
    </g>
    <path d="m48 57.941a24.7 24.7 0 0 0 6-2.861v-15.08h-6z" fill="#f7d881"/>
</svg>